<svg width="306" height="230" viewBox="0 0 306 230" fill="none" xmlns="http://www.w3.org/2000/svg">
<path d="M181.076 78.9602C181.076 78.9602 189.422 79.3493 201.623 89.5723C213.825 99.7952 218.285 106.845 218.285 106.845V66.4104C218.285 66.4104 202.794 48.5049 182.33 41.6921L181.076 78.9602Z" fill="#E6E7E8"/>
<path d="M218.285 107.226C218.221 107.227 218.157 107.212 218.101 107.181C218.045 107.15 217.997 107.105 217.964 107.05C217.918 106.982 213.374 99.9173 201.379 89.8622C189.383 79.807 181.137 79.3417 181.053 79.3417C180.953 79.3339 180.86 79.2884 180.794 79.2147C180.727 79.1409 180.691 79.0444 180.693 78.9449L181.909 41.7074C181.912 41.648 181.928 41.5901 181.957 41.5383C181.987 41.4866 182.028 41.4425 182.078 41.4098C182.125 41.3739 182.18 41.3502 182.239 41.3408C182.298 41.3315 182.358 41.3369 182.414 41.3564C202.779 48.1234 218.415 66.0136 218.576 66.1967C218.636 66.2637 218.669 66.3509 218.668 66.4409V106.875C218.668 106.958 218.641 107.038 218.591 107.104C218.541 107.17 218.472 107.218 218.392 107.241L218.285 107.226ZM181.466 78.6093C183.248 78.8076 191.005 80.1351 201.868 89.29C211.339 97.2242 216.212 103.328 217.933 105.647V66.5858C216.625 65.1134 201.799 48.7872 182.69 42.2414L181.466 78.6093Z" fill="#231F20"/>
<path d="M93.2535 93.074V57.08C107.273 52.2245 122.127 50.2269 136.935 51.2056V85.7348C136.935 85.7348 110.198 86.4672 93.2535 93.074Z" fill="#E6E7E8"/>
<path d="M93.2612 93.4555C93.1832 93.4542 93.1069 93.4332 93.0393 93.3944C92.9896 93.3569 92.9493 93.3085 92.9215 93.2529C92.8936 93.1974 92.879 93.1361 92.8787 93.074V57.08C92.878 57.0044 92.9003 56.9305 92.9426 56.8678C92.985 56.8052 93.0454 56.7568 93.1158 56.7291C107.202 51.8755 122.116 49.8682 136.989 50.8241C137.085 50.8318 137.174 50.8754 137.239 50.9461C137.305 51.0168 137.341 51.1095 137.34 51.2056V85.7272C137.343 85.7766 137.335 85.8258 137.317 85.872C137.299 85.9182 137.273 85.9604 137.238 85.9961C137.204 86.0317 137.163 86.06 137.117 86.0794C137.072 86.0987 137.023 86.1087 136.973 86.1087C136.706 86.1087 110.084 86.925 93.3683 93.4326C93.3337 93.4447 93.2977 93.4524 93.2612 93.4555ZM93.6437 57.347V92.5247C109.38 86.5588 133.309 85.4831 136.575 85.361V51.5642C122.024 50.682 107.439 52.6465 93.6437 57.347V57.347Z" fill="#231F20"/>
<path d="M98.4555 87.1462C98.3724 87.148 98.2914 87.121 98.226 87.0699C98.1776 87.0353 98.1383 86.9894 98.1117 86.9362C98.085 86.883 98.0717 86.8242 98.073 86.7648V61.1844C98.073 61.0833 98.1133 60.9862 98.185 60.9147C98.2568 60.8432 98.354 60.803 98.4555 60.803C98.5563 60.8049 98.6525 60.8458 98.7238 60.9169C98.7951 60.988 98.836 61.0839 98.838 61.1844V86.246C102.303 85.1627 121.88 79.2272 129.186 80.7378C129.236 80.7478 129.284 80.7676 129.326 80.796C129.369 80.8244 129.405 80.861 129.434 80.9035C129.462 80.946 129.482 80.9936 129.492 81.0437C129.502 81.0939 129.502 81.1454 129.492 81.1955C129.481 81.2456 129.462 81.2933 129.433 81.3357C129.405 81.3781 129.368 81.4146 129.325 81.4429C129.283 81.4713 129.235 81.4909 129.185 81.5009C129.134 81.5108 129.083 81.5107 129.033 81.5007C121.383 79.9215 98.7997 87.0699 98.5702 87.1462H98.4555Z" fill="#231F20"/>
<path d="M76.5 113.085C76.5 113.085 63.495 118.471 58.576 134.386V102.557C58.576 102.557 58.293 87.1309 76.5 77.3352V113.085Z" fill="#E6E7E8"/>
<path d="M58.5378 134.767H58.4842C58.393 134.756 58.309 134.711 58.2484 134.643C58.1877 134.574 58.1546 134.485 58.1553 134.393V102.557C58.1553 102.404 58.1553 86.7876 76.2782 76.9995C76.3368 76.9675 76.4025 76.9507 76.4694 76.9507C76.5363 76.9507 76.602 76.9675 76.6607 76.9995C76.717 77.0338 76.7636 77.082 76.7958 77.1394C76.8279 77.1969 76.8446 77.2617 76.8442 77.3276V113.077C76.8439 113.153 76.8212 113.226 76.779 113.289C76.7367 113.351 76.677 113.4 76.6071 113.428C72.369 115.548 68.6117 118.511 65.567 122.135C62.5223 125.759 60.255 129.968 58.905 134.5C58.8805 134.578 58.8316 134.646 58.7655 134.694C58.6994 134.742 58.6196 134.767 58.5378 134.767V134.767ZM76.0792 77.9837C58.905 87.5353 58.905 102.397 58.905 102.549V132.089C62.0016 123.754 68.1261 116.884 76.064 112.841L76.0792 77.9837Z" fill="#231F20"/>
<path d="M58.5378 102.557C58.5378 102.557 61.7278 116.396 74.0061 120.981V158.226C74.0061 158.226 60.0142 148.568 58.5378 134.386V102.557Z" fill="white"/>
<path d="M74.0061 158.608C73.9292 158.608 73.8541 158.584 73.7919 158.539C73.6466 158.44 59.6318 148.621 58.163 134.424V102.557C58.1518 102.456 58.1814 102.354 58.2452 102.275C58.3091 102.196 58.4019 102.145 58.5034 102.134C58.6048 102.122 58.7065 102.152 58.7862 102.216C58.8658 102.279 58.9168 102.372 58.928 102.473C58.928 102.603 62.2251 116.167 74.1591 120.63C74.2304 120.658 74.2918 120.706 74.3354 120.768C74.3791 120.831 74.4029 120.905 74.4039 120.981V158.226C74.4034 158.296 74.3838 158.364 74.3474 158.423C74.311 158.482 74.2591 158.53 74.1974 158.562C74.1393 158.595 74.0729 158.611 74.0061 158.608V158.608ZM58.905 105.029V134.386C60.1673 146.531 70.9308 155.434 73.6083 157.471V121.248C64.5966 117.746 60.435 109.217 58.905 105.029Z" fill="#231F20"/>
<path d="M223.74 132.471C222.301 132.753 159.984 161.461 159.984 161.461C159.984 161.461 135.596 152.589 135.03 152.871C134.464 153.153 196.46 127.382 196.46 127.382L223.74 132.471Z" fill="white"/>
<path d="M159.984 161.835C159.941 161.843 159.897 161.843 159.854 161.835C150.437 158.409 136.063 153.298 135.076 153.26V153.222C134.785 153.283 134.755 153.222 134.678 153.046C134.639 152.956 134.636 152.854 134.67 152.761C134.704 152.669 134.773 152.593 134.862 152.55H134.908C135.749 152.245 195.702 127.321 196.307 127.069C196.379 127.046 196.456 127.046 196.529 127.069L223.808 132.158C223.895 132.176 223.973 132.223 224.03 132.291C224.086 132.359 224.119 132.443 224.122 132.532C224.124 132.62 224.094 132.706 224.038 132.774C223.982 132.843 223.903 132.889 223.816 132.905C222.431 133.256 181.565 151.978 160.145 161.896C160.088 161.888 160.033 161.867 159.984 161.835V161.835ZM136.269 152.779C138.473 153.397 144.279 155.327 159.984 161.042C166.456 158.059 213.871 136.232 222.393 132.6L196.513 127.771L165.913 140.489L144.799 149.255L137.838 152.138L136.269 152.779Z" fill="#231F20"/>
<path d="M159.984 157.914H159.87L143.292 152.856C143.217 152.833 143.151 152.788 143.103 152.727C143.055 152.665 143.028 152.59 143.024 152.512C143.021 152.434 143.04 152.357 143.081 152.29C143.122 152.223 143.182 152.17 143.254 152.138L190.133 132.547C190.219 132.51 190.316 132.506 190.405 132.536C190.493 132.565 190.568 132.626 190.615 132.707L195.496 141.297C195.516 141.346 195.527 141.398 195.527 141.45C195.527 141.502 195.516 141.554 195.496 141.603C195.482 141.654 195.455 141.702 195.42 141.741C195.384 141.781 195.339 141.812 195.289 141.831L160.099 157.921C160.061 157.924 160.022 157.922 159.984 157.914V157.914ZM144.524 152.421L159.961 157.128L194.624 141.275L190.118 133.31L144.524 152.421Z" fill="#D1D3D4"/>
<path d="M133.584 33.8799C131.633 34.325 129.804 35.1952 128.229 36.4281C126.699 37.5266 125.169 39.2356 125.682 41.0055C125.888 41.6845 126.37 42.4627 125.942 43.0272C125.651 43.401 125.108 43.4316 124.641 43.5002C123.739 43.6343 122.891 44.0137 122.191 44.5969C121.49 45.1801 120.965 45.9444 120.671 46.806C120.378 47.6676 120.329 48.5932 120.528 49.481C120.728 50.3688 121.169 51.1846 121.803 51.8388C120.983 51.8849 120.181 52.0985 119.447 52.4662C118.712 52.8338 118.062 53.3479 117.535 53.9765C117.007 54.6051 116.615 55.3348 116.382 56.1206C116.15 56.9064 116.081 57.7314 116.181 58.5448C116.352 59.4047 116.643 60.2366 117.045 61.0166C117.68 62.3364 118.445 63.7173 118.223 65.1592C116.693 64.8464 115.27 66.4561 115.354 68.0125C115.456 68.7861 115.745 69.5234 116.197 70.1603C116.649 70.7972 117.25 71.3143 117.948 71.6668C116.418 71.9262 115.492 73.7038 115.744 75.2296C116.113 76.7546 117.07 78.0731 118.407 78.8992C119.952 79.9646 121.731 80.6447 123.595 80.8823C125.459 81.12 127.352 80.9082 129.117 80.2648C129.27 80.9816 129.606 81.6469 130.092 82.1962C130.579 82.7455 131.199 83.1603 131.894 83.4003C133.291 83.8575 134.763 84.0465 136.231 83.9573C138.97 83.9573 141.953 83.7131 143.981 81.8745C144.44 81.4625 144.853 80.7988 144.547 80.2648C144.172 79.6087 142.963 79.6011 142.894 78.8534C144.946 78.724 146.914 77.9972 148.555 76.763C149.152 76.37 149.66 75.8568 150.046 75.2563C150.432 74.6559 150.688 73.9815 150.797 73.2765C150.829 72.7092 150.717 72.1431 150.472 71.6299C150.228 71.1167 149.858 70.673 149.397 70.3393C150.537 69.3399 151.799 67.8904 151.195 66.5248C150.705 65.4109 149.175 64.648 149.496 63.5418C150.326 63.1887 151.055 62.6362 151.618 61.9336C152.182 61.2311 152.562 60.4003 152.725 59.5155C152.887 58.6307 152.828 57.7195 152.552 56.8632C152.275 56.0069 151.791 55.2321 151.141 54.6082C152.201 54.2193 153.114 53.512 153.753 52.5838C154.393 51.6557 154.728 50.5524 154.712 49.4263C154.696 48.3002 154.33 47.2068 153.664 46.297C152.999 45.3872 152.066 44.7059 150.996 44.347C151.365 43.7433 151.566 43.052 151.578 42.3447C151.59 41.6374 151.412 40.9399 151.062 40.3244C150.713 39.7088 150.204 39.1977 149.59 38.844C148.976 38.4902 148.278 38.3067 147.568 38.3124C147.864 37.8175 147.957 37.2277 147.827 36.6663C147.698 36.1048 147.355 35.615 146.872 35.299C145.867 34.7104 144.677 34.5198 143.537 34.7649C141.64 35.0396 140.355 35.5736 138.641 34.7649C136.927 33.9562 135.497 33.5214 133.584 33.8799Z" fill="white"/>
<path d="M135.864 84.3387C134.467 84.4037 133.071 84.2044 131.748 83.7513C131.066 83.5078 130.449 83.1127 129.942 82.5959C129.436 82.0791 129.054 81.4541 128.826 80.7683C127.055 81.3511 125.172 81.5167 123.326 81.2519C121.479 80.9872 119.72 80.2994 118.185 79.2425C116.77 78.3544 115.76 76.9498 115.37 75.3288C115.249 74.6044 115.348 73.8604 115.655 73.1928C115.962 72.5252 116.462 71.9645 117.091 71.5829C116.5 71.1878 116.004 70.6678 115.638 70.06C115.272 69.4521 115.044 68.7713 114.972 68.0659C114.952 67.5637 115.046 67.0635 115.249 66.6035C115.452 66.1434 115.758 65.7355 116.142 65.4109C116.373 65.1904 116.645 65.0176 116.943 64.9024C117.241 64.7872 117.559 64.7318 117.879 64.7396C117.8 63.6129 117.457 62.5206 116.877 61.5506L116.701 61.1844C116.284 60.3731 115.983 59.5078 115.806 58.6134C115.679 57.7461 115.743 56.8618 115.993 56.0214C116.242 55.1811 116.672 54.4048 117.252 53.7461C118.213 52.5696 119.574 51.7853 121.077 51.5413C120.543 50.7985 120.209 49.9316 120.107 49.0233C120.005 48.115 120.138 47.1959 120.494 46.3538C120.851 45.5117 121.418 44.7749 122.141 44.2138C122.864 43.6527 123.72 43.2862 124.626 43.1493H124.779C125.154 43.0959 125.544 43.0501 125.674 42.8365C125.804 42.6229 125.743 42.2109 125.529 41.654C125.468 41.4861 125.406 41.3259 125.353 41.1581C124.695 38.9609 126.753 37.0689 128.046 36.1382C129.659 34.8672 131.539 33.9754 133.546 33.529V33.529C135.482 33.1704 136.95 33.5977 138.832 34.4674C140.079 35.0319 141.089 34.8488 142.382 34.6047C142.741 34.536 143.109 34.4674 143.506 34.4063C144.743 34.1372 146.036 34.3531 147.117 35.009C147.429 35.2308 147.694 35.5122 147.897 35.8371C148.099 36.1619 148.234 36.5236 148.295 36.9011C148.339 37.2536 148.3 37.6115 148.18 37.9462C148.86 38.0376 149.509 38.2876 150.074 38.6761C150.639 39.0646 151.104 39.5805 151.431 40.1819C151.758 40.7833 151.939 41.4532 151.957 42.1371C151.976 42.8211 151.833 43.4999 151.539 44.1182C152.577 44.5517 153.467 45.2757 154.102 46.2028C154.737 47.1299 155.088 48.2204 155.115 49.3426C155.142 50.4648 154.842 51.5707 154.252 52.5267C153.663 53.4828 152.808 54.2481 151.791 54.7302C152.376 55.4124 152.795 56.2199 153.016 57.09C153.237 57.9601 153.254 58.8693 153.065 59.7468C152.877 60.6244 152.488 61.4468 151.928 62.15C151.369 62.8532 150.655 63.4182 149.841 63.8012C149.841 64.1979 150.131 64.5641 150.606 65.1058C150.975 65.4648 151.283 65.8824 151.516 66.3417C152.036 67.5242 151.516 68.8593 149.986 70.3164C150.393 70.6938 150.712 71.156 150.92 71.6703C151.127 72.1846 151.219 72.7383 151.187 73.2918C151.074 74.0521 150.803 74.7803 150.391 75.4295C149.978 76.0787 149.434 76.6344 148.793 77.0606C147.282 78.1939 145.503 78.9191 143.629 79.1662L143.897 79.2959C144.298 79.4442 144.644 79.7102 144.891 80.0588C145.035 80.4274 145.05 80.8336 144.933 81.2117C144.817 81.5898 144.575 81.9174 144.248 82.1415C142.168 84.0259 139.169 84.3006 136.239 84.3235L135.864 84.3387ZM129.109 79.9062C129.202 79.9053 129.292 79.9381 129.362 79.9984C129.433 80.0588 129.479 80.1426 129.492 80.2343C129.629 80.8853 129.936 81.4891 130.38 81.9856C130.824 82.4821 131.391 82.8541 132.024 83.0647C133.375 83.5042 134.797 83.6854 136.216 83.5987C138.993 83.5987 141.823 83.324 143.721 81.6151C144.08 81.2871 144.394 80.7912 144.21 80.4708C144.032 80.2636 143.802 80.1059 143.545 80.013C143.109 79.807 142.565 79.54 142.504 78.9144C142.498 78.8121 142.531 78.7112 142.596 78.6322C142.629 78.5924 142.67 78.5597 142.716 78.5361C142.762 78.5125 142.812 78.4985 142.864 78.4948C144.841 78.371 146.737 77.6707 148.318 76.4808C149.083 75.9238 150.3 74.7718 150.407 73.2689C150.435 72.7676 150.336 72.2671 150.12 71.8138C149.903 71.3605 149.576 70.9688 149.167 70.675C149.12 70.6423 149.081 70.5991 149.053 70.5488C149.025 70.4985 149.009 70.4425 149.007 70.3851C149.003 70.3276 149.013 70.27 149.035 70.217C149.058 70.164 149.093 70.117 149.137 70.0799C150.667 68.7449 151.24 67.6005 150.835 66.6774C150.633 66.298 150.375 65.9508 150.07 65.6474C149.519 65.0524 148.892 64.3734 149.137 63.4655C149.152 63.4095 149.18 63.3577 149.218 63.314C149.257 63.2704 149.305 63.2361 149.359 63.2138C150.13 62.8854 150.808 62.3717 151.332 61.7183C151.856 61.0649 152.21 60.2924 152.361 59.4695C152.513 58.6467 152.457 57.7993 152.2 57.0029C151.944 56.2065 151.493 55.486 150.889 54.9057C150.841 54.8601 150.806 54.8034 150.786 54.7409C150.766 54.6783 150.762 54.6117 150.774 54.5471C150.789 54.4851 150.82 54.4277 150.862 54.3798C150.905 54.332 150.959 54.2952 151.019 54.2725C152.005 53.9119 152.855 53.2547 153.451 52.3917C154.047 51.5286 154.359 50.5023 154.345 49.4545C154.331 48.4068 153.99 47.3893 153.371 46.5427C152.752 45.6961 151.885 45.0622 150.889 44.7285C150.834 44.7109 150.785 44.6812 150.743 44.6415C150.702 44.6018 150.671 44.5533 150.651 44.4996C150.625 44.4489 150.612 44.3927 150.612 44.3356C150.612 44.2785 150.625 44.2223 150.651 44.1716C150.981 43.6282 151.161 43.0072 151.172 42.372C151.183 41.7368 151.025 41.1101 150.714 40.5557C150.403 40.0012 149.95 39.5389 149.402 39.2159C148.853 38.8929 148.228 38.7206 147.591 38.7168V38.7168C147.52 38.7161 147.45 38.6957 147.389 38.6581C147.329 38.6204 147.279 38.5668 147.247 38.5032C147.217 38.4384 147.205 38.3669 147.212 38.2959C147.218 38.2248 147.244 38.1569 147.285 38.0988C147.398 37.9446 147.478 37.7688 147.521 37.5825C147.563 37.3961 147.566 37.2032 147.53 37.0155C147.437 36.461 147.13 35.9651 146.673 35.6346C145.751 35.0952 144.656 34.9286 143.613 35.1693C143.223 35.2227 142.848 35.2913 142.52 35.3524C141.15 35.6117 139.972 35.833 138.503 35.154C136.767 34.3529 135.443 33.9562 133.676 34.2767C131.782 34.7095 130.008 35.5564 128.482 36.7561C127.579 37.4122 125.536 39.1288 126.08 40.9445C126.126 41.0894 126.179 41.2344 126.24 41.387C126.404 41.6773 126.489 42.0055 126.487 42.3388C126.484 42.6721 126.394 42.9989 126.225 43.2866C126.045 43.4751 125.829 43.6256 125.59 43.7291C125.351 43.8327 125.093 43.8871 124.833 43.8893H124.68C123.848 44.0158 123.068 44.3677 122.423 44.9066C121.779 45.4455 121.295 46.1506 121.025 46.945C120.755 47.7393 120.709 48.5924 120.892 49.4111C121.075 50.2297 121.48 50.9824 122.063 51.587C122.116 51.6402 122.151 51.7079 122.165 51.7813C122.179 51.8548 122.17 51.9306 122.14 51.999C122.109 52.0667 122.06 52.1242 121.997 52.1647C121.935 52.2053 121.862 52.2272 121.788 52.2279C121.025 52.2738 120.279 52.4742 119.596 52.8169C118.913 53.1597 118.307 53.6376 117.815 54.2216C117.323 54.8055 116.956 55.4832 116.735 56.2134C116.515 56.9435 116.446 57.7108 116.532 58.4685C116.708 59.2924 116.996 60.0882 117.389 60.8335L117.565 61.1921C118.185 62.4585 118.827 63.7707 118.606 65.1973C118.599 65.2483 118.581 65.2972 118.553 65.3407C118.525 65.3841 118.488 65.4211 118.445 65.4491C118.402 65.4795 118.354 65.5007 118.302 65.5112C118.251 65.5217 118.198 65.5213 118.147 65.5101C117.874 65.4627 117.594 65.4786 117.329 65.5567C117.063 65.6348 116.82 65.7729 116.617 65.9602C116.327 66.2073 116.095 66.5154 115.939 66.8624C115.783 67.2093 115.706 67.5865 115.714 67.9667C115.808 68.6776 116.077 69.3544 116.496 69.9373C116.915 70.5201 117.471 70.991 118.116 71.3082C118.185 71.3472 118.241 71.4067 118.275 71.4786C118.308 71.5505 118.319 71.6311 118.305 71.7092C118.29 71.7873 118.252 71.859 118.195 71.9143C118.138 71.9696 118.065 72.0058 117.986 72.0177C116.647 72.2466 115.89 73.8563 116.104 75.1457C116.459 76.5667 117.357 77.7931 118.606 78.5635C120.096 79.605 121.818 80.2712 123.623 80.505C125.428 80.7388 127.263 80.5334 128.971 79.9062C129.017 79.8989 129.063 79.8989 129.109 79.9062Z" fill="#231F20"/>
<path d="M154.377 81.8364C154.377 81.8364 176.386 110.064 177.694 110.224C177.694 110.224 200.927 106.967 202.373 104.685C203.819 102.404 205.433 103.038 205.433 103.038C205.433 103.038 206.856 100.291 208.646 99.986C210.436 99.6808 216.036 103.038 212.777 105.212C209.518 107.386 180.601 125.551 176.677 125.963C164.246 127.245 152.35 97.5141 153.727 93.5699L154.377 81.8364Z" fill="white"/>
<path d="M175.95 126.352C172.247 126.352 168.254 123.773 164.337 118.837C157.559 110.3 152.457 96.4918 153.39 93.4707L154.01 81.8135C154.013 81.7356 154.04 81.6606 154.088 81.599C154.136 81.5374 154.203 81.4924 154.278 81.4702C154.351 81.4476 154.431 81.448 154.504 81.4711C154.578 81.4943 154.643 81.5392 154.691 81.5999C163.19 92.5018 176.233 108.859 177.763 109.827C186.683 108.576 201.08 106.013 202.067 104.487C203.283 102.565 204.66 102.504 205.28 102.61C205.708 101.847 207.001 99.8944 208.623 99.5587C210.092 99.2765 213.305 101.008 214.039 102.816C214.245 103.303 214.256 103.849 214.07 104.343C213.883 104.837 213.514 105.241 213.037 105.471C210.543 107.112 180.907 125.856 176.761 126.283C176.492 126.322 176.221 126.344 175.95 126.352V126.352ZM154.721 82.8663L154.155 93.547C154.162 93.5797 154.162 93.6135 154.155 93.6462C153.314 96.057 157.98 109.576 164.957 118.349C167.772 121.889 172.094 125.978 176.7 125.536C180.441 125.147 208.447 107.607 212.655 104.846C213.42 104.35 213.642 103.778 213.366 103.106C212.746 101.58 209.878 100.123 208.776 100.314C207.453 100.566 206.198 102.481 205.823 103.198C205.78 103.283 205.707 103.348 205.617 103.381C205.528 103.413 205.429 103.411 205.341 103.373C205.295 103.373 203.972 102.9 202.725 104.899C201.195 107.264 180.165 110.239 177.771 110.606C177.738 110.613 177.704 110.613 177.671 110.606C176.371 110.423 161.66 91.7847 154.706 82.8739L154.721 82.8663Z" fill="#231F20"/>
<path d="M138.067 74.2225C138.067 74.2225 128.122 70.2096 115.974 80.6081C110.504 85.2466 109.395 90.3199 107.1 95.5229C108.944 112.917 115.324 143.006 115.324 143.006H156.94C156.94 143.006 160.298 117.777 161.53 102.572C162.295 93.1122 157.957 86.0324 155.708 82.2789C151.853 75.7712 138.067 74.2225 138.067 74.2225Z" fill="#F6CA1C"/>
<path d="M131.58 76.4655C132.345 77.9226 145.021 111.048 145.021 111.048V80.0664L131.58 76.4655Z" fill="#231F20"/>
<path d="M145.029 111.43C144.951 111.43 144.875 111.407 144.811 111.363C144.747 111.32 144.697 111.258 144.669 111.185C144.547 110.857 131.985 78.06 131.243 76.641C131.209 76.5749 131.195 76.5004 131.203 76.4265C131.211 76.3527 131.24 76.2827 131.287 76.2252C131.334 76.1677 131.397 76.1251 131.468 76.1028C131.539 76.0804 131.615 76.0792 131.687 76.0993L145.128 79.6926C145.21 79.7147 145.283 79.7634 145.334 79.8311C145.385 79.8988 145.412 79.9816 145.411 80.0664V111.048C145.412 111.138 145.381 111.224 145.324 111.293C145.266 111.362 145.186 111.407 145.098 111.422L145.029 111.43ZM132.253 77.0453C134.059 81.4091 142.122 102.404 144.646 108.981V80.3563L132.253 77.0453Z" fill="#231F20"/>
<path d="M150.009 48.894L150.636 50.9996C150.912 51.938 151.722 52.266 152.067 53.0442C152.411 53.8224 152.289 55.5084 152.334 56.462C152.513 58.78 152.348 61.1116 151.845 63.3816C151.497 64.8579 150.725 66.2009 149.623 67.2457C148.521 68.2906 147.137 68.9919 145.641 69.2636L145.35 78.6703C145.35 78.6703 145.243 83.4843 139.352 82.5535C137.645 82.2793 136.037 81.5747 134.679 80.5066C133.321 79.4384 132.26 78.0422 131.595 76.4502L131.511 64.2437C131.511 62.9391 130.991 60.4902 131.511 59.2543C132.031 58.0184 134.288 57.2555 135.283 56.0882C136.61 54.5481 137.38 52.6085 137.471 50.58C138.539 50.6278 139.599 50.3758 140.531 49.8525C141.463 49.3292 142.229 48.5557 142.741 47.6199C143.595 48.6572 144.82 49.3218 146.157 49.4728C147.494 49.6238 148.837 49.2492 149.902 48.4286L150.009 48.894Z" fill="white"/>
<path d="M140.76 83.057C140.247 83.0549 139.736 83.0116 139.23 82.9273C137.455 82.6537 135.781 81.9277 134.37 80.8197C132.958 79.7117 131.858 78.2593 131.175 76.6028C131.167 76.5599 131.167 76.516 131.175 76.4731L131.09 64.2208C131.09 63.8394 131.037 63.3358 130.991 62.8018C130.861 61.5049 130.716 60.0324 131.083 59.0941C131.412 58.2778 132.345 57.6751 133.248 57.1029C133.864 56.7537 134.428 56.3196 134.923 55.8136C136.198 54.3427 136.937 52.4847 137.019 50.5419C137.021 50.4915 137.033 50.442 137.054 50.3961C137.075 50.3503 137.104 50.3091 137.142 50.2748C137.177 50.2371 137.222 50.2084 137.271 50.1912C137.32 50.174 137.373 50.1686 137.425 50.1757C138.419 50.2203 139.407 49.985 140.274 49.4966C141.141 49.0083 141.853 48.2866 142.328 47.4139C142.359 47.3566 142.404 47.3081 142.459 47.2733C142.514 47.2385 142.577 47.2186 142.642 47.2156C142.706 47.2113 142.771 47.223 142.829 47.2496C142.888 47.2762 142.939 47.317 142.978 47.3682C143.767 48.3231 144.897 48.9361 146.129 49.0784C147.362 49.2206 148.601 48.8811 149.588 48.1311C149.637 48.0893 149.695 48.0604 149.758 48.047C149.821 48.0337 149.886 48.0364 149.948 48.0548C150.008 48.0744 150.062 48.1083 150.106 48.1535C150.15 48.1986 150.182 48.2538 150.2 48.3142L150.345 48.7948L150.973 50.9004C151.116 51.2917 151.352 51.6424 151.661 51.9227C151.974 52.1993 152.233 52.5302 152.426 52.8993C152.7 53.7717 152.799 54.6894 152.717 55.5999C152.717 55.9127 152.717 56.2026 152.717 56.4544C152.903 58.8107 152.735 61.1814 152.22 63.4884C151.857 64.9791 151.085 66.3396 149.99 67.4176C148.896 68.4955 147.522 69.2483 146.023 69.5917L145.733 78.6932C145.698 79.3225 145.538 79.9387 145.262 80.5058C144.986 81.0729 144.6 81.5797 144.126 81.9966C143.168 82.7424 141.973 83.1189 140.76 83.057V83.057ZM131.97 76.3968C132.626 77.9032 133.65 79.2212 134.949 80.2302C136.249 81.2393 137.781 81.9069 139.406 82.172C141.234 82.4696 142.657 82.172 143.621 81.4091C144.409 80.7024 144.889 79.7171 144.96 78.6627L145.258 69.2255C145.262 69.134 145.298 69.0468 145.36 68.9787C145.421 68.9105 145.504 68.8657 145.595 68.8517C147.012 68.5976 148.323 67.9356 149.367 66.9474C150.411 65.9591 151.142 64.6878 151.47 63.2901C151.968 61.0554 152.127 58.7591 151.944 56.4773C151.944 56.2179 151.944 55.9127 151.944 55.5847C152.016 54.7844 151.94 53.9779 151.722 53.2044C151.573 52.9196 151.376 52.6618 151.141 52.4415C150.745 52.0777 150.445 51.6216 150.269 51.114L149.649 49.0389C148.581 49.6979 147.323 49.9808 146.075 49.8425C144.827 49.7042 143.661 49.1527 142.764 48.276C142.205 49.0779 141.462 49.7354 140.598 50.1944C139.733 50.6534 138.771 50.9006 137.792 50.9157C137.607 52.8918 136.805 54.7601 135.497 56.256C134.974 56.8504 134.365 57.3646 133.691 57.7819C132.926 58.293 132.062 58.8194 131.825 59.4145C131.599 60.5181 131.583 61.6543 131.779 62.7637C131.832 63.313 131.886 63.8394 131.886 64.2895L131.97 76.3968Z" fill="#231F20"/>
<path d="M134.778 59.3916C134.778 59.3916 132.07 52.7696 128.658 56.7825C125.246 60.7954 129.889 65.4644 132.812 65.1745" fill="white"/>
<path d="M132.536 65.5635C130.784 65.5635 128.711 64.1598 127.694 62.2296C127.187 61.3323 126.979 60.2974 127.1 59.2745C127.221 58.2515 127.664 57.2934 128.367 56.5383C129.293 55.455 130.272 55.0125 131.282 55.1422C133.577 55.5084 135.068 59.0941 135.107 59.2466C135.132 59.2936 135.147 59.3453 135.15 59.3983C135.154 59.4514 135.147 59.5046 135.129 59.5547C135.111 59.6047 135.082 59.6504 135.045 59.6889C135.009 59.7273 134.964 59.7577 134.915 59.778C134.865 59.7983 134.812 59.8081 134.759 59.8068C134.706 59.8054 134.653 59.793 134.605 59.7703C134.557 59.7475 134.514 59.715 134.479 59.6747C134.444 59.6345 134.418 59.5874 134.403 59.5366C134.403 59.5366 133.011 56.195 131.136 55.8975C130.41 55.783 129.667 56.1645 128.925 57.0342C128.326 57.6761 127.947 58.4918 127.844 59.3629C127.741 60.234 127.919 61.1152 128.352 61.8787C129.277 63.6334 131.243 64.9303 132.75 64.793C132.852 64.7829 132.953 64.8134 133.032 64.8777C133.111 64.9421 133.161 65.0351 133.171 65.1363C133.181 65.2375 133.151 65.3385 133.086 65.4172C133.022 65.4959 132.928 65.5458 132.827 65.5559C132.73 65.565 132.633 65.5675 132.536 65.5635Z" fill="#231F20"/>
<path d="M147.109 63.5266C146.434 63.5116 145.763 63.4116 145.113 63.229C145.011 63.1997 144.926 63.1314 144.875 63.0391C144.824 62.9468 144.812 62.8381 144.841 62.737C144.871 62.6358 144.939 62.5504 145.032 62.4996C145.124 62.4488 145.233 62.4368 145.335 62.4661C145.84 62.6187 147.316 62.9315 148.073 62.5653C148.249 62.1838 147.071 59.9027 145.518 57.7208C145.461 57.6374 145.439 57.5349 145.456 57.4353C145.473 57.3356 145.528 57.2465 145.61 57.1868C145.651 57.1575 145.698 57.1367 145.747 57.1254C145.796 57.1142 145.847 57.1128 145.897 57.1213C145.947 57.1298 145.994 57.1481 146.037 57.175C146.08 57.202 146.117 57.2371 146.146 57.2783C146.842 58.2701 149.106 61.5811 148.792 62.7713C148.766 62.8734 148.718 62.9689 148.652 63.0516C148.586 63.1344 148.504 63.2026 148.41 63.2519C148.002 63.4374 147.558 63.5312 147.109 63.5266Z" fill="#231F20"/>
<path d="M144.769 66.3798C144.218 66.3806 143.67 66.3088 143.139 66.1662C141.537 65.7101 140.15 64.6982 139.23 63.3129C139.21 63.2664 139.199 63.2164 139.199 63.1657C139.199 63.1151 139.208 63.0649 139.227 63.018C139.247 62.9711 139.275 62.9286 139.311 62.8928C139.347 62.8569 139.39 62.8286 139.437 62.8094C139.53 62.7735 139.634 62.7748 139.727 62.8132C139.819 62.8515 139.893 62.9239 139.934 63.0154C140.79 64.219 142.044 65.0833 143.476 65.4567C145.319 65.9145 147.247 65.3881 149.198 63.9309C149.279 63.8764 149.377 63.8546 149.473 63.87C149.569 63.8853 149.656 63.9366 149.715 64.0135C149.775 64.0903 149.803 64.1869 149.793 64.2836C149.784 64.3802 149.738 64.4696 149.665 64.5336C148.284 65.6759 146.561 66.3257 144.769 66.3798V66.3798Z" fill="#231F20"/>
<path d="M145.641 69.2636C145.641 69.2636 140.584 69.7366 137.715 68.9051C137.715 68.9051 140.638 76.4197 145.427 76.5342L145.641 69.2636Z" fill="#231F20"/>
<path d="M145.427 76.9156C140.439 76.7935 137.486 69.3628 137.363 69.0424C137.337 68.9771 137.331 68.9056 137.344 68.8366C137.358 68.7676 137.391 68.704 137.44 68.6533C137.489 68.601 137.551 68.5628 137.619 68.5426C137.688 68.5225 137.761 68.5212 137.83 68.5389C140.592 69.3399 145.564 68.8898 145.618 68.8822C145.671 68.8783 145.725 68.8858 145.775 68.9042C145.825 68.9227 145.87 68.9516 145.908 68.989C145.951 69.0241 145.984 69.0687 146.005 69.1191C146.026 69.1696 146.035 69.2243 146.031 69.2789L145.817 76.5418C145.816 76.5919 145.805 76.6413 145.785 76.6872C145.764 76.7331 145.735 76.7746 145.699 76.8093C145.663 76.844 145.62 76.8713 145.573 76.8895C145.527 76.9078 145.477 76.9166 145.427 76.9156V76.9156ZM138.373 69.4544C139.192 71.2091 141.617 75.7331 145.059 76.1222L145.251 69.6756C142.957 69.8769 140.648 69.8026 138.373 69.4544V69.4544Z" fill="#231F20"/>
<path d="M142.495 58.1038C142.905 58.0956 143.226 57.5084 143.211 56.7923C143.197 56.0761 142.853 55.5022 142.443 55.5104C142.034 55.5186 141.713 56.1057 141.727 56.8219C141.742 57.538 142.086 58.1119 142.495 58.1038Z" fill="#231F20"/>
<path d="M149.316 57.9677C149.726 57.9595 150.046 57.3723 150.032 56.6562C150.018 55.94 149.674 55.3661 149.264 55.3743C148.854 55.3825 148.534 55.9696 148.548 56.6858C148.563 57.4019 148.906 57.9758 149.316 57.9677Z" fill="#231F20"/>
<path d="M140.76 59.3687C138.534 59.3687 138.419 59.2161 138.32 59.0941C138.22 58.972 138.029 58.7126 137.96 54.6311C137.96 54.5325 137.998 54.4377 138.067 54.3666C138.135 54.2955 138.229 54.2535 138.327 54.2496C145.794 53.8834 146.023 53.9521 146.1 53.975C146.181 54.0016 146.251 54.0541 146.299 54.1244C146.348 54.1947 146.372 54.2789 146.367 54.364L146.061 58.8881C146.054 58.9813 146.013 59.0685 145.945 59.1332C145.877 59.1979 145.788 59.2356 145.694 59.239C143.361 59.3077 141.793 59.3687 140.76 59.3687ZM138.893 58.5448C139.612 58.6363 142.535 58.5906 145.281 58.4837L145.541 54.6692C144.432 54.6692 141.066 54.8294 138.695 54.9438C138.698 56.1468 138.765 57.3487 138.893 58.5448Z" fill="#231F20"/>
<path d="M154.79 59.239H147.737C147.687 59.24 147.637 59.2311 147.591 59.2128C147.545 59.1945 147.502 59.1671 147.467 59.1323C147.431 59.0975 147.403 59.0559 147.384 59.01C147.364 58.9642 147.354 58.9149 147.354 58.8652L147.316 54.3335C147.316 54.2337 147.355 54.1378 147.425 54.0665C147.495 53.9951 147.591 53.9541 147.691 53.9521C154.92 53.8834 155.134 53.9521 155.211 53.9521C155.292 53.9787 155.362 54.0312 155.411 54.1015C155.459 54.1718 155.483 54.256 155.479 54.3411L155.173 58.8652C155.173 58.9149 155.163 58.9642 155.143 59.01C155.124 59.0559 155.096 59.0975 155.06 59.1323C155.025 59.1671 154.982 59.1945 154.936 59.2128C154.89 59.2311 154.84 59.24 154.79 59.239V59.239ZM148.119 58.4761H154.438L154.691 54.6616C153.62 54.6616 150.376 54.6616 148.081 54.6616L148.119 58.4761Z" fill="#231F20"/>
<path d="M147.699 56.6604H145.947C145.845 56.6604 145.748 56.6202 145.676 56.5487C145.605 56.4771 145.564 56.3801 145.564 56.2789C145.564 56.1778 145.605 56.0807 145.676 56.0092C145.748 55.9377 145.845 55.8975 145.947 55.8975H147.699C147.8 55.8975 147.897 55.9377 147.969 56.0092C148.041 56.0807 148.081 56.1778 148.081 56.2789C148.081 56.3801 148.041 56.4771 147.969 56.5487C147.897 56.6202 147.8 56.6604 147.699 56.6604Z" fill="#231F20"/>
<path d="M124.733 102.557C124.733 102.557 122.63 123.293 123.655 128.275L158.546 133.172C158.546 133.172 167.489 132.822 171.796 134.355C174.435 135.293 179.224 139.405 178.36 140.695C177.495 141.984 175.131 143.594 173.005 142.983C170.878 142.373 164.896 140.474 164.896 140.474C164.896 140.474 169.555 144.677 166.755 144.395C163.955 144.113 160.857 142.152 160.857 142.152C160.857 142.152 141.471 145.822 129.063 145.204C113.763 144.441 107.253 140.824 105.524 131.799C103.795 122.774 105.624 99.2231 107.138 95.5229" fill="white"/>
<path d="M132.1 145.661C131.037 145.661 130.004 145.661 129.04 145.585C113.381 144.776 106.909 141.061 105.149 131.853C103.39 122.644 105.295 99.0018 106.786 95.3551C106.805 95.3085 106.832 95.2661 106.868 95.2304C106.903 95.1946 106.945 95.1663 106.991 95.1471C107.038 95.1279 107.087 95.1182 107.138 95.1185C107.188 95.1189 107.238 95.1293 107.284 95.1491C107.33 95.1675 107.373 95.1951 107.409 95.2302C107.445 95.2653 107.473 95.3072 107.492 95.3534C107.511 95.3997 107.521 95.4493 107.521 95.4994C107.521 95.5495 107.51 95.599 107.49 95.645C106.029 99.2383 104.185 122.721 105.899 131.708C107.574 140.466 113.855 144.013 129.078 144.799C141.318 145.425 160.596 141.816 160.788 141.748C160.883 141.731 160.981 141.75 161.063 141.801C161.063 141.801 164.123 143.708 166.793 143.983C166.953 144.029 167.123 144.029 167.283 143.983C167.367 143.64 166.12 142.091 164.643 140.763C164.576 140.705 164.532 140.625 164.518 140.537C164.504 140.449 164.521 140.359 164.567 140.283C164.611 140.207 164.68 140.15 164.763 140.119C164.845 140.089 164.935 140.087 165.018 140.115C165.072 140.115 170.985 142.03 173.104 142.61C175.024 143.136 177.258 141.671 178.069 140.458C178.097 140.391 178.112 140.318 178.112 140.245C178.112 140.171 178.097 140.099 178.069 140.031C177.572 138.505 173.946 135.454 171.704 134.691C167.512 133.165 158.699 133.531 158.6 133.531L123.639 128.633C123.561 128.622 123.487 128.586 123.43 128.532C123.372 128.477 123.333 128.406 123.318 128.328C122.293 123.346 124.305 103.343 124.389 102.496C124.394 102.446 124.409 102.397 124.433 102.353C124.457 102.308 124.489 102.269 124.528 102.237C124.567 102.205 124.612 102.182 124.66 102.167C124.709 102.153 124.76 102.148 124.81 102.153C124.86 102.158 124.909 102.172 124.953 102.196C124.998 102.22 125.037 102.252 125.069 102.291C125.101 102.33 125.125 102.375 125.14 102.423C125.154 102.472 125.159 102.522 125.154 102.572C125.154 102.771 123.142 122.614 124.022 127.916L158.646 132.776C158.944 132.776 167.642 132.432 171.972 133.974C174.267 134.79 178.184 137.941 178.803 139.795C178.877 139.968 178.909 140.157 178.895 140.345C178.882 140.534 178.824 140.716 178.727 140.878C177.763 142.32 175.216 143.983 172.921 143.35C171.475 142.945 168.277 141.946 166.357 141.336C167.321 142.35 168.3 143.624 167.986 144.311C167.818 144.685 167.397 144.837 166.739 144.769C164.637 144.426 162.623 143.674 160.811 142.556C159.12 142.884 143.705 145.661 132.1 145.661Z" fill="#231F20"/>
<path d="M124.733 102.938H124.695C124.595 102.92 124.507 102.863 124.448 102.781C124.39 102.698 124.366 102.596 124.381 102.496L127.112 87.3598C127.131 87.2587 127.188 87.1689 127.273 87.1102C127.358 87.0516 127.462 87.0288 127.564 87.047C127.665 87.0652 127.755 87.1229 127.814 87.2073C127.873 87.2917 127.896 87.396 127.877 87.4971L125.154 102.633C125.134 102.727 125.08 102.81 125.002 102.866C124.924 102.922 124.829 102.948 124.733 102.938V102.938Z" fill="#231F20"/>
<path d="M180.158 156.762V101.779C180.158 101.779 227.771 99.9554 247.477 80.2953V137.124C247.477 137.124 227.771 153.145 180.158 156.762Z" fill="#F6CA1C"/>
<path d="M180.157 157.143C180.062 157.142 179.97 157.107 179.897 157.044C179.859 157.007 179.829 156.964 179.808 156.915C179.787 156.867 179.776 156.814 179.775 156.762V101.779C179.775 101.68 179.813 101.585 179.882 101.514C179.95 101.443 180.043 101.401 180.142 101.397C180.616 101.397 227.832 99.3527 247.187 80.0359C247.242 79.9841 247.311 79.9487 247.385 79.9339C247.459 79.9191 247.537 79.9253 247.608 79.952C247.679 79.9811 247.739 80.0309 247.782 80.0948C247.824 80.1588 247.846 80.2339 247.845 80.3105V137.124C247.846 137.182 247.833 137.239 247.808 137.29C247.782 137.342 247.745 137.387 247.699 137.422C247.508 137.582 227.373 153.565 180.188 157.174L180.157 157.143ZM180.54 102.137V156.35C225.139 152.856 245.221 138.322 247.095 136.911V81.2184C228.069 99.2536 184.977 101.916 180.54 102.137V102.137Z" fill="#231F20"/>
<path d="M81.6944 177.116V139.413C81.6944 139.413 102.847 153.351 134.479 150.246V187.034C134.479 187.034 113.763 193.282 81.6944 177.116Z" fill="white"/>
<path d="M123.448 188.552C114.176 188.552 99.5954 186.568 81.5184 177.459C81.4565 177.425 81.4048 177.376 81.3685 177.316C81.3322 177.255 81.3127 177.186 81.3119 177.116V139.413C81.3125 139.345 81.3312 139.278 81.3661 139.219C81.401 139.16 81.4509 139.111 81.5108 139.077C81.5695 139.042 81.637 139.023 81.7058 139.023C81.7747 139.023 81.8421 139.042 81.9009 139.077C82.1151 139.215 103.321 152.909 134.433 149.85C134.486 149.845 134.538 149.85 134.588 149.866C134.638 149.882 134.684 149.907 134.724 149.941C134.762 149.978 134.793 150.022 134.814 150.07C134.835 150.119 134.846 150.171 134.847 150.223V187.011C134.847 187.092 134.821 187.172 134.773 187.238C134.725 187.304 134.657 187.353 134.579 187.377C134.487 187.408 130.509 188.552 123.448 188.552ZM82.0769 176.887C111.552 191.672 131.549 187.362 134.097 186.721V150.643C105.838 153.29 85.7336 142.251 82.0769 140.077V176.887Z" fill="#231F20"/>
<path d="M191.25 146.623C191.154 146.623 191.061 146.587 190.99 146.523C190.952 146.487 190.921 146.443 190.9 146.395C190.879 146.346 190.868 146.294 190.867 146.241V107.073C190.867 106.978 190.902 106.887 190.966 106.816C191.029 106.746 191.117 106.701 191.212 106.692C193.667 106.455 203.161 105.319 203.261 105.311C203.314 105.305 203.368 105.31 203.419 105.326C203.471 105.342 203.518 105.368 203.559 105.403C203.6 105.437 203.633 105.481 203.655 105.529C203.678 105.578 203.689 105.631 203.689 105.685V144.105C203.689 144.18 203.666 144.254 203.624 144.316C203.581 144.379 203.522 144.427 203.452 144.456C199.917 145.982 191.625 146.6 191.273 146.623H191.25ZM191.632 107.417V145.829C193.331 145.684 199.833 145.066 202.924 143.853V106.12C201.096 106.333 194.134 107.157 191.61 107.417H191.632Z" fill="#231F20"/>
<path d="M210.75 142.617C210.66 142.617 210.573 142.585 210.505 142.526C210.463 142.489 210.43 142.445 210.406 142.395C210.382 142.345 210.369 142.291 210.367 142.236V111.834C210.368 111.744 210.401 111.657 210.459 111.588C210.518 111.52 210.599 111.475 210.689 111.46C214.783 110.725 218.794 109.582 222.661 108.05C222.716 108.02 222.778 108.004 222.841 108.004C222.904 108.004 222.965 108.02 223.02 108.05C223.072 108.086 223.115 108.134 223.144 108.189C223.174 108.245 223.189 108.307 223.189 108.37V138.124C223.188 138.193 223.169 138.261 223.132 138.32C223.096 138.379 223.044 138.428 222.982 138.459C219.145 140.418 215.046 141.818 210.811 142.617H210.75ZM211.132 112.154V141.778C215.053 140.988 218.85 139.679 222.424 137.887V108.973C218.769 110.38 214.992 111.445 211.14 112.154H211.132Z" fill="#231F20"/>
<path d="M229.699 135.789C229.614 135.791 229.53 135.764 229.462 135.713C229.416 135.676 229.379 135.63 229.354 135.577C229.329 135.524 229.316 135.466 229.316 135.408V113.817C229.317 113.733 229.346 113.651 229.399 113.585C229.452 113.519 229.525 113.472 229.607 113.451C233.408 112.497 237.026 110.927 240.317 108.805C240.377 108.77 240.446 108.751 240.516 108.751C240.586 108.751 240.655 108.77 240.715 108.805C240.778 108.838 240.831 108.887 240.867 108.948C240.903 109.008 240.922 109.078 240.921 109.149V130.983C240.921 131.047 240.905 131.11 240.874 131.166C240.844 131.222 240.799 131.269 240.746 131.303C237.328 133.32 233.639 134.838 229.791 135.812L229.699 135.789ZM230.081 114.115V134.92C233.611 133.983 237 132.579 240.156 130.746V109.82C237.027 111.735 233.632 113.182 230.081 114.115V114.115Z" fill="#231F20"/>
<path d="M225.92 99.841C225.818 99.8532 225.716 99.8246 225.636 99.7617C225.556 99.6987 225.504 99.6065 225.491 99.5053C225.479 99.4042 225.508 99.3023 225.571 99.2222C225.634 99.1421 225.727 99.0902 225.828 99.0781C225.912 99.0781 234.603 96.7894 241.128 91.8762C241.21 91.8175 241.311 91.7926 241.411 91.8068C241.511 91.821 241.601 91.8733 241.663 91.9525C241.724 92.0335 241.75 92.1352 241.736 92.2354C241.722 92.3355 241.668 92.4259 241.587 92.4866C234.916 97.5218 226.088 99.7952 226.004 99.8181L225.92 99.841Z" fill="white"/>
<path d="M232.506 101.832C232.405 101.852 232.3 101.832 232.214 101.774C232.128 101.717 232.068 101.628 232.047 101.527C232.027 101.426 232.048 101.321 232.105 101.235C232.163 101.149 232.252 101.09 232.353 101.069L233.692 100.474C236.366 99.4492 238.873 98.0324 241.128 96.2706C241.206 96.2187 241.301 96.1974 241.394 96.2107C241.487 96.224 241.572 96.2709 241.632 96.3426C241.693 96.4143 241.725 96.5056 241.722 96.5993C241.719 96.6929 241.682 96.7823 241.618 96.8504C239.307 98.6571 236.742 100.115 234.006 101.176L232.667 101.764C232.619 101.798 232.564 101.821 232.506 101.832Z" fill="white"/>
<path d="M70.6707 127.756C70.595 127.755 70.521 127.734 70.4565 127.695C66.6197 125.015 63.2366 121.742 60.435 117.998C60.3773 117.917 60.3539 117.816 60.3696 117.718C60.3853 117.62 60.439 117.531 60.5192 117.472C60.6019 117.414 60.704 117.39 60.8039 117.406C60.9038 117.422 60.9937 117.475 61.0547 117.556C63.8016 121.223 67.1175 124.429 70.8773 127.054C70.9616 127.111 71.0201 127.199 71.0401 127.299C71.0601 127.399 71.0401 127.503 70.9844 127.588C70.9496 127.639 70.9029 127.681 70.8483 127.711C70.7937 127.74 70.7327 127.755 70.6707 127.756Z" fill="#D1D3D4"/>
<path d="M70.6707 134.767C70.595 134.767 70.521 134.745 70.4565 134.706C66.6197 132.026 63.2366 128.753 60.435 125.009C60.3773 124.928 60.3539 124.827 60.3696 124.729C60.3853 124.631 60.439 124.542 60.5192 124.483C60.6019 124.425 60.704 124.401 60.8039 124.417C60.9038 124.433 60.9937 124.486 61.0547 124.567C63.801 128.236 67.1169 131.445 70.8773 134.073C70.9616 134.13 71.0201 134.218 71.0401 134.318C71.0601 134.418 71.0401 134.521 70.9844 134.607C70.9488 134.657 70.9017 134.697 70.8471 134.725C70.7925 134.753 70.732 134.767 70.6707 134.767Z" fill="#D1D3D4"/>
<path d="M70.6707 141.778C70.595 141.778 70.521 141.757 70.4565 141.717C66.6197 139.038 63.2366 135.764 60.435 132.02C60.3773 131.939 60.3539 131.839 60.3696 131.74C60.3853 131.642 60.439 131.553 60.5192 131.494C60.6019 131.436 60.704 131.413 60.8039 131.428C60.9038 131.444 60.9937 131.498 61.0547 131.578C63.797 135.244 67.1076 138.45 70.862 141.076C70.9463 141.134 71.0048 141.222 71.0248 141.321C71.0448 141.421 71.0248 141.525 70.9691 141.61C70.9358 141.659 70.8916 141.7 70.8398 141.729C70.788 141.758 70.7301 141.775 70.6707 141.778V141.778Z" fill="#D1D3D4"/>
<path d="M211.966 93.4555C211.911 93.457 211.856 93.4461 211.806 93.4237C211.756 93.4012 211.711 93.3678 211.676 93.3258C203.628 84.1022 188.014 74.7032 187.861 74.6116C187.805 74.5768 187.759 74.5285 187.727 74.4712C187.695 74.4138 187.678 74.3493 187.677 74.2836V49.3899C187.677 49.2887 187.718 49.1917 187.789 49.1201C187.861 49.0486 187.959 49.0084 188.06 49.0084C188.161 49.0104 188.257 49.0512 188.328 49.1223C188.4 49.1934 188.441 49.2893 188.442 49.3899V74.07C190.24 75.1685 204.599 84.0564 212.257 92.8299C212.327 92.9012 212.366 92.9971 212.366 93.0969C212.366 93.1967 212.327 93.2926 212.257 93.3639C212.175 93.4303 212.071 93.463 211.966 93.4555V93.4555Z" fill="#231F20"/>
<path d="M203.536 77.175C203.27 77.1757 203.008 77.1129 202.771 76.9919C201.409 76.3129 201.027 73.8335 200.621 71.2091C200.331 69.3094 200.025 67.3487 199.351 66.1891C199.294 66.0547 199.2 65.9395 199.079 65.857C198.959 65.7745 198.817 65.7283 198.671 65.7237C196.544 65.6475 192.084 71.4379 190.531 73.6733C190.469 73.7436 190.384 73.7889 190.291 73.8008C190.198 73.8126 190.104 73.79 190.027 73.7374C189.95 73.6847 189.895 73.6056 189.872 73.5151C189.849 73.4245 189.86 73.3288 189.904 73.246C190.493 72.3916 195.733 64.9608 198.632 64.9608H198.701C198.976 64.97 199.243 65.0527 199.474 65.2004C199.706 65.3481 199.893 65.5552 200.017 65.8C200.782 67.0817 201.073 69.1187 201.379 71.087C201.738 73.3757 202.105 75.7941 203.115 76.3053C203.339 76.3871 203.579 76.4132 203.815 76.3813C204.051 76.3494 204.276 76.2604 204.469 76.1222C206.11 75.2177 207.567 74.0174 208.769 72.5823C210.141 70.9697 211.788 69.6112 213.634 68.5694C213.722 68.52 213.827 68.5075 213.924 68.5347C214.022 68.5618 214.104 68.6264 214.154 68.7143C214.201 68.8037 214.211 68.9078 214.183 69.0046C214.154 69.1014 214.089 69.1833 214.001 69.2331C212.23 70.2396 210.651 71.5489 209.335 73.1011C208.071 74.5974 206.544 75.8513 204.829 76.8012C204.435 77.0288 203.991 77.1571 203.536 77.175V77.175Z" fill="#231F20"/>
<path d="M105.501 85.0864C105.4 85.0864 105.302 85.0462 105.231 84.9746C105.159 84.9031 105.119 84.8061 105.119 84.7049V63.168C105.118 63.0864 105.144 63.0069 105.192 62.9409C105.24 62.875 105.308 62.8263 105.386 62.8018C106.838 62.349 108.325 62.0148 109.831 61.8024C109.884 61.7953 109.938 61.8006 109.988 61.8178C110.039 61.8351 110.084 61.8637 110.122 61.9016C110.163 61.9359 110.196 61.9791 110.219 62.0279C110.242 62.0768 110.253 62.1301 110.252 62.1838V83.2859C110.25 83.3865 110.209 83.4823 110.138 83.5535C110.066 83.6246 109.97 83.6654 109.869 83.6673C109.768 83.6673 109.671 83.6272 109.599 83.5556C109.527 83.4841 109.487 83.3871 109.487 83.2859V62.6111C108.269 62.8114 107.065 63.0917 105.884 63.4503V84.7049C105.884 84.8061 105.843 84.9031 105.772 84.9746C105.7 85.0462 105.603 85.0864 105.501 85.0864V85.0864Z" fill="#231F20"/>
<path d="M123.601 181.373C123.525 181.369 123.452 181.343 123.391 181.298C123.33 181.254 123.283 181.192 123.257 181.121L114.842 157.715L105.57 175.72C105.539 175.776 105.496 175.825 105.442 175.86C105.389 175.896 105.328 175.919 105.264 175.926C105.199 175.932 105.135 175.921 105.076 175.894C105.017 175.867 104.965 175.826 104.927 175.773L95.7474 163.803L89.9487 172.981C89.895 173.065 89.8112 173.125 89.7145 173.149C89.6177 173.173 89.5154 173.16 89.4285 173.111L84.4942 170.143C84.4511 170.118 84.4135 170.084 84.3835 170.045C84.3535 170.005 84.3318 169.959 84.3197 169.911C84.3076 169.863 84.3053 169.812 84.3129 169.763C84.3206 169.714 84.338 169.667 84.3642 169.624C84.3901 169.581 84.4244 169.543 84.4651 169.513C84.5057 169.483 84.5519 169.462 84.601 169.45C84.6501 169.438 84.7011 169.435 84.751 169.443C84.801 169.451 84.8489 169.468 84.8921 169.495L89.4821 172.256L95.3343 162.903C95.3675 162.851 95.4124 162.807 95.4656 162.775C95.5187 162.744 95.5785 162.725 95.6403 162.72C95.7024 162.716 95.7645 162.728 95.8207 162.755C95.8769 162.781 95.9254 162.822 95.9616 162.873L105.142 174.804L114.551 156.556C114.586 156.491 114.638 156.437 114.703 156.401C114.767 156.366 114.84 156.349 114.914 156.354C114.988 156.359 115.058 156.385 115.117 156.429C115.176 156.473 115.222 156.533 115.247 156.601L123.662 179.969L127.709 171.425C127.728 171.376 127.757 171.332 127.795 171.295C127.832 171.258 127.876 171.228 127.925 171.209C127.974 171.19 128.026 171.181 128.079 171.183C128.131 171.185 128.183 171.197 128.23 171.22C128.277 171.243 128.32 171.275 128.354 171.314C128.388 171.354 128.414 171.4 128.43 171.45C128.446 171.5 128.451 171.553 128.445 171.605C128.44 171.657 128.424 171.707 128.398 171.753L123.93 181.159C123.898 181.22 123.851 181.272 123.794 181.31C123.736 181.347 123.67 181.369 123.601 181.373V181.373Z" fill="#D1D3D4"/>
<path d="M89.6274 173.958C90.2738 173.958 90.7979 173.435 90.7979 172.79C90.7979 172.146 90.2738 171.623 89.6274 171.623C88.981 171.623 88.457 172.146 88.457 172.79C88.457 173.435 88.981 173.958 89.6274 173.958Z" fill="white"/>
<path d="M89.6274 174.339C89.3248 174.339 89.029 174.25 88.7774 174.082C88.5258 173.914 88.3297 173.676 88.2139 173.397C88.0981 173.118 88.0678 172.812 88.1268 172.516C88.1858 172.22 88.3316 171.948 88.5455 171.734C88.7595 171.521 89.0321 171.376 89.3289 171.317C89.6257 171.258 89.9333 171.288 90.2129 171.404C90.4925 171.519 90.7314 171.715 90.8996 171.965C91.0677 172.216 91.1574 172.511 91.1574 172.813C91.1574 173.218 90.9962 173.606 90.7093 173.892C90.4224 174.178 90.0332 174.339 89.6274 174.339ZM89.6274 172.005C89.4761 172.005 89.3282 172.049 89.2024 172.133C89.0766 172.217 88.9785 172.336 88.9206 172.475C88.8627 172.615 88.8476 172.768 88.8771 172.916C88.9066 173.064 88.9795 173.2 89.0865 173.307C89.1935 173.414 89.3298 173.486 89.4782 173.516C89.6266 173.545 89.7804 173.53 89.9202 173.472C90.06 173.415 90.1794 173.317 90.2635 173.191C90.3475 173.066 90.3924 172.918 90.3924 172.767C90.3924 172.565 90.3118 172.371 90.1683 172.228C90.0249 172.085 89.8303 172.005 89.6274 172.005Z" fill="#D1D3D4"/>
<path d="M95.6786 164.299C96.325 164.299 96.849 163.777 96.849 163.132C96.849 162.487 96.325 161.965 95.6786 161.965C95.0321 161.965 94.5081 162.487 94.5081 163.132C94.5081 163.777 95.0321 164.299 95.6786 164.299Z" fill="white"/>
<path d="M95.6786 164.681C95.376 164.681 95.0801 164.591 94.8285 164.423C94.5769 164.256 94.3808 164.017 94.265 163.739C94.1492 163.46 94.1189 163.153 94.178 162.857C94.237 162.561 94.3827 162.289 94.5967 162.076C94.8107 161.862 95.0833 161.717 95.3801 161.658C95.6769 161.599 95.9845 161.63 96.2641 161.745C96.5436 161.861 96.7826 162.056 96.9507 162.307C97.1188 162.558 97.2086 162.853 97.2086 163.155C97.2086 163.559 97.0474 163.948 96.7604 164.234C96.4735 164.52 96.0843 164.681 95.6786 164.681ZM95.6786 162.346C95.5273 162.346 95.3794 162.391 95.2535 162.475C95.1277 162.558 95.0297 162.678 94.9718 162.817C94.9139 162.956 94.8987 163.11 94.9283 163.258C94.9578 163.406 95.0306 163.542 95.1376 163.648C95.2446 163.755 95.3809 163.828 95.5293 163.857C95.6777 163.887 95.8315 163.872 95.9713 163.814C96.1111 163.756 96.2306 163.658 96.3146 163.533C96.3987 163.407 96.4436 163.26 96.4436 163.109C96.4436 162.907 96.363 162.713 96.2195 162.57C96.076 162.426 95.8815 162.346 95.6786 162.346Z" fill="#D1D3D4"/>
<path d="M114.88 157.929C115.526 157.929 116.05 157.406 116.05 156.762C116.05 156.117 115.526 155.594 114.88 155.594C114.234 155.594 113.71 156.117 113.71 156.762C113.71 157.406 114.234 157.929 114.88 157.929Z" fill="white"/>
<path d="M114.88 158.31C114.577 158.31 114.282 158.221 114.03 158.053C113.778 157.886 113.582 157.647 113.467 157.368C113.351 157.09 113.32 156.783 113.379 156.487C113.438 156.191 113.584 155.919 113.798 155.706C114.012 155.492 114.285 155.347 114.582 155.288C114.878 155.229 115.186 155.259 115.466 155.375C115.745 155.49 115.984 155.686 116.152 155.937C116.32 156.188 116.41 156.483 116.41 156.784C116.41 157.189 116.249 157.577 115.962 157.863C115.675 158.15 115.286 158.31 114.88 158.31ZM114.88 155.976C114.729 155.976 114.581 156.021 114.455 156.104C114.329 156.188 114.231 156.307 114.173 156.447C114.115 156.586 114.1 156.74 114.13 156.888C114.159 157.036 114.232 157.171 114.339 157.278C114.446 157.385 114.582 157.458 114.731 157.487C114.879 157.516 115.033 157.501 115.173 157.444C115.313 157.386 115.432 157.288 115.516 157.163C115.6 157.037 115.645 156.89 115.645 156.739C115.645 156.536 115.564 156.342 115.421 156.199C115.278 156.056 115.083 155.976 114.88 155.976Z" fill="#D1D3D4"/>
<path d="M123.601 182.159C124.247 182.159 124.772 181.636 124.772 180.992C124.772 180.347 124.247 179.824 123.601 179.824C122.955 179.824 122.431 180.347 122.431 180.992C122.431 181.636 122.955 182.159 123.601 182.159Z" fill="white"/>
<path d="M123.601 182.54C123.298 182.54 123.003 182.451 122.751 182.283C122.499 182.115 122.303 181.877 122.188 181.598C122.072 181.32 122.041 181.013 122.1 180.717C122.159 180.421 122.305 180.149 122.519 179.936C122.733 179.722 123.006 179.577 123.303 179.518C123.599 179.459 123.907 179.489 124.187 179.605C124.466 179.72 124.705 179.916 124.873 180.167C125.041 180.418 125.131 180.713 125.131 181.014C125.131 181.419 124.97 181.807 124.683 182.093C124.396 182.38 124.007 182.54 123.601 182.54ZM123.601 180.206C123.392 180.206 123.192 180.289 123.044 180.436C122.896 180.583 122.813 180.783 122.813 180.992C122.813 181.2 122.896 181.4 123.044 181.547C123.192 181.695 123.392 181.777 123.601 181.777C123.81 181.777 124.01 181.695 124.158 181.547C124.306 181.4 124.389 181.2 124.389 180.992C124.389 180.783 124.306 180.583 124.158 180.436C124.01 180.289 123.81 180.206 123.601 180.206Z" fill="#D1D3D4"/>
<path d="M105.195 176.712C105.842 176.712 106.366 176.189 106.366 175.544C106.366 174.9 105.842 174.377 105.195 174.377C104.549 174.377 104.025 174.9 104.025 175.544C104.025 176.189 104.549 176.712 105.195 176.712Z" fill="white"/>
<path d="M105.195 177.093C104.893 177.093 104.597 177.004 104.345 176.836C104.094 176.668 103.897 176.43 103.782 176.151C103.666 175.872 103.636 175.566 103.695 175.27C103.754 174.974 103.899 174.702 104.113 174.488C104.327 174.275 104.6 174.13 104.897 174.071C105.193 174.012 105.501 174.042 105.781 174.158C106.06 174.273 106.299 174.469 106.467 174.72C106.635 174.971 106.725 175.266 106.725 175.567C106.725 175.972 106.564 176.36 106.277 176.646C105.99 176.932 105.601 177.093 105.195 177.093ZM105.195 174.759C105.044 174.759 104.896 174.803 104.77 174.887C104.644 174.971 104.546 175.09 104.488 175.23C104.43 175.369 104.415 175.522 104.445 175.67C104.474 175.818 104.547 175.954 104.654 176.061C104.761 176.168 104.898 176.24 105.046 176.27C105.194 176.299 105.348 176.284 105.488 176.226C105.628 176.169 105.747 176.071 105.831 175.945C105.915 175.82 105.96 175.672 105.96 175.522C105.96 175.319 105.88 175.125 105.736 174.982C105.593 174.839 105.398 174.759 105.195 174.759Z" fill="#D1D3D4"/>
<path d="M185.673 163.414C170.044 171.127 153 171.257 153 171.257V196.212C164.309 196.568 175.532 194.136 185.673 189.132V163.414Z" fill="white"/>
<path d="M155.012 196.631C154.339 196.631 153.673 196.631 152.992 196.631C152.893 196.627 152.799 196.586 152.729 196.515C152.659 196.444 152.619 196.349 152.617 196.25V171.257C152.617 171.156 152.658 171.059 152.73 170.987C152.801 170.916 152.899 170.875 153 170.875C153.168 170.875 170.136 170.654 185.505 163.071C185.563 163.041 185.627 163.025 185.692 163.025C185.758 163.025 185.822 163.041 185.88 163.071C185.934 163.105 185.978 163.153 186.009 163.209C186.039 163.265 186.056 163.327 186.056 163.391V189.109C186.057 189.18 186.039 189.25 186.002 189.31C185.966 189.371 185.913 189.42 185.849 189.452C176.265 194.191 165.709 196.648 155.012 196.631V196.631ZM153.382 195.868C164.424 196.156 175.371 193.777 185.291 188.933V164.024C171.199 170.807 155.961 171.547 153.382 171.654V195.868Z" fill="#231F20"/>
<path d="M160.65 181.77C160.614 183 160.827 184.224 161.274 185.371C161.722 186.518 162.395 187.564 163.255 188.446C164.115 189.329 165.144 190.03 166.28 190.509C167.417 190.988 168.638 191.235 169.872 191.235C171.106 191.235 172.327 190.988 173.464 190.509C174.601 190.03 175.629 189.329 176.489 188.446C177.349 187.564 178.022 186.518 178.47 185.371C178.917 184.224 179.13 183 179.094 181.77H169.83V172.577C167.392 172.589 165.059 173.562 163.339 175.285C161.619 177.007 160.652 179.339 160.65 181.77Z" fill="#F6CA1C"/>
<path d="M171.36 171.219V180.419H180.54C180.54 177.987 179.574 175.654 177.854 173.93C176.134 172.206 173.799 171.231 171.36 171.219Z" fill="#E6E7E8"/>
<path d="M201.195 164.185C201.105 164.186 201.018 164.155 200.949 164.098C200.881 164.04 200.835 163.96 200.82 163.872C200.802 163.772 200.824 163.669 200.881 163.585C200.938 163.501 201.026 163.442 201.126 163.422C201.31 163.422 219.28 160.065 229.515 154.366C229.559 154.335 229.609 154.314 229.662 154.303C229.715 154.293 229.769 154.293 229.822 154.305C229.874 154.317 229.924 154.34 229.967 154.373C230.01 154.405 230.046 154.446 230.072 154.493C230.098 154.54 230.113 154.592 230.118 154.645C230.122 154.699 230.115 154.753 230.098 154.804C230.08 154.854 230.051 154.901 230.014 154.94C229.977 154.979 229.932 155.009 229.883 155.03C219.54 160.79 201.447 164.147 201.264 164.185H201.195Z" fill="#D1D3D4"/>
<path d="M201.195 170.944C201.094 170.953 200.993 170.922 200.914 170.857C200.836 170.792 200.787 170.698 200.778 170.597C200.769 170.496 200.801 170.395 200.866 170.317C200.931 170.239 201.025 170.19 201.126 170.181C201.31 170.143 219.28 166.817 229.515 161.118C229.559 161.087 229.609 161.065 229.662 161.055C229.715 161.044 229.769 161.045 229.822 161.057C229.874 161.069 229.924 161.092 229.967 161.124C230.01 161.157 230.046 161.198 230.072 161.245C230.098 161.292 230.113 161.344 230.118 161.397C230.122 161.451 230.115 161.505 230.098 161.555C230.08 161.606 230.051 161.652 230.014 161.691C229.977 161.73 229.932 161.761 229.883 161.782C219.54 167.549 201.447 170.898 201.264 170.936L201.195 170.944Z" fill="#D1D3D4"/>
<path d="M201.195 177.703C201.094 177.713 200.993 177.681 200.914 177.616C200.836 177.551 200.787 177.458 200.778 177.356C200.769 177.255 200.801 177.155 200.866 177.077C200.931 176.999 201.025 176.95 201.126 176.941C201.31 176.941 219.28 173.576 229.515 167.877C229.604 167.83 229.708 167.818 229.805 167.845C229.902 167.872 229.984 167.936 230.036 168.022C230.06 168.066 230.075 168.115 230.08 168.165C230.086 168.215 230.081 168.265 230.067 168.313C230.053 168.361 230.029 168.406 229.998 168.445C229.966 168.485 229.927 168.517 229.883 168.541C219.54 174.309 201.447 177.658 201.264 177.696L201.195 177.703Z" fill="#D1D3D4"/>
<path d="M201.195 184.463C201.094 184.472 200.993 184.44 200.914 184.375C200.836 184.31 200.787 184.217 200.778 184.116C200.769 184.015 200.801 183.914 200.866 183.836C200.931 183.758 201.025 183.709 201.126 183.7C206.35 182.69 211.516 181.404 216.602 179.847C216.7 179.818 216.804 179.828 216.894 179.875C216.984 179.923 217.052 180.003 217.084 180.099C217.113 180.195 217.102 180.299 217.055 180.387C217.008 180.476 216.928 180.542 216.832 180.572C211.715 182.13 206.518 183.417 201.264 184.425L201.195 184.463Z" fill="#D1D3D4"/>
<path d="M84.6932 106.066C84.627 106.067 84.5617 106.051 84.5039 106.019C84.4462 105.987 84.398 105.94 84.3642 105.883C84.3136 105.795 84.2997 105.69 84.3255 105.592C84.3512 105.494 84.4145 105.409 84.5019 105.357C89.6886 102.305 100.292 100.07 100.743 99.9783C100.792 99.9672 100.842 99.9658 100.891 99.9744C100.941 99.983 100.988 100.001 101.03 100.028C101.072 100.055 101.108 100.091 101.136 100.132C101.165 100.173 101.184 100.219 101.194 100.268C101.205 100.317 101.207 100.368 101.198 100.418C101.19 100.467 101.172 100.515 101.145 100.558C101.117 100.6 101.082 100.637 101.041 100.666C101 100.695 100.953 100.715 100.904 100.726C100.789 100.726 89.964 103.015 84.8844 106.021C84.825 106.05 84.7596 106.066 84.6932 106.066Z" fill="#D1D3D4"/>
<path d="M84.6932 109.896C84.6097 109.895 84.5288 109.867 84.4628 109.816C84.3968 109.765 84.3493 109.694 84.3277 109.614C84.306 109.533 84.3113 109.448 84.3428 109.371C84.3742 109.294 84.4301 109.229 84.5019 109.187C89.6886 106.135 100.292 103.9 100.743 103.846C100.844 103.825 100.95 103.845 101.037 103.901C101.124 103.958 101.184 104.046 101.206 104.148C101.227 104.249 101.207 104.354 101.15 104.441C101.094 104.527 101.005 104.588 100.904 104.609C100.789 104.609 89.964 106.898 84.8844 109.904C84.8211 109.919 84.755 109.916 84.6932 109.896V109.896Z" fill="#D1D3D4"/>
<path d="M84.6932 113.726C84.6264 113.726 84.5609 113.708 84.5032 113.674C84.4455 113.641 84.3976 113.593 84.3642 113.535C84.3136 113.447 84.2997 113.342 84.3255 113.244C84.3512 113.146 84.4145 113.061 84.5019 113.009C89.6886 109.957 100.292 107.722 100.743 107.668C100.842 107.65 100.944 107.671 101.029 107.727C101.113 107.782 101.172 107.868 101.194 107.966C101.205 108.015 101.207 108.065 101.198 108.114C101.19 108.163 101.171 108.21 101.144 108.252C101.117 108.294 101.082 108.33 101.04 108.358C100.999 108.387 100.953 108.406 100.904 108.416C100.789 108.416 89.964 110.705 84.8844 113.711C84.8225 113.729 84.7573 113.735 84.6932 113.726V113.726Z" fill="#D1D3D4"/>
<path d="M84.6932 117.548C84.6097 117.547 84.5288 117.519 84.4628 117.468C84.3968 117.417 84.3493 117.346 84.3277 117.266C84.306 117.185 84.3113 117.1 84.3428 117.023C84.3742 116.946 84.4301 116.881 84.5019 116.839C87.5448 115.234 90.764 113.988 94.095 113.123C94.1965 113.095 94.305 113.108 94.3968 113.159C94.4887 113.211 94.5562 113.297 94.5846 113.398C94.613 113.499 94.6 113.607 94.5483 113.699C94.4967 113.79 94.4107 113.858 94.3092 113.886C91.0504 114.729 87.8987 115.94 84.915 117.495C84.8488 117.536 84.771 117.555 84.6932 117.548V117.548Z" fill="#D1D3D4"/>
</svg>
