<svg width="306" height="230" viewBox="0 0 306 230" fill="none" xmlns="http://www.w3.org/2000/svg">
<path d="M216.301 42.4611L215.463 48.3912L196.248 183.49H102.847L122.062 48.3912L122.907 42.4611C123.222 40.5254 124.202 38.7594 125.681 37.4671C127.16 36.1748 129.045 35.437 131.01 35.3808H210.211C211.107 35.3555 211.998 35.5302 212.817 35.8921C213.637 36.254 214.366 36.794 214.949 37.4726C215.533 38.1512 215.957 38.9513 216.191 39.8144C216.425 40.6775 216.462 41.5817 216.301 42.4611V42.4611Z" fill="white"/>
<path d="M196.248 183.847H102.848C102.796 183.848 102.745 183.837 102.698 183.816C102.651 183.795 102.609 183.764 102.575 183.726C102.542 183.687 102.517 183.641 102.502 183.592C102.488 183.543 102.483 183.491 102.489 183.44L122.549 42.4111C122.876 40.388 123.9 38.5417 125.444 37.1896C126.988 35.8374 128.956 35.064 131.01 35.0021H210.211C211.146 34.9783 212.075 35.1577 212.934 35.5279C213.792 35.898 214.56 36.45 215.183 37.1455C215.802 37.8712 216.255 38.7228 216.509 39.6409C216.764 40.5589 216.815 41.5214 216.659 42.4611L215.821 48.3912L196.599 183.54C196.587 183.625 196.545 183.702 196.481 183.758C196.416 183.815 196.334 183.846 196.248 183.847ZM103.256 183.133H195.933L215.95 42.3825C216.091 41.5448 216.048 40.6864 215.823 39.867C215.598 39.0477 215.196 38.2872 214.646 37.6385C214.093 37.0139 213.409 36.5176 212.643 36.1844C211.877 35.8512 211.047 35.6891 210.211 35.7094H131.01C129.131 35.7661 127.33 36.4728 125.916 37.7085C124.501 38.9442 123.562 40.632 123.259 42.4826L122.42 48.4126L103.256 183.133Z" fill="#231F20"/>
<path d="M162.891 105.477H121.912C121.809 105.473 121.711 105.43 121.639 105.356C121.607 105.316 121.584 105.27 121.57 105.221C121.557 105.172 121.553 105.12 121.561 105.07L127.643 62.5877C127.657 62.5025 127.7 62.4248 127.766 62.3686C127.831 62.3123 127.915 62.2811 128.001 62.2805H168.966C169.018 62.28 169.069 62.2906 169.116 62.3116C169.163 62.3325 169.205 62.3634 169.239 62.4021C169.273 62.4408 169.299 62.4863 169.313 62.5356C169.328 62.5849 169.332 62.6368 169.325 62.6877L163.285 105.17C163.271 105.262 163.222 105.344 163.149 105.401C163.076 105.458 162.984 105.486 162.891 105.477V105.477ZM122.334 104.763H162.583L168.522 62.9949H128.273L122.334 104.763Z" fill="#D1D3D4"/>
<path d="M201.808 62.9949H179.942C179.847 62.9949 179.756 62.9573 179.689 62.8903C179.622 62.8233 179.584 62.7325 179.584 62.6377C179.584 62.543 179.622 62.4521 179.689 62.3851C179.756 62.3181 179.847 62.2805 179.942 62.2805H201.815C201.91 62.2805 202.001 62.3181 202.068 62.3851C202.135 62.4521 202.173 62.543 202.173 62.6377C202.173 62.6852 202.163 62.7323 202.145 62.7761C202.127 62.8199 202.1 62.8596 202.065 62.8929C202.031 62.9261 201.991 62.9523 201.947 62.9698C201.903 62.9874 201.855 62.9959 201.808 62.9949V62.9949Z" fill="#D1D3D4"/>
<path d="M201.005 68.6464H179.133C179.038 68.6464 178.946 68.6087 178.879 68.5418C178.812 68.4748 178.774 68.3839 178.774 68.2891C178.774 68.1944 178.812 68.1035 178.879 68.0366C178.946 67.9696 179.038 67.9319 179.133 67.9319H201.005C201.1 67.9319 201.191 67.9696 201.258 68.0366C201.326 68.1035 201.363 68.1944 201.363 68.2891C201.363 68.3839 201.326 68.4748 201.258 68.5418C201.191 68.6087 201.1 68.6464 201.005 68.6464Z" fill="#D1D3D4"/>
<path d="M200.203 74.2978H178.323C178.229 74.296 178.139 74.2578 178.072 74.1912C178.005 74.1246 177.967 74.0348 177.965 73.9406C177.965 73.8458 178.003 73.755 178.07 73.688C178.137 73.621 178.228 73.5834 178.323 73.5834H200.203C200.298 73.5834 200.389 73.621 200.456 73.688C200.523 73.755 200.561 73.8458 200.561 73.9406C200.561 74.0353 200.523 74.1262 200.456 74.1932C200.389 74.2602 200.298 74.2978 200.203 74.2978Z" fill="#D1D3D4"/>
<path d="M199.4 79.9564H177.521C177.426 79.9564 177.335 79.9188 177.267 79.8518C177.2 79.7848 177.162 79.6939 177.162 79.5992C177.162 79.5044 177.2 79.4136 177.267 79.3466C177.335 79.2796 177.426 79.2419 177.521 79.2419H199.4C199.495 79.2419 199.586 79.2796 199.654 79.3466C199.721 79.4136 199.759 79.5044 199.759 79.5992C199.759 79.6939 199.721 79.7848 199.654 79.8518C199.586 79.9188 199.495 79.9564 199.4 79.9564Z" fill="#D1D3D4"/>
<path d="M198.569 85.6079H176.718C176.623 85.6079 176.532 85.5702 176.465 85.5032C176.398 85.4362 176.36 85.3454 176.36 85.2506C176.36 85.1559 176.398 85.065 176.465 84.998C176.532 84.931 176.623 84.8934 176.718 84.8934H198.569C198.664 84.8934 198.756 84.931 198.823 84.998C198.89 85.065 198.928 85.1559 198.928 85.2506C198.928 85.3454 198.89 85.4362 198.823 85.5032C198.756 85.5702 198.664 85.6079 198.569 85.6079Z" fill="#D1D3D4"/>
<path d="M191.462 91.2664H175.909C175.814 91.2646 175.724 91.2264 175.657 91.1598C175.591 91.0932 175.552 91.0034 175.551 90.9092C175.551 90.8145 175.588 90.7236 175.655 90.6566C175.723 90.5896 175.814 90.552 175.909 90.552H191.462C191.557 90.552 191.648 90.5896 191.716 90.6566C191.783 90.7236 191.821 90.8145 191.821 90.9092C191.821 91.0039 191.783 91.0948 191.716 91.1618C191.648 91.2288 191.557 91.2664 191.462 91.2664Z" fill="#D1D3D4"/>
<path d="M194.514 105.12H175.171C174.664 105.133 174.16 105.034 173.697 104.829C173.233 104.624 172.821 104.318 172.491 103.934C172.161 103.55 171.921 103.097 171.788 102.609C171.656 102.121 171.634 101.609 171.725 101.112V101.112C171.904 100.017 172.459 99.0181 173.296 98.2868C174.132 97.5556 175.198 97.1372 176.31 97.1036H195.654C196.161 97.0891 196.666 97.1877 197.13 97.3924C197.595 97.5971 198.007 97.9027 198.338 98.2868C198.669 98.6709 198.91 99.1239 199.043 99.6126C199.176 100.101 199.198 100.614 199.107 101.112C198.927 102.208 198.371 103.208 197.533 103.939C196.695 104.67 195.628 105.088 194.514 105.12V105.12Z" fill="#D1D3D4"/>
<path d="M140.001 160.984H120.658C120.151 160.999 119.646 160.9 119.182 160.696C118.718 160.491 118.305 160.185 117.975 159.801C117.645 159.417 117.405 158.963 117.273 158.475C117.141 157.986 117.12 157.474 117.212 156.976V156.976C117.391 155.881 117.946 154.882 118.783 154.151C119.62 153.42 120.685 153.001 121.797 152.968H141.141C141.648 152.953 142.152 153.052 142.616 153.256C143.081 153.461 143.493 153.767 143.824 154.151C144.154 154.535 144.394 154.989 144.526 155.477C144.658 155.966 144.679 156.478 144.587 156.976C144.409 158.072 143.854 159.071 143.017 159.803C142.18 160.534 141.114 160.952 140.001 160.984V160.984Z" fill="#D1D3D4"/>
<path d="M183.933 160.984H164.589C164.082 160.999 163.577 160.9 163.113 160.696C162.649 160.491 162.237 160.185 161.906 159.801C161.576 159.417 161.336 158.963 161.204 158.475C161.072 157.986 161.051 157.474 161.143 156.976V156.976C161.321 155.88 161.876 154.881 162.713 154.149C163.55 153.418 164.616 153 165.728 152.968H185.072C185.579 152.953 186.083 153.052 186.548 153.256C187.012 153.461 187.424 153.767 187.755 154.151C188.085 154.535 188.325 154.989 188.457 155.477C188.589 155.966 188.61 156.478 188.518 156.976C188.34 158.072 187.785 159.071 186.948 159.803C186.111 160.534 185.045 160.952 183.933 160.984V160.984Z" fill="#D1D3D4"/>
<path d="M148.577 147.845H115.894C115.842 147.843 115.791 147.831 115.744 147.809C115.697 147.787 115.656 147.755 115.621 147.717C115.588 147.679 115.563 147.635 115.55 147.586C115.536 147.538 115.533 147.487 115.543 147.438L119.841 117.037C119.855 116.952 119.898 116.874 119.964 116.818C120.029 116.762 120.113 116.731 120.199 116.73H152.876C152.927 116.729 152.978 116.74 153.025 116.761C153.072 116.782 153.114 116.813 153.148 116.852C153.182 116.89 153.208 116.935 153.223 116.985C153.238 117.034 153.241 117.086 153.234 117.137L148.935 147.538C148.922 147.623 148.878 147.701 148.813 147.757C148.747 147.813 148.664 147.845 148.577 147.845ZM116.338 147.131H148.298L152.517 117.445H120.529L116.338 147.131Z" fill="#D1D3D4"/>
<path d="M192.508 147.845H159.825C159.773 147.844 159.722 147.832 159.675 147.81C159.628 147.788 159.586 147.756 159.553 147.717C159.52 147.679 159.495 147.634 159.48 147.586C159.465 147.538 159.461 147.488 159.467 147.438L163.765 117.037C163.777 116.953 163.819 116.875 163.884 116.819C163.948 116.762 164.031 116.731 164.116 116.73H196.8C196.851 116.729 196.902 116.74 196.95 116.761C196.997 116.782 197.038 116.813 197.072 116.852C197.107 116.89 197.132 116.935 197.147 116.985C197.162 117.034 197.166 117.086 197.158 117.137L192.859 147.538C192.847 147.623 192.805 147.7 192.741 147.756C192.677 147.813 192.594 147.844 192.508 147.845ZM160.269 147.131H192.222L196.449 117.445H164.46L160.269 147.131Z" fill="#D1D3D4"/>
<path d="M141.291 173.244C141.074 173.248 140.86 173.205 140.662 173.117C140.464 173.029 140.287 172.9 140.145 172.737C140.002 172.571 139.897 172.375 139.838 172.164C139.778 171.953 139.766 171.732 139.801 171.515C139.871 171.069 140.098 170.662 140.44 170.365C140.782 170.068 141.218 169.901 141.671 169.894C141.886 169.891 142.1 169.934 142.298 170.02C142.496 170.106 142.673 170.234 142.817 170.394C142.96 170.56 143.064 170.756 143.122 170.967C143.181 171.178 143.191 171.4 143.154 171.615C143.086 172.063 142.862 172.471 142.521 172.77C142.18 173.068 141.744 173.236 141.291 173.244V173.244ZM141.671 170.608C141.391 170.62 141.124 170.726 140.913 170.909C140.702 171.092 140.56 171.341 140.51 171.615C140.49 171.731 140.496 171.85 140.527 171.964C140.558 172.077 140.613 172.183 140.689 172.273C140.765 172.357 140.858 172.423 140.962 172.467C141.066 172.512 141.178 172.533 141.291 172.53C141.571 172.519 141.838 172.412 142.049 172.227C142.259 172.042 142.398 171.791 142.444 171.515V171.515C142.465 171.401 142.461 171.284 142.431 171.171C142.401 171.059 142.347 170.954 142.272 170.865C142.197 170.782 142.104 170.715 142 170.671C141.896 170.626 141.784 170.605 141.671 170.608V170.608Z" fill="#D1D3D4"/>
<path d="M149.104 172.475C149.678 171.942 149.766 171.108 149.302 170.611C148.838 170.115 147.998 170.144 147.424 170.676C146.851 171.209 146.763 172.043 147.226 172.54C147.69 173.036 148.531 173.007 149.104 172.475Z" fill="#D1D3D4"/>
<path d="M155.385 172.426C155.956 171.895 156.045 171.062 155.582 170.567C155.119 170.071 154.281 170.1 153.709 170.632C153.137 171.163 153.048 171.995 153.511 172.491C153.974 172.986 154.813 172.957 155.385 172.426Z" fill="#D1D3D4"/>
<path d="M162.69 172.472C163.263 171.94 163.352 171.105 162.888 170.609C162.424 170.112 161.583 170.141 161.01 170.674C160.437 171.206 160.348 172.041 160.812 172.537C161.276 173.034 162.117 173.005 162.69 172.472Z" fill="#D1D3D4"/>
<path d="M136.391 52.6423H130.982C130.887 52.6423 130.796 52.6047 130.728 52.5377C130.661 52.4707 130.623 52.3798 130.623 52.2851C130.623 52.1903 130.661 52.0995 130.728 52.0325C130.796 51.9655 130.887 51.9278 130.982 51.9278H136.391C136.486 51.9278 136.577 51.9655 136.644 52.0325C136.711 52.0995 136.749 52.1903 136.749 52.2851C136.749 52.3798 136.711 52.4707 136.644 52.5377C136.577 52.6047 136.486 52.6423 136.391 52.6423Z" fill="#D1D3D4"/>
<path d="M136.047 55.0715H130.631C130.536 55.0697 130.446 55.0314 130.379 54.9648C130.313 54.8982 130.274 54.8084 130.272 54.7143C130.272 54.6195 130.31 54.5287 130.377 54.4617C130.445 54.3947 130.536 54.357 130.631 54.357H136.047C136.142 54.357 136.233 54.3947 136.3 54.4617C136.367 54.5287 136.405 54.6195 136.405 54.7143C136.403 54.8084 136.365 54.8982 136.298 54.9648C136.231 55.0314 136.141 55.0697 136.047 55.0715Z" fill="#D1D3D4"/>
<path d="M135.696 57.4935H130.287C130.192 57.4935 130.101 57.4559 130.034 57.3889C129.966 57.3219 129.929 57.231 129.929 57.1363C129.93 57.0421 129.969 56.9523 130.036 56.8857C130.102 56.8191 130.192 56.7809 130.287 56.7791H135.696C135.791 56.7791 135.882 56.8167 135.949 56.8837C136.016 56.9507 136.054 57.0416 136.054 57.1363C136.054 57.231 136.016 57.3219 135.949 57.3889C135.882 57.4559 135.791 57.4935 135.696 57.4935Z" fill="#D1D3D4"/>
<path d="M216.301 42.4611L215.463 48.3912H122.062L122.907 42.4611C123.222 40.5254 124.202 38.7594 125.681 37.4671C127.16 36.1748 129.045 35.437 131.01 35.3808H210.211C211.107 35.3555 211.998 35.5302 212.817 35.8921C213.637 36.254 214.365 36.794 214.949 37.4726C215.533 38.1512 215.957 38.9513 216.191 39.8144C216.425 40.6775 216.462 41.5817 216.301 42.4611V42.4611Z" fill="#231F20"/>
<path d="M171.839 42.2468H161.552C161.457 42.2468 161.365 42.2091 161.298 42.1422C161.231 42.0752 161.193 41.9843 161.193 41.8896C161.193 41.7948 161.231 41.7039 161.298 41.6369C161.365 41.57 161.457 41.5323 161.552 41.5323H171.839C171.934 41.5323 172.026 41.57 172.093 41.6369C172.16 41.7039 172.198 41.7948 172.198 41.8896C172.198 41.9843 172.16 42.0752 172.093 42.1422C172.026 42.2091 171.934 42.2468 171.839 42.2468Z" fill="#D1D3D4"/>
<path d="M177.077 42.2468H175.257C175.162 42.245 175.072 42.2067 175.006 42.1401C174.939 42.0735 174.901 41.9837 174.899 41.8896C174.899 41.7948 174.936 41.7039 175.004 41.6369C175.071 41.57 175.162 41.5323 175.257 41.5323H177.077C177.172 41.5323 177.263 41.57 177.33 41.6369C177.397 41.7039 177.435 41.7948 177.435 41.8896C177.435 41.9843 177.397 42.0752 177.33 42.1422C177.263 42.2091 177.172 42.2468 177.077 42.2468Z" fill="#D1D3D4"/>
<path d="M120.98 88.9158L127.657 95.789C127.657 95.789 139.708 82.6642 139.837 81.021C140.212 78.0716 141.038 75.1971 142.287 72.4974C142.341 72.3249 142.459 72.1794 142.616 72.0901C142.996 71.9472 143.268 72.4759 143.333 72.876C143.453 73.852 143.441 74.8397 143.297 75.8125C144.493 74.1621 145.711 72.5331 146.965 70.9255C147.01 70.8445 147.073 70.7744 147.149 70.72C147.224 70.6657 147.311 70.6286 147.402 70.6112C147.542 70.6199 147.674 70.6782 147.775 70.7755C148.565 71.4482 149.156 72.3225 149.487 73.3047C149.701 73.8254 149.825 74.3787 149.852 74.9408C149.902 78.0988 147.065 83.2287 144.121 84.5218C144.121 84.5218 130.408 107.956 127.944 107.685C125.479 107.413 115.765 96.4749 115.765 96.4749L120.98 88.9158Z" fill="white"/>
<path d="M127.951 108.042H127.894C125.365 107.756 116.474 97.8395 115.464 96.7107C115.414 96.6476 115.387 96.5696 115.387 96.4892C115.387 96.4088 115.414 96.3308 115.464 96.2677L120.708 88.7158C120.739 88.6732 120.778 88.6378 120.824 88.6119C120.87 88.586 120.921 88.5703 120.973 88.5657C121.026 88.5609 121.079 88.568 121.129 88.5865C121.178 88.6051 121.223 88.6346 121.26 88.6729L127.672 95.2675C132.307 90.2019 139.421 82.0784 139.521 80.9781C139.896 77.9964 140.722 75.0887 141.972 72.3545C142.016 72.2255 142.086 72.1067 142.177 72.0049C142.268 71.9031 142.378 71.8203 142.502 71.7615C142.603 71.7223 142.711 71.7064 142.819 71.7151C142.927 71.7237 143.032 71.7567 143.125 71.8115C143.291 71.9363 143.427 72.0956 143.525 72.2781C143.622 72.4607 143.679 72.6623 143.691 72.8689C143.757 73.4428 143.783 74.0204 143.77 74.5979C144.723 73.2976 145.697 72.0044 146.686 70.7398C146.763 70.6155 146.868 70.5104 146.992 70.4324C147.116 70.3544 147.256 70.3056 147.402 70.2897C147.627 70.2992 147.842 70.3849 148.011 70.5326C148.851 71.2338 149.487 72.1466 149.852 73.1761C150.079 73.7363 150.21 74.3304 150.239 74.9337C150.289 78.0988 147.56 83.3215 144.393 84.8005C141.972 88.9373 130.609 108.042 127.951 108.042ZM116.18 96.4463C120.07 100.797 126.282 107.163 127.966 107.328C129.441 107.328 137.129 95.6818 143.77 84.3361C143.808 84.2705 143.866 84.2181 143.935 84.1861C146.836 82.9143 149.508 77.8987 149.458 74.9408C149.435 74.418 149.321 73.9031 149.122 73.419C148.808 72.5019 148.254 71.6853 147.517 71.0541C147.424 70.9755 147.388 70.9613 147.374 70.9613C147.314 71.0121 147.262 71.0697 147.216 71.1327C145.969 72.7331 144.737 74.3764 143.548 76.0197C143.501 76.085 143.433 76.1326 143.355 76.1548C143.278 76.1769 143.195 76.1724 143.121 76.1418C143.046 76.1112 142.984 76.0564 142.944 75.9863C142.905 75.9161 142.89 75.8348 142.903 75.7553C143.045 74.8088 143.057 73.8473 142.939 72.8975C142.928 72.7115 142.849 72.536 142.717 72.4045C142.662 72.4693 142.62 72.5447 142.595 72.626C141.362 75.2894 140.546 78.1254 140.173 81.0353C140.023 82.7143 129.914 93.8028 127.887 96.0391C127.819 96.1094 127.726 96.1505 127.629 96.1534C127.531 96.1468 127.438 96.1092 127.364 96.0462L120.995 89.4874L116.18 96.4463Z" fill="#231F20"/>
<path d="M73.9111 187.448C73.9111 187.448 71.5827 193.807 72.6143 194.421C73.646 195.036 94.2074 194.421 92.968 193.192C91.7286 191.964 86.2551 187.862 86.2551 187.862" fill="white"/>
<path d="M77.3285 195C74.6992 195 72.7218 194.907 72.4209 194.729C71.3033 194.064 72.6645 189.806 73.5672 187.327C73.6025 187.238 73.6705 187.167 73.7572 187.127C73.8438 187.087 73.9425 187.082 74.0329 187.112C74.1209 187.146 74.192 187.213 74.2309 187.298C74.2698 187.384 74.2733 187.481 74.2407 187.57C73.0944 190.72 72.4138 193.778 72.8078 194.121C74.2407 194.757 90.3244 194.007 92.5167 193.25C91.005 191.856 86.0689 188.184 86.0689 188.148C86.0312 188.12 85.9995 188.085 85.9756 188.045C85.9516 188.004 85.9358 187.959 85.9292 187.913C85.9157 187.819 85.9402 187.724 85.9972 187.648C86.0542 187.572 86.1391 187.522 86.2331 187.509C86.3272 187.495 86.4227 187.52 86.4987 187.577C86.7208 187.741 92.0152 191.706 93.2546 192.942C93.3443 193.026 93.3993 193.139 93.4086 193.261C93.4179 193.383 93.3808 193.504 93.3048 193.6C92.5382 194.536 83.2676 195 77.3285 195Z" fill="#231F20"/>
<path d="M94.6875 66.0457C93.7131 66.0028 92.7388 65.8385 91.614 65.7385C90.4892 65.6385 89.214 65.2598 89.1925 64.2167C89.1925 63.3164 90.2528 62.5734 90.0164 61.7089C89.9332 61.4756 89.8068 61.2599 89.6438 61.073C88.1449 59.0668 87.4823 56.5601 87.7948 54.0778C88.1073 51.5954 89.3706 49.3298 91.3203 47.7553C91.0265 47.8554 90.7113 47.5624 90.6826 47.2552C90.6807 46.9412 90.8015 46.6388 91.0193 46.4121C91.8095 45.5463 92.835 44.9282 93.971 44.6331C97.5255 43.5399 101.328 43.5399 104.882 44.6331C107.605 45.4262 110.879 47.591 110.52 50.8704C110.477 51.4651 110.229 52.0267 109.82 52.4611C109.41 52.8955 108.863 53.1764 108.271 53.2567C107.662 56.7719 105.814 59.1725 103.492 61.716C101.932 63.4629 99.9634 64.7981 97.7609 65.6027C96.7769 65.9558 95.7314 66.1065 94.6875 66.0457V66.0457Z" fill="white"/>
<path d="M95.1317 66.4387H94.6875C94.1072 66.4387 93.5413 66.3458 92.9323 66.2743C92.5096 66.2243 92.0726 66.1743 91.5997 66.1315C89.9018 65.9886 88.8773 65.2884 88.8558 64.2595C88.883 63.7674 89.0521 63.2935 89.343 62.8949C89.5794 62.502 89.78 62.1804 89.694 61.8375C89.6291 61.6675 89.5345 61.5103 89.4146 61.3731C87.8919 59.3746 87.1734 56.8807 87.4 54.3809C87.6267 51.8811 88.7822 49.5562 90.6397 47.8625C90.4758 47.7019 90.3721 47.4901 90.346 47.2624C90.3377 47.0595 90.3701 46.8569 90.4415 46.6668C90.5129 46.4766 90.6217 46.3025 90.7615 46.1549C91.5918 45.2528 92.663 44.6059 93.8493 44.2902C97.4718 43.1783 101.346 43.1783 104.968 44.2902C108.164 45.219 111.223 47.6267 110.857 50.9133C110.801 51.5412 110.551 52.1361 110.14 52.6151C109.729 53.094 109.178 53.4332 108.565 53.5854C107.848 57.2006 105.799 59.7012 103.743 61.959C102.148 63.7494 100.132 65.1168 97.8756 65.9386C96.9969 66.2625 96.0685 66.4317 95.1317 66.4387V66.4387ZM91.2845 47.4053C91.3538 47.4044 91.422 47.4218 91.4824 47.4557C91.5428 47.4896 91.5931 47.5387 91.6284 47.5982C91.6723 47.6701 91.6898 47.7549 91.6781 47.8383C91.6663 47.9216 91.626 47.9984 91.5639 48.0554C89.6902 49.5742 88.4766 51.7557 88.1763 54.145C87.876 56.5344 88.5121 58.9471 89.952 60.8801C90.1457 61.1006 90.292 61.3583 90.3818 61.6375C90.4287 61.92 90.4152 62.2092 90.3424 62.4862C90.2696 62.7632 90.139 63.0218 89.9591 63.245C89.7467 63.5347 89.6134 63.8745 89.5723 64.231C89.5723 65.1812 91.3203 65.3741 91.6642 65.4098C92.1371 65.4098 92.5884 65.5027 93.0183 65.5527C93.6057 65.6242 94.1646 65.6885 94.7234 65.7099C95.7134 65.7704 96.7055 65.6294 97.6392 65.2955C99.783 64.5167 101.699 63.2178 103.213 61.516C105.763 58.7224 107.347 56.4719 107.906 53.2353C107.919 53.1543 107.959 53.0803 108.021 53.0257C108.082 52.9711 108.16 52.9391 108.242 52.9352C108.747 52.856 109.21 52.6088 109.556 52.234C109.902 51.8591 110.111 51.3785 110.148 50.8704C110.506 47.591 106.931 45.6405 104.768 45.0118C101.283 43.9432 97.5563 43.9432 94.0714 45.0118C93.0104 45.2813 92.0532 45.8581 91.3203 46.6694C91.161 46.8243 91.0663 47.0336 91.0553 47.2552C91.0614 47.2911 91.0747 47.3255 91.0944 47.3561C91.1141 47.3868 91.1397 47.4133 91.1699 47.4338L91.2845 47.4053Z" fill="#231F20"/>
<path d="M80.0579 87.1582C80.0579 87.1582 72.4781 102.548 73.0656 107.263C73.6531 111.979 89.3142 110.121 89.3142 110.121L88.4903 86.7438L80.0579 87.1582Z" fill="white"/>
<path d="M82.8521 110.85C82.3793 110.85 81.8921 110.85 81.4192 110.85C75.9314 110.679 73.0012 109.493 72.7218 107.335C72.0985 102.569 79.4347 87.6655 79.7428 87.0368C79.7724 86.9797 79.8164 86.9313 79.8704 86.8962C79.9244 86.8612 79.9866 86.8407 80.0509 86.8367L88.4832 86.4295C88.5302 86.4269 88.5773 86.4338 88.6216 86.4498C88.6659 86.4657 88.7066 86.4904 88.7411 86.5224C88.7772 86.5533 88.8061 86.5917 88.8259 86.6349C88.8457 86.678 88.8559 86.725 88.8558 86.7724L89.6725 110.121C89.6751 110.211 89.6444 110.299 89.5862 110.367C89.528 110.436 89.4465 110.48 89.3572 110.493C87.1963 110.721 85.0251 110.84 82.8521 110.85V110.85ZM80.2873 87.5155C79.4276 89.2802 72.8651 102.941 73.4239 107.22C73.9111 110.736 84.4784 110.307 88.9561 109.814L88.1465 87.1582L80.2873 87.5155Z" fill="#231F20"/>
<path d="M110.291 184.44L110.7 194.443C110.7 194.443 129.484 194.578 128.388 193.214C127.292 191.849 118.788 185.833 118.788 185.833L117.42 178.446L110.291 184.44Z" fill="white"/>
<path d="M113.114 194.793H110.7C110.607 194.793 110.518 194.757 110.451 194.693C110.384 194.629 110.345 194.542 110.341 194.45L109.933 184.447C109.931 184.394 109.941 184.34 109.962 184.291C109.983 184.241 110.015 184.197 110.055 184.162L117.219 178.146C117.267 178.106 117.325 178.079 117.386 178.068C117.448 178.057 117.511 178.061 117.57 178.081C117.628 178.104 117.679 178.141 117.719 178.188C117.759 178.236 117.787 178.292 117.799 178.353L119.146 185.598C120.221 186.362 127.636 191.642 128.696 192.964C128.759 193.039 128.799 193.131 128.811 193.229C128.824 193.326 128.809 193.425 128.768 193.514C128.223 194.586 119.59 194.793 113.114 194.793ZM111.043 194.078C118.587 194.121 126.626 193.835 127.973 193.271C126.769 192.014 121.382 188.091 118.58 186.126C118.543 186.101 118.511 186.068 118.486 186.03C118.461 185.992 118.445 185.949 118.437 185.905L117.176 179.125L110.657 184.633L111.043 194.078Z" fill="#231F20"/>
<path d="M113.694 114.308L120.98 187.184L108.916 187.455L95.2105 135.971L87.6164 187.898L73.6317 187.184C73.6317 187.184 76.0676 158.198 77.3356 147.174C78.6037 136.149 80.5667 117.066 80.5667 117.066L113.694 114.308Z" fill="#231F20"/>
<path d="M109.202 58.3795C109.202 58.3795 111.717 62.5163 111.129 63.3307C110.542 64.1452 108.729 63.5165 108.729 63.5165" fill="white"/>
<path d="M110.04 64.1024C109.553 64.0936 109.069 64.0092 108.608 63.8523C108.528 63.8145 108.466 63.7492 108.432 63.6686C108.398 63.588 108.395 63.4978 108.423 63.415C108.451 63.3322 108.509 63.2627 108.585 63.2195C108.662 63.1763 108.751 63.1625 108.837 63.1807C109.353 63.3522 110.506 63.5665 110.828 63.1164C111.151 62.6663 110.148 60.6372 108.887 58.5652C108.855 58.5254 108.832 58.4793 108.82 58.43C108.807 58.3806 108.806 58.3292 108.815 58.2791C108.824 58.229 108.843 58.1814 108.872 58.1396C108.901 58.0977 108.939 58.0625 108.983 58.0363C109.027 58.0101 109.075 57.9936 109.126 57.9878C109.177 57.9819 109.228 57.987 109.277 58.0026C109.325 58.0181 109.37 58.0439 109.408 58.0781C109.446 58.1123 109.476 58.1542 109.496 58.2009C110.291 59.5012 112.068 62.6306 111.416 63.5379C111.248 63.7339 111.035 63.8872 110.796 63.9854C110.557 64.0835 110.298 64.1236 110.04 64.1024V64.1024Z" fill="#231F20"/>
<path d="M108.837 53.0353C110.485 54.4642 109.876 57.3935 109.79 59.294C109.661 61.9661 109.475 64.6382 109.231 67.3103C109.073 68.9965 104.667 68.8679 103.908 68.332L104.345 75.0552L95.2249 71.1613L95.8195 63.4379C95.8195 63.4379 98.7282 63.5665 100.584 60.1799C102.439 56.7934 102.568 51.4777 102.568 51.4777C102.568 51.4777 107.232 51.6206 108.837 53.0353Z" fill="white"/>
<path d="M104.345 75.4124C104.298 75.4231 104.249 75.4231 104.202 75.4124L95.0886 71.5185C95.0198 71.4883 94.9617 71.438 94.9221 71.3743C94.8824 71.3105 94.8631 71.2363 94.8665 71.1613L95.4612 63.4379C95.4685 63.3457 95.5114 63.2599 95.5809 63.1986C95.6504 63.1373 95.741 63.1053 95.8337 63.1093C95.9412 63.1093 98.549 63.1736 100.268 60.037C102.059 56.7648 102.21 51.5492 102.21 51.4634C102.211 51.4161 102.221 51.3695 102.241 51.3264C102.261 51.2834 102.289 51.2449 102.325 51.2134C102.358 51.1795 102.398 51.1536 102.443 51.1375C102.488 51.1214 102.535 51.1156 102.582 51.1205C102.776 51.1205 107.39 51.2848 109.073 52.7709C110.578 54.0927 110.377 56.4147 110.22 58.2866C110.22 58.6438 110.162 59.0011 110.148 59.3083C110.019 61.9732 109.833 64.6739 109.589 67.3389C109.546 67.6228 109.424 67.8892 109.238 68.1086C109.052 68.328 108.809 68.4918 108.536 68.5821C107.179 69.0727 105.709 69.162 104.302 68.8393L104.717 75.0123C104.72 75.0604 104.713 75.1086 104.697 75.1539C104.681 75.1993 104.656 75.2409 104.623 75.2763C104.59 75.3117 104.55 75.3401 104.506 75.3598C104.462 75.3795 104.415 75.3901 104.366 75.391L104.345 75.4124ZM95.6045 70.9327L103.944 74.505L103.557 68.3606C103.549 68.2931 103.562 68.2249 103.594 68.165C103.626 68.105 103.676 68.0561 103.736 68.0248C103.793 67.9885 103.858 67.9692 103.926 67.9692C103.993 67.9692 104.059 67.9885 104.116 68.0248C105.462 68.4421 106.908 68.412 108.235 67.9391C108.636 67.7604 108.851 67.5318 108.873 67.2246C109.123 64.5739 109.31 61.8804 109.432 59.2297C109.432 58.901 109.474 58.5152 109.503 58.1723C109.654 56.4647 109.833 54.3427 108.6 53.2567C107.354 52.1565 104.008 51.8707 102.912 51.8278C102.848 53.1067 102.511 57.3792 100.899 60.33C99.2869 63.2807 97.023 63.688 96.149 63.7594L95.6045 70.9327Z" fill="#231F20"/>
<path d="M122.829 89.5088C122.829 89.5088 112.047 78.1488 107.784 73.8763C103.822 69.9181 92.3019 66.3172 87.0576 71.9901C87.0576 71.9901 78.4605 83.986 76.7769 90.9592L81.7919 94.0386C80.6941 102.302 80.0483 110.619 79.8576 118.952C89.3717 126.454 113.694 114.308 113.694 114.308L111.495 97.1608L115.428 101.09L122.829 89.5088Z" fill="#F6CA1C"/>
<path d="M109.245 65.3098C109.245 65.3098 107.096 66.503 106.093 64.3167Z" fill="white"/>
<path d="M107.963 65.9957C107.72 65.994 107.479 65.958 107.246 65.8885C106.912 65.7688 106.606 65.5795 106.351 65.3331C106.095 65.0868 105.895 64.789 105.763 64.4596C105.744 64.4169 105.733 64.3707 105.731 64.3238C105.729 64.2768 105.736 64.2299 105.752 64.1858C105.769 64.1416 105.794 64.1012 105.826 64.0666C105.858 64.0321 105.896 64.0042 105.939 63.9845C105.982 63.9648 106.028 63.9537 106.075 63.9518C106.122 63.9499 106.169 63.9573 106.213 63.9736C106.258 63.9898 106.298 64.0146 106.333 64.0465C106.368 64.0784 106.396 64.1168 106.415 64.1595C106.508 64.3952 106.649 64.609 106.829 64.7874C107.009 64.9658 107.224 65.1047 107.461 65.1955C108.004 65.3259 108.575 65.2522 109.066 64.9883C109.15 64.9445 109.248 64.9349 109.339 64.9615C109.43 64.9882 109.507 65.049 109.553 65.1312C109.577 65.1712 109.592 65.2157 109.599 65.2618C109.605 65.308 109.601 65.3549 109.588 65.3997C109.576 65.4445 109.554 65.4862 109.524 65.5223C109.495 65.5585 109.459 65.5883 109.417 65.6099C108.971 65.8534 108.472 65.9858 107.963 65.9957V65.9957Z" fill="#231F20"/>
<path d="M104.001 59.9013C103.951 59.2289 103.716 58.5834 103.32 58.0365C103.079 57.5743 102.768 57.1524 102.396 56.7862C102.21 56.6012 101.985 56.4602 101.737 56.3737C101.489 56.2871 101.224 56.2572 100.963 56.2861C100.736 56.3351 100.522 56.4309 100.335 56.5675C100.147 56.7041 99.9902 56.8784 99.8744 57.0791C99.6524 57.4846 99.5205 57.933 99.4875 58.3938C99.4075 59.397 99.5923 60.4037 100.023 61.3137C100.454 62.2237 101.117 63.0053 101.945 63.5808L101.802 63.4165" fill="white"/>
<path d="M101.945 63.9452C101.873 63.9457 101.802 63.9232 101.744 63.8809C100.862 63.2686 100.157 62.4364 99.6979 61.4674C99.2391 60.4983 99.043 59.4262 99.1293 58.3581C99.1681 57.8555 99.3173 57.3677 99.5663 56.9291C99.7044 56.6832 99.8945 56.4703 100.123 56.3049C100.352 56.1396 100.614 56.0259 100.892 55.9717C101.206 55.9319 101.526 55.964 101.826 56.0655C102.127 56.167 102.4 56.3353 102.625 56.5576C103.02 56.9402 103.354 57.3812 103.614 57.8651C104.043 58.4696 104.292 59.1831 104.331 59.9227C104.331 60.0175 104.293 60.1083 104.226 60.1753C104.158 60.2423 104.067 60.28 103.972 60.28C103.877 60.28 103.786 60.2423 103.719 60.1753C103.652 60.1083 103.614 60.0175 103.614 59.9227C103.565 59.3154 103.347 58.7338 102.984 58.2437C102.76 57.8148 102.473 57.4222 102.131 57.0792C101.983 56.9335 101.806 56.8216 101.61 56.7513C101.415 56.681 101.206 56.6539 100.999 56.6719C100.823 56.7102 100.657 56.7855 100.513 56.8926C100.368 56.9998 100.248 57.1365 100.161 57.2935C99.964 57.6497 99.849 58.045 99.8242 58.4509C99.7549 59.3286 99.9006 60.21 100.249 61.019C100.597 61.828 101.137 62.5405 101.823 63.095C101.914 63.1044 101.999 63.1478 102.059 63.2164L102.203 63.3808C102.26 63.446 102.292 63.5298 102.292 63.6165C102.292 63.7033 102.26 63.7871 102.203 63.8523C102.168 63.8839 102.127 63.9084 102.083 63.9243C102.039 63.9403 101.992 63.9474 101.945 63.9452V63.9452Z" fill="#231F20"/>
<path d="M103.908 68.332C102.615 67.8601 101.486 67.0267 100.655 65.9314C100.655 65.9314 100.655 70.011 104.101 71.3256L103.908 68.332Z" fill="#231F20"/>
<path d="M104.101 71.6829H103.972C100.333 70.2968 100.297 65.9671 100.297 65.9671C100.296 65.8895 100.321 65.8138 100.367 65.7517C100.414 65.6896 100.48 65.6448 100.555 65.6242C100.63 65.6034 100.71 65.6075 100.782 65.6359C100.854 65.6642 100.915 65.7153 100.956 65.7814C101.741 66.7895 102.797 67.555 104.001 67.9891C104.067 68.0127 104.124 68.055 104.166 68.1109C104.208 68.1668 104.233 68.2337 104.237 68.3034L104.431 71.3042C104.434 71.3631 104.422 71.4219 104.397 71.4754C104.372 71.5289 104.335 71.5756 104.288 71.6114C104.234 71.6535 104.169 71.6784 104.101 71.6829V71.6829ZM101.135 67.0674C101.263 67.8299 101.56 68.5542 102.005 69.1872C102.45 69.8202 103.032 70.3458 103.707 70.7255L103.571 68.5821C102.677 68.2216 101.853 67.7091 101.135 67.0674V67.0674Z" fill="#231F20"/>
<path d="M111.796 98.3682C111.699 98.368 111.606 98.3295 111.538 98.2611C108.803 95.4439 106.222 92.4817 103.808 89.3874C103.752 89.3109 103.729 89.2162 103.742 89.1229C103.756 89.0297 103.805 88.9452 103.879 88.8872C103.955 88.8304 104.051 88.806 104.145 88.8194C104.239 88.8328 104.324 88.8829 104.381 88.9587C106.777 92.0309 109.339 94.9717 112.054 97.7681C112.087 97.8007 112.114 97.8396 112.132 97.8825C112.15 97.9255 112.159 97.9716 112.159 98.0181C112.159 98.0647 112.15 98.1108 112.132 98.1538C112.114 98.1967 112.087 98.2356 112.054 98.2682C112.02 98.3022 111.98 98.3286 111.935 98.3459C111.891 98.3631 111.843 98.3707 111.796 98.3682V98.3682Z" fill="#231F20"/>
<path d="M95.0098 134.885C94.9262 134.888 94.8442 134.86 94.7806 134.806C94.5943 134.656 90.3316 131.034 90.3101 125.318C90.31 125.224 90.3468 125.135 90.4124 125.068C90.4781 125.001 90.5673 124.963 90.6611 124.961C90.7078 124.961 90.7541 124.97 90.7971 124.988C90.8402 125.006 90.8792 125.033 90.9119 125.066C90.9446 125.099 90.9703 125.138 90.9875 125.182C91.0047 125.225 91.0131 125.271 91.0122 125.318C91.0122 130.698 95.1889 134.227 95.2319 134.256C95.3041 134.318 95.3489 134.406 95.357 134.501C95.365 134.596 95.3355 134.69 95.2749 134.763C95.2412 134.8 95.2003 134.83 95.1548 134.851C95.1092 134.872 95.0599 134.883 95.0098 134.885V134.885Z" fill="white"/>
<path d="M108.115 56.551C108.224 56.0334 108.145 55.5792 107.94 55.5364C107.735 55.4936 107.48 55.8784 107.372 56.396C107.263 56.9135 107.342 57.3678 107.547 57.4106C107.752 57.4534 108.007 57.0685 108.115 56.551Z" fill="#231F20"/>
<path d="M81.7058 91.9309H81.6485C81.5551 91.9134 81.4722 91.8604 81.4174 91.7831C81.3625 91.7057 81.3401 91.6101 81.3547 91.5165C81.4335 90.9949 83.4467 78.6918 85.7106 74.5836C85.733 74.5421 85.7635 74.5056 85.8004 74.4762C85.8373 74.4468 85.8797 74.4251 85.9252 74.4124C85.9707 74.3997 86.0183 74.3963 86.0651 74.4024C86.1119 74.4085 86.1571 74.424 86.1978 74.4479C86.2391 74.4695 86.2756 74.4993 86.305 74.5354C86.3345 74.5715 86.3562 74.6133 86.369 74.658C86.3817 74.7028 86.3851 74.7497 86.3791 74.7959C86.3731 74.8421 86.3577 74.8865 86.3339 74.9266C84.1345 78.9276 82.0783 91.5022 82.0353 91.6308C82.0238 91.7112 81.9846 91.785 81.9245 91.8398C81.8644 91.8945 81.7871 91.9267 81.7058 91.9309V91.9309Z" fill="#231F20"/>
<path d="M216.595 147.174C216.685 145.824 216.398 144.476 215.764 143.28C215.241 142.415 214.438 141.729 214.008 140.815C213.292 139.229 213.786 137.364 213.614 135.628C213.459 134.171 212.815 132.809 211.787 131.762C210.878 130.848 209.703 130.212 208.829 129.255C207.396 127.683 206.994 125.475 206.185 123.539C205.023 120.765 203.019 118.423 200.453 116.844C202.008 119.967 198.462 123.939 200.074 127.033C200.582 128.019 201.55 128.733 201.929 129.776C202.825 132.284 199.823 135.006 200.783 137.5C201.263 138.743 202.603 139.464 203.226 140.643C204.064 142.229 203.405 144.166 203.47 145.959C203.563 148.438 205.074 150.653 206.873 152.389C207.99 153.454 209.237 154.383 210.455 155.347C211.888 156.504 212.511 157.712 213.779 155.861C215.546 153.301 216.524 150.281 216.595 147.174Z" fill="#231F20"/>
<path d="M218.207 148.602C217.741 146.688 217.411 144.601 218.207 142.794C219.088 140.75 221.302 139.3 221.559 137.078C221.731 135.649 220.994 134.156 221.28 132.727C221.567 131.298 222.713 130.319 223.709 129.262C225.935 126.821 227.259 123.696 227.463 120.402C228.957 122.17 230.165 124.158 231.045 126.297C231.804 128.476 231.819 131.034 230.522 132.948C230.152 133.393 229.848 133.889 229.619 134.42C229.182 135.849 230.393 137.15 231.016 138.493C231.387 139.257 231.542 140.108 231.465 140.954C231.388 141.8 231.082 142.609 230.579 143.294C229.304 144.873 226.861 145.487 226.231 147.409C226.076 148.128 226.004 148.861 226.016 149.596C225.88 150.868 225.368 152.071 224.543 153.051C223.719 154.031 222.62 154.743 221.388 155.097C219.89 155.461 219.919 154.868 219.647 153.604C219.267 151.918 218.629 150.281 218.207 148.602Z" fill="#231F20"/>
<path d="M213.421 134.806C212.353 131.127 211.931 127.276 210.806 123.61C209.848 120.747 208.68 117.957 207.31 115.265L211.888 117.187C213.356 117.809 214.947 118.538 215.642 119.967C216.845 122.46 214.682 125.682 215.95 128.119C216.498 128.918 217.104 129.678 217.762 130.391C219.109 132.277 218.901 134.878 218.163 137.071C217.841 138.014 216.458 142.901 215.219 141.544C214.717 141.001 214.674 138.979 214.467 138.236C214.144 137.085 213.757 135.956 213.421 134.806Z" fill="#231F20"/>
<path d="M215.964 183.726C215.047 177.703 212.181 156.462 212.181 156.276L212.898 156.183C212.898 156.397 215.764 177.617 216.702 183.619L215.964 183.726Z" fill="#231F20"/>
<path d="M216.96 189.413H216.243C216.301 182.268 219.281 154.976 221.001 153.104L221.531 153.589C220.384 154.825 217.032 179.625 216.96 189.413Z" fill="#231F20"/>
<path d="M218.515 188.048H217.798C218.515 172.637 215.205 140.272 215.169 139.95L215.885 139.872C215.921 140.172 219.202 172.587 218.515 188.048Z" fill="#231F20"/>
<path d="M208.076 166.464H225.127L223.938 185.755C223.73 189.099 221.244 191.692 218.25 191.692H214.954C211.959 191.692 209.48 189.099 209.273 185.755L208.076 166.464Z" fill="white"/>
<path d="M218.249 192.092H214.954C211.78 192.092 209.122 189.334 208.9 185.812L207.711 166.521C207.707 166.471 207.713 166.421 207.73 166.373C207.747 166.326 207.773 166.282 207.807 166.245C207.842 166.208 207.883 166.179 207.929 166.159C207.976 166.139 208.026 166.128 208.076 166.128H225.127C225.229 166.13 225.327 166.171 225.399 166.243C225.467 166.32 225.503 166.419 225.5 166.521L224.303 185.812C224.088 189.327 221.43 192.092 218.249 192.092ZM208.47 166.85L209.638 185.755C209.831 188.891 212.167 191.342 214.954 191.342H218.249C221.036 191.342 223.372 188.891 223.565 185.755L224.733 166.836L208.47 166.85Z" fill="#231F20"/>
<path d="M225.192 99.64H190.144L198.046 40.875H233.094L225.192 99.64Z" fill="white"/>
<path d="M225.192 100.019H190.144C190.094 100.019 190.044 100.008 189.998 99.9873C189.952 99.9664 189.912 99.9356 189.879 99.8972C189.844 99.8605 189.818 99.8162 189.803 99.7679C189.788 99.7196 189.785 99.6685 189.793 99.6186L197.674 40.8464C197.687 40.7612 197.731 40.6836 197.796 40.6273C197.862 40.5711 197.945 40.5398 198.032 40.5392H233.08C233.131 40.5397 233.182 40.5507 233.228 40.5716C233.275 40.5925 233.317 40.6228 233.352 40.6607C233.416 40.7413 233.447 40.8437 233.438 40.9465L225.557 99.7114C225.543 99.7979 225.499 99.8765 225.432 99.9329C225.365 99.9893 225.279 100.02 225.192 100.019ZM190.552 99.3042H224.876L232.686 41.2537H198.362L190.552 99.3042Z" fill="#231F20"/>
<path d="M219.267 90.9163H199.135C198.801 90.9242 198.47 90.8584 198.164 90.7234C197.859 90.5885 197.587 90.3878 197.369 90.1358C197.15 89.8838 196.991 89.5867 196.901 89.2659C196.811 88.945 196.794 88.6083 196.85 88.28L197.122 86.2294C197.235 85.5098 197.598 84.8523 198.146 84.3708C198.694 83.8894 199.394 83.6142 200.124 83.593H220.248C220.583 83.5839 220.915 83.6489 221.221 83.7834C221.527 83.9179 221.799 84.1186 222.018 84.3709C222.236 84.6232 222.396 84.9208 222.485 85.2423C222.575 85.5637 222.591 85.9009 222.534 86.2294L222.261 88.28C222.151 88.9996 221.791 89.6577 221.243 90.1396C220.696 90.6214 219.997 90.8963 219.267 90.9163V90.9163Z" fill="#F6CA1C"/>
<path d="M220.714 80.1207H200.59C200.255 80.1299 199.923 80.0649 199.617 79.9304C199.311 79.7959 199.039 79.5952 198.82 79.3429C198.601 79.0906 198.442 78.7929 198.352 78.4715C198.263 78.1501 198.247 77.8129 198.304 77.4844L198.576 75.4338C198.687 74.713 199.049 74.054 199.597 73.572C200.146 73.09 200.847 72.8159 201.578 72.7974H221.703C222.037 72.7896 222.368 72.8554 222.674 72.9904C222.979 73.1253 223.251 73.326 223.469 73.578C223.687 73.83 223.847 74.1271 223.937 74.4479C224.027 74.7688 224.044 75.1055 223.988 75.4338L223.716 77.4844C223.602 78.204 223.24 78.8615 222.692 79.343C222.144 79.8244 221.444 80.0996 220.714 80.1207Z" fill="white"/>
<path d="M220.714 80.478H200.59C200.208 80.4847 199.829 80.4091 199.479 80.2561C199.129 80.1032 198.816 79.8767 198.562 79.592C198.311 79.2998 198.126 78.9571 198.02 78.5873C197.913 78.2174 197.888 77.8291 197.946 77.4486L198.225 75.3981C198.351 74.5938 198.755 73.8589 199.367 73.321C199.98 72.7832 200.762 72.4766 201.578 72.4545H221.703C222.085 72.4477 222.464 72.5234 222.814 72.6763C223.163 72.8292 223.476 73.0558 223.73 73.3404C223.98 73.6331 224.165 73.9759 224.271 74.3456C224.377 74.7153 224.403 75.1034 224.346 75.4838L224.067 77.5344C223.941 78.3386 223.537 79.0736 222.925 79.6114C222.312 80.1492 221.53 80.4559 220.714 80.478V80.478ZM201.578 73.1547C200.935 73.1722 200.318 73.4141 199.835 73.8384C199.352 74.2626 199.033 74.8424 198.935 75.4767L198.655 77.5272C198.611 77.809 198.628 78.097 198.704 78.3718C198.781 78.6466 198.916 78.9018 199.099 79.1205C199.287 79.3282 199.517 79.4932 199.774 79.6041C200.031 79.7151 200.309 79.7695 200.59 79.7635H220.714C221.358 79.7457 221.976 79.5028 222.459 79.0771C222.943 78.6514 223.26 78.07 223.358 77.4343L223.637 75.3838C223.682 75.1015 223.664 74.8129 223.586 74.5378C223.508 74.2628 223.372 74.0079 223.186 73.7905C222.999 73.5847 222.769 73.4213 222.514 73.3116C222.258 73.2019 221.981 73.1484 221.703 73.1547H201.578Z" fill="#D1D3D4"/>
<path d="M222.168 69.2965H202.044C201.71 69.3055 201.377 69.2404 201.071 69.1059C200.765 68.9715 200.492 68.7709 200.273 68.5188C200.054 68.2667 199.893 67.9692 199.803 67.6478C199.713 67.3264 199.695 66.9891 199.752 66.6602L200.031 64.6096C200.14 63.8894 200.5 63.2305 201.048 62.7484C201.595 62.2664 202.295 61.9919 203.026 61.9732H223.15C223.485 61.9643 223.817 62.0294 224.123 62.1638C224.429 62.2983 224.702 62.4988 224.921 62.751C225.14 63.0031 225.301 63.3006 225.391 63.6219C225.481 63.9433 225.499 64.2807 225.443 64.6096L225.163 66.6602C225.054 67.3804 224.694 68.0393 224.147 68.5214C223.599 69.0034 222.899 69.2779 222.168 69.2965V69.2965Z" fill="white"/>
<path d="M222.168 69.6752H202.044C201.658 69.6849 201.275 69.6092 200.922 69.4537C200.569 69.2981 200.255 69.0666 200.002 68.7756C199.749 68.4847 199.564 68.1415 199.46 67.7708C199.356 67.4001 199.336 67.0111 199.4 66.6316L199.673 64.5811C199.799 63.7774 200.204 63.0432 200.816 62.5056C201.429 61.968 202.21 61.6609 203.026 61.6374H223.15C223.536 61.6278 223.919 61.7035 224.272 61.859C224.625 62.0145 224.939 62.2461 225.192 62.537C225.445 62.828 225.63 63.1711 225.734 63.5418C225.838 63.9125 225.858 64.3016 225.794 64.6811L225.521 66.7316C225.395 67.5353 224.99 68.2695 224.378 68.8071C223.765 69.3446 222.984 69.6517 222.168 69.6752V69.6752ZM203.026 62.3519C202.381 62.3711 201.764 62.6145 201.282 63.04C200.799 63.4654 200.48 64.046 200.382 64.6811L200.11 66.7316C200.066 67.0123 200.083 67.299 200.16 67.5725C200.236 67.8461 200.371 68.1002 200.554 68.3177C200.741 68.5254 200.971 68.6904 201.229 68.8014C201.486 68.9124 201.764 68.9667 202.044 68.9607H222.168C222.813 68.9416 223.43 68.6982 223.912 68.2727C224.395 67.8472 224.714 67.2666 224.812 66.6316L225.077 64.5811C225.128 64.3028 225.115 64.0169 225.04 63.7442C224.965 63.4715 224.83 63.2189 224.645 63.0051C224.459 62.7913 224.228 62.6217 223.968 62.5087C223.708 62.3956 223.426 62.3421 223.143 62.3519H203.026Z" fill="#D1D3D4"/>
<path d="M223.644 58.5152H203.513C203.179 58.5231 202.847 58.4572 202.542 58.3223C202.236 58.1873 201.965 57.9867 201.746 57.7347C201.528 57.4827 201.368 57.1856 201.278 56.8647C201.189 56.5439 201.171 56.2072 201.227 55.8788L201.5 53.8283C201.612 53.1081 201.973 52.4498 202.522 51.9681C203.07 51.4864 203.771 51.2117 204.501 51.1919H224.626C224.96 51.1827 225.292 51.2477 225.598 51.3823C225.904 51.5168 226.177 51.7175 226.395 51.9698C226.614 52.2221 226.774 52.5197 226.863 52.8411C226.952 53.1626 226.969 53.4998 226.911 53.8283L226.639 55.8788C226.528 56.5985 226.168 57.2566 225.621 57.7384C225.074 58.2202 224.374 58.4952 223.644 58.5152Z" fill="white"/>
<path d="M223.644 58.8725H203.513C203.122 58.8866 202.734 58.8145 202.374 58.6613C202.015 58.5082 201.695 58.2777 201.435 57.9865C201.185 57.6936 201.001 57.3508 200.895 56.9812C200.789 56.6116 200.763 56.2235 200.819 55.8431L201.098 53.7926C201.222 52.987 201.626 52.2504 202.238 51.7111C202.851 51.1719 203.634 50.8642 204.451 50.8418H224.576C224.958 50.8341 225.337 50.9094 225.687 51.0623C226.037 51.2153 226.35 51.4424 226.603 51.7278C226.854 52.02 227.039 52.3627 227.145 52.7325C227.252 53.1024 227.277 53.4908 227.219 53.8712L226.947 55.9217C226.823 56.7185 226.427 57.4481 225.825 57.9861C225.223 58.5241 224.452 58.8373 223.644 58.8725V58.8725ZM204.48 51.5492C203.836 51.5683 203.219 51.8118 202.736 52.2372C202.253 52.6627 201.935 53.2433 201.836 53.8783L201.564 55.9289C201.514 56.2065 201.526 56.4918 201.601 56.764C201.675 57.0361 201.81 57.2882 201.994 57.5019C202.179 57.7156 202.409 57.8854 202.668 57.9989C202.927 58.1124 203.208 58.1668 203.491 58.158H223.644C224.286 58.1389 224.902 57.8962 225.383 57.4721C225.865 57.048 226.182 56.4691 226.281 55.836L226.56 53.7855C226.604 53.5037 226.587 53.2157 226.511 52.9409C226.434 52.6661 226.3 52.4108 226.116 52.1922C225.929 51.9845 225.698 51.8195 225.441 51.7085C225.184 51.5976 224.906 51.5432 224.626 51.5492H204.48Z" fill="#D1D3D4"/>
<path d="M222.806 46.7408H207.374C207.279 46.7408 207.188 46.7032 207.121 46.6362C207.054 46.5692 207.016 46.4783 207.016 46.3836C207.018 46.2894 207.056 46.1996 207.123 46.133C207.19 46.0664 207.28 46.0282 207.374 46.0263H222.806C222.901 46.0263 222.992 46.064 223.059 46.131C223.127 46.198 223.164 46.2888 223.164 46.3836C223.164 46.4305 223.155 46.4769 223.137 46.5203C223.119 46.5636 223.093 46.603 223.059 46.6362C223.026 46.6693 222.987 46.6957 222.943 46.7136C222.9 46.7316 222.853 46.7408 222.806 46.7408Z" fill="#D1D3D4"/>
</svg>
