<?xml version="1.0" encoding="utf-8"?>
<!-- Generator: Adobe Illustrator 26.0.0, SVG Export Plug-In . SVG Version: 6.00 Build 0)  -->
<svg version="1.1" id="圖層_1" xmlns="http://www.w3.org/2000/svg" xmlns:xlink="http://www.w3.org/1999/xlink" x="0px" y="0px"
	 viewBox="0 0 8 12" style="enable-background:new 0 0 8 12;" xml:space="preserve">
<style type="text/css">
	.st0{fill:#FFFFFF;}
</style>
<path class="st0" d="M0.8,11.4c-0.1-0.2-0.2-0.3-0.2-0.5c0-0.2,0.1-0.4,0.2-0.5L5.2,6L0.8,1.5C0.7,1.4,0.6,1.2,0.6,1
	c0-0.2,0.1-0.4,0.2-0.5C1,0.3,1.2,0.2,1.4,0.2c0.2,0,0.4,0.1,0.5,0.2l5,5C7,5.5,7,5.6,7,5.7c0,0.1,0,0.2,0,0.3c0,0.1,0,0.2,0,0.3
	C7,6.3,7,6.4,6.9,6.5l-4.9,4.9c-0.1,0.2-0.3,0.2-0.5,0.2S1,11.6,0.8,11.4z"/>
</svg>
