<svg width="306" height="230" viewBox="0 0 306 230" fill="none" xmlns="http://www.w3.org/2000/svg">
<path d="M186.02 49.8277C187.357 48.522 189.073 46.2338 187.577 44.3303C187.184 43.8355 186.606 43.4988 186.289 42.9559C186.042 42.326 185.902 41.6595 185.875 40.9837C185.455 38.5649 183.119 36.95 180.756 36.1735C178.392 35.397 174.733 34.7373 172.487 36.1735C170.358 37.5479 169.427 40.3859 167.05 41.5266C164.142 42.901 160.16 40.8394 157.665 42.8529C156.832 43.54 156.328 44.5777 155.419 45.1618C154.617 45.5836 153.721 45.7941 152.814 45.7733C148.508 46.007 143.65 45.9177 140.604 48.9618C137.559 52.006 137.655 56.9262 138.627 61.1042C138.999 63.0532 139.763 64.9069 140.873 66.5535C141.799 67.7074 142.946 68.6661 144.248 69.3739C145.549 70.0817 146.978 70.5245 148.453 70.6765C152.842 71.2331 157.734 70.6765 159.56 66.1962C159.974 65.1791 160.249 64.0453 161.021 63.2757C162.751 61.5783 165.707 62.671 168.015 61.9013C171.936 60.6438 172.632 54.7547 176.477 53.2567C180.115 51.8892 182.974 52.7963 186.02 49.8277Z" fill="white"/>
<path d="M151.126 71.2125C150.22 71.209 149.316 71.1471 148.418 71.027C146.898 70.8724 145.425 70.4165 144.084 69.686C142.743 68.9556 141.562 67.9653 140.611 66.7734C139.475 65.0939 138.689 63.2031 138.303 61.2141C137.407 57.366 137.035 52.0816 140.37 48.7557C143.216 45.9108 147.446 45.7115 151.546 45.526C151.967 45.526 152.387 45.526 152.8 45.4641C153.649 45.4889 154.489 45.2948 155.24 44.9006C155.697 44.5746 156.098 44.1753 156.425 43.7187C156.728 43.3181 157.072 42.9497 157.452 42.6192C158.912 41.4304 160.814 41.5472 162.647 41.664C164.128 41.7534 165.658 41.8496 166.912 41.2449C168.082 40.5703 169.074 39.6282 169.806 38.4962C170.491 37.5045 171.336 36.6336 172.308 35.9193C174.919 34.2082 179.157 35.3077 180.852 35.8574C183.822 36.8195 185.827 38.7092 186.206 40.915C186.24 41.1143 186.261 41.3205 186.282 41.5197C186.297 41.9549 186.401 42.3825 186.585 42.7773C186.764 43.0541 186.985 43.3021 187.239 43.5125C187.456 43.6967 187.657 43.899 187.839 44.1173C189.086 45.6978 188.528 47.8692 186.254 50.0682C184.235 52.0335 182.285 52.3633 180.225 52.7138C178.991 52.8858 177.778 53.1876 176.607 53.614C174.83 54.3012 173.762 55.9916 172.638 57.7783C171.515 59.5649 170.247 61.5852 168.125 62.2586C167.135 62.5215 166.11 62.6304 165.086 62.5816C163.612 62.5816 162.213 62.5816 161.269 63.5299C160.748 64.1246 160.368 64.8294 160.16 65.5914C160.07 65.8319 159.98 66.0725 159.884 66.313C158.582 69.5221 155.57 71.2125 151.126 71.2125ZM161 42.2825C159.896 42.1968 158.798 42.5035 157.899 43.1483C157.554 43.4508 157.24 43.7869 156.962 44.1516C156.581 44.6698 156.115 45.1205 155.584 45.4847C154.74 45.9456 153.791 46.1822 152.828 46.1719L151.56 46.2338C147.598 46.4124 143.498 46.6048 140.845 49.2573C137.614 52.5145 138.303 58.0463 138.992 61.063C139.357 62.9656 140.099 64.7763 141.176 66.3886C142.074 67.503 143.187 68.4271 144.448 69.1068C145.71 69.7866 147.094 70.2081 148.521 70.3467C152.428 70.8483 157.479 70.5116 159.264 66.0793C159.36 65.8526 159.443 65.6189 159.532 65.3922C159.775 64.5273 160.211 63.7285 160.807 63.0558C161.951 61.9357 163.563 61.9288 165.107 61.9151C166.058 61.9606 167.01 61.8633 167.932 61.6264C169.813 61.0286 170.916 59.2832 172.066 57.4347C173.217 55.5862 174.375 53.7652 176.359 52.9955C177.573 52.5488 178.832 52.2354 180.115 52.061C182.182 51.7105 183.911 51.415 185.779 49.594C186.936 48.4671 188.68 46.3093 187.301 44.5639C187.144 44.3741 186.971 44.1972 186.785 44.0348C186.473 43.7821 186.206 43.4803 185.992 43.1415C185.759 42.6652 185.628 42.1456 185.606 41.6159C185.606 41.4235 185.565 41.238 185.538 41.0525C185.2 39.1009 183.374 37.4104 180.645 36.5309C179.398 36.1254 175.133 34.9229 172.693 36.5309C171.786 37.2049 170.996 38.0247 170.358 38.9566C169.56 40.1557 168.494 41.1532 167.243 41.8702C165.83 42.5574 164.204 42.4474 162.64 42.3512C162.061 42.3169 161.524 42.2825 161 42.2825V42.2825Z" fill="#231F20"/>
<path d="M108.239 51.0371L108.156 45.4023H113.193L113.889 52.3496L108.239 51.0371Z" fill="white"/>
<path d="M113.896 52.6932H113.814L108.163 51.3807C108.09 51.363 108.024 51.322 107.975 51.2637C107.927 51.2055 107.898 51.1333 107.895 51.0577L107.812 45.4229C107.811 45.3772 107.819 45.3318 107.836 45.2893C107.853 45.2468 107.878 45.2081 107.91 45.1755C107.942 45.1428 107.981 45.1169 108.023 45.0992C108.065 45.0815 108.111 45.0724 108.156 45.0724H113.193C113.278 45.0721 113.36 45.1038 113.423 45.1611C113.486 45.2185 113.524 45.2972 113.531 45.3816L114.22 52.329C114.227 52.3824 114.22 52.4366 114.201 52.4869C114.182 52.5373 114.15 52.5821 114.11 52.6176C114.049 52.6647 113.974 52.6912 113.896 52.6932V52.6932ZM108.584 50.7622L113.497 51.9029L112.87 45.7184H108.501L108.584 50.7622Z" fill="#231F20"/>
<path d="M113.193 45.4023L113.882 41.8496C113.882 41.8496 102.547 38.2557 103.161 39.9736C103.774 41.6915 108.17 45.4366 108.17 45.4366L113.193 45.4023Z" fill="#231F20"/>
<path d="M113.194 45.7459H108.156C108.076 45.7434 107.998 45.7144 107.936 45.6634C107.75 45.5053 103.45 41.8015 102.823 40.0561C102.78 39.9505 102.769 39.8349 102.789 39.7229C102.81 39.6109 102.862 39.5072 102.94 39.4239C103.877 38.4549 110.982 40.5714 113.965 41.4854C114.044 41.5121 114.111 41.5666 114.153 41.6386C114.195 41.7107 114.209 41.7954 114.193 41.8771L113.497 45.471C113.483 45.5436 113.446 45.6099 113.392 45.6595C113.337 45.7092 113.267 45.7395 113.194 45.7459V45.7459ZM108.287 45.0587H112.911L113.497 42.0832C109.169 40.7089 104.291 39.5475 103.492 39.8705C104.015 41.183 107.026 43.9729 108.287 45.0587Z" fill="#231F20"/>
<path d="M105.559 74.5384C105.559 73.9956 107.543 49.6696 107.543 49.6696C107.543 49.6696 114.951 49.3123 114.771 49.6696C114.592 50.0269 116.577 74.5384 116.577 74.5384H105.559Z" fill="#231F20"/>
<path d="M116.577 74.8821H105.552C105.459 74.8804 105.37 74.8435 105.304 74.779C105.241 74.7144 105.207 74.6281 105.207 74.5385C105.207 73.9887 107.116 50.6386 107.192 49.6422C107.2 49.5587 107.238 49.481 107.298 49.423C107.359 49.365 107.439 49.3306 107.523 49.3261C114.737 48.9756 114.923 49.2642 115.054 49.4566C115.102 49.5446 115.117 49.6472 115.095 49.7452C115.019 50.5424 116.143 64.973 116.914 74.4835C116.92 74.5789 116.888 74.6727 116.825 74.7446C116.795 74.7832 116.758 74.8152 116.715 74.8389C116.672 74.8625 116.625 74.8772 116.577 74.8821V74.8821ZM105.917 74.1949H116.205C114.689 55.435 114.441 50.9959 114.434 49.8964C113.648 49.8002 110.665 49.8964 107.86 49.9995C107.219 57.8401 106.089 71.8035 105.917 74.1949Z" fill="#231F20"/>
<path d="M182.141 57.6477C182.141 57.6477 178.13 51.683 178.861 49.9513C179.591 48.2197 180.687 47.0309 181.617 47.3332C182.547 47.6356 185.103 55.49 185.103 55.49L182.141 57.6477Z" fill="white"/>
<path d="M182.141 57.9913H182.079C181.987 57.9746 181.905 57.9228 181.851 57.847C181.431 57.2217 177.765 51.6624 178.544 49.8277C179.412 47.7662 180.659 46.6667 181.713 47.0171C182.768 47.3676 184.628 52.9818 185.414 55.3869C185.437 55.4558 185.438 55.5306 185.416 55.6C185.394 55.6693 185.349 55.7296 185.29 55.7717L182.34 57.9295C182.283 57.9725 182.212 57.9944 182.141 57.9913V57.9913ZM181.3 47.6287C180.666 47.6287 179.805 48.6045 179.178 50.0888C178.723 51.1746 180.728 54.899 182.223 57.1598L184.683 55.3594C183.491 51.7655 181.996 47.9517 181.479 47.6562C181.421 47.637 181.361 47.6277 181.3 47.6287V47.6287Z" fill="#231F20"/>
<path d="M89.3658 53.8614L86.3271 49.1886L82.048 52.3152L84.5975 57.3591L89.3658 53.8614Z" fill="white"/>
<path d="M84.5976 57.7027H84.5149C84.466 57.6895 84.4204 57.6662 84.3812 57.6342C84.342 57.6023 84.3101 57.5623 84.2875 57.5172L81.738 52.4733C81.7023 52.4004 81.6931 52.3173 81.7119 52.2384C81.7308 52.1594 81.7765 52.0894 81.8413 52.0404L86.1273 48.9069C86.2032 48.8531 86.2971 48.8309 86.3891 48.845C86.4356 48.8526 86.48 48.87 86.5192 48.8961C86.5584 48.9222 86.5916 48.9563 86.6165 48.9962L89.6552 53.6621C89.7044 53.7357 89.7232 53.8253 89.7078 53.9123C89.6924 53.9993 89.6439 54.077 89.5726 54.1294L84.7974 57.6271C84.7419 57.6751 84.671 57.7019 84.5976 57.7027V57.7027ZM82.489 52.4183L84.7216 56.8437L88.9042 53.7721L86.2375 49.6834L82.489 52.4183Z" fill="#231F20"/>
<path d="M86.327 49.1886C86.327 49.1886 83.8671 45.1274 83.7913 45.4023C83.7155 45.6771 74.7164 51.7105 74.8404 52.3427C74.9644 52.9749 82.0479 52.3427 82.0479 52.3427L86.327 49.1886Z" fill="#231F20"/>
<path d="M76.9766 52.9337C74.6338 52.9337 74.5649 52.5901 74.5236 52.3771C74.434 51.9304 74.9439 51.3876 81.0283 47.0446C82.179 46.22 83.3642 45.3748 83.5364 45.203C83.5997 45.1183 83.6937 45.0616 83.7983 45.0449C84.0394 45.0449 84.2393 45.0037 86.6441 49.0168C86.688 49.0889 86.7031 49.1748 86.6865 49.2575C86.6699 49.3402 86.6228 49.4137 86.5545 49.4635L82.2686 52.5901C82.2172 52.6247 82.158 52.646 82.0963 52.652C79.7328 52.8581 78.0722 52.9337 76.9766 52.9337ZM75.3573 52.1709C77.5548 52.2769 79.7572 52.2126 81.9447 51.9785L85.893 49.0993C85.0868 47.7249 84.1979 46.3506 83.8258 45.8627C83.5089 46.1101 82.8474 46.5498 81.4348 47.6012C79.5192 48.9412 76.1704 51.3326 75.3366 52.1709H75.3573Z" fill="#231F20"/>
<path d="M174.733 54.6516C175.519 54.9196 182.216 68.7456 184.263 68.024C186.309 67.3025 180.259 57.1529 180.259 57.1529L185.689 53.2704C185.689 53.2704 199.553 73.707 194.247 78.153C188.942 82.599 168.814 67.9416 168.814 67.9416L174.733 54.6516Z" fill="#F6CA1C"/>
<path d="M172.597 51.5456C172.597 51.5456 167.891 46.1169 160.883 50.7416C153.875 55.3663 140.666 63.3375 140.666 63.3375L145.049 80.4619C145.049 80.4619 155.701 85.1621 168.311 79.0119C179.377 73.6176 179.949 64.9524 178.509 61.3516C177.069 57.7508 172.597 51.5456 172.597 51.5456Z" fill="#F6CA1C"/>
<path d="M167.636 77.404C167.563 77.4031 167.492 77.3791 167.434 77.3355C167.375 77.2919 167.332 77.231 167.311 77.1614C167.289 77.0919 167.291 77.0174 167.314 76.9486C167.338 76.8798 167.383 76.8203 167.443 76.7786C167.539 76.7099 177.255 70.1474 178.93 63.2207C178.954 63.1332 179.011 63.0585 179.09 63.0124C179.168 62.9662 179.261 62.9522 179.35 62.9733C179.438 62.9945 179.515 63.0498 179.563 63.127C179.61 63.2043 179.626 63.2972 179.605 63.3856C177.861 70.5666 168.235 77.0741 167.829 77.349C167.771 77.386 167.704 77.4051 167.636 77.404Z" fill="#231F20"/>
<path d="M183.147 48.5839C183.147 48.5839 183.539 52.4252 182.843 52.8169C182.147 53.2086 181.045 52.1297 181.045 52.1297" fill="white"/>
<path d="M182.499 53.2429C181.853 53.1502 181.257 52.8455 180.804 52.3771C180.771 52.3451 180.746 52.3071 180.728 52.2653C180.711 52.2234 180.702 52.1785 180.702 52.1331C180.702 52.0878 180.711 52.0429 180.728 52.001C180.746 51.9591 180.771 51.9211 180.804 51.8892C180.869 51.8258 180.957 51.7903 181.048 51.7903C181.14 51.7903 181.227 51.8258 181.293 51.8892C181.589 52.1778 182.32 52.7138 182.671 52.5145C183.023 52.3152 182.995 50.453 182.802 48.6182C182.794 48.573 182.795 48.5267 182.806 48.4821C182.816 48.4374 182.835 48.3952 182.862 48.3581C182.889 48.3209 182.924 48.2896 182.963 48.2658C183.002 48.242 183.046 48.2263 183.091 48.2197C183.181 48.2118 183.271 48.2388 183.342 48.2951C183.412 48.3514 183.458 48.4327 183.47 48.522C183.629 50.0407 183.774 52.6451 182.988 53.0917C182.84 53.1815 182.672 53.2334 182.499 53.2429V53.2429Z" fill="#231F20"/>
<path d="M172.618 61.9082C170.041 59.8467 168.256 53.5109 168.311 53.3872C169.362 51.4222 170.511 49.5116 171.757 47.6631C171.757 47.6631 173.824 48.7488 176.318 46.9347C178.812 45.1205 181.141 46.7285 184.731 44.6052C185.421 46.2132 183.98 48.1029 183.264 49.4154C182.258 51.3074 181.206 53.1719 180.108 55.009C179.419 56.1772 176.284 54.5761 175.918 53.9301C175.098 55.9023 175.098 55.9023 172.618 61.9082Z" fill="white"/>
<path d="M172.618 62.2518C172.536 62.2528 172.458 62.2234 172.397 62.1693C169.848 60.1078 167.787 53.6896 168.001 53.236C169.048 51.2535 170.198 49.3268 171.446 47.4638C171.492 47.3911 171.564 47.3385 171.647 47.3168C171.73 47.2951 171.819 47.3059 171.894 47.347C171.97 47.3882 173.803 48.309 176.084 46.6598C177.225 45.9041 178.573 45.5178 179.942 45.5534C181.553 45.5456 183.133 45.1168 184.525 44.3097C184.567 44.2854 184.614 44.2698 184.662 44.2639C184.711 44.258 184.76 44.2619 184.807 44.2753C184.854 44.2916 184.897 44.317 184.933 44.3501C184.97 44.3831 185 44.4231 185.021 44.4677C185.662 45.9658 184.711 47.5875 183.946 48.8931C183.801 49.1474 183.663 49.381 183.539 49.5803C182.533 51.4631 181.472 53.3529 180.377 55.1876C180.241 55.3887 180.054 55.5494 179.834 55.6523C179.615 55.7552 179.371 55.7965 179.129 55.7717C177.993 55.6586 176.912 55.2301 176.008 54.5348L172.914 62.0113C172.892 62.0598 172.86 62.1028 172.819 62.1373C172.779 62.1718 172.731 62.1968 172.68 62.2105L172.618 62.2518ZM168.669 53.4491C168.821 54.1362 170.316 59.1801 172.48 61.3241C174.781 55.7649 174.802 55.7167 175.594 53.827C175.618 53.7669 175.659 53.7149 175.711 53.6771C175.764 53.6393 175.826 53.6174 175.891 53.614C175.956 53.61 176.021 53.6246 176.079 53.6563C176.136 53.6879 176.183 53.7352 176.215 53.7927C177.032 54.531 178.066 54.9865 179.164 55.0914C179.515 55.0914 179.708 55.009 179.805 54.844C180.893 53.0162 181.954 51.1402 182.954 49.2642C183.078 49.0305 183.222 48.7832 183.374 48.5289C183.987 47.4775 184.752 46.1925 184.518 45.093C183.122 45.8138 181.576 46.1997 180.004 46.22C178.767 46.1785 177.547 46.5193 176.511 47.1958C175.874 47.716 175.116 48.0685 174.307 48.221C173.498 48.3735 172.664 48.321 171.88 48.0685C171.336 48.9069 169.503 51.738 168.669 53.4491V53.4491Z" fill="#231F20"/>
<path d="M180.797 53.6003C180.548 53.6281 180.295 53.602 180.057 53.5237C179.819 53.4453 179.6 53.3166 179.416 53.1464C179.233 52.9761 179.088 52.7683 178.992 52.5371C178.896 52.3059 178.851 52.0567 178.861 51.8067" fill="white"/>
<path d="M180.714 53.9439C180.13 53.9539 179.561 53.7511 179.116 53.3735C178.911 53.1688 178.752 52.9236 178.649 52.6537C178.546 52.3838 178.5 52.0952 178.516 51.8068C178.516 51.7156 178.552 51.6282 178.617 51.5638C178.682 51.4994 178.769 51.4632 178.861 51.4632C178.951 51.465 179.037 51.502 179.1 51.5662C179.163 51.6304 179.198 51.7168 179.198 51.8068C179.182 52.0009 179.208 52.1963 179.273 52.38C179.338 52.5636 179.442 52.7313 179.577 52.8719C179.915 53.139 180.339 53.2757 180.769 53.2567C180.815 53.2519 180.861 53.2567 180.905 53.2707C180.949 53.2847 180.989 53.3076 181.023 53.3379C181.058 53.3683 181.085 53.4055 181.104 53.4471C181.124 53.4887 181.134 53.5339 181.135 53.5797C181.14 53.6697 181.11 53.7584 181.051 53.8265C180.992 53.8947 180.908 53.9368 180.818 53.9439H180.714Z" fill="#231F20"/>
<path d="M175.911 53.9576C175.471 53.6964 175.09 53.3474 174.791 52.9323C174.492 52.5173 174.282 52.0452 174.175 51.5456C174.175 51.5456 172.756 54.5073 174.795 56.6376L175.911 53.9576Z" fill="#231F20"/>
<path d="M174.823 56.9812C174.777 56.9818 174.731 56.973 174.688 56.9553C174.645 56.9376 174.607 56.9113 174.575 56.8781C172.39 54.6035 173.831 51.5319 173.886 51.3807C173.917 51.3136 173.97 51.2586 174.036 51.2239C174.102 51.1892 174.177 51.1767 174.251 51.1883C174.325 51.202 174.393 51.2386 174.445 51.2929C174.496 51.3471 174.53 51.4163 174.54 51.4906C174.643 51.9356 174.834 52.3555 175.103 52.725C175.371 53.0946 175.712 53.4063 176.104 53.6415C176.177 53.6822 176.232 53.7483 176.259 53.8269C176.285 53.9055 176.282 53.9912 176.249 54.0676L175.133 56.7475C175.112 56.801 175.078 56.8482 175.033 56.8844C174.988 56.9205 174.935 56.9444 174.878 56.9537L174.823 56.9812ZM174.203 52.6382C174.046 53.1999 174.011 53.7886 174.102 54.3647C174.192 54.9407 174.405 55.4908 174.726 55.9779L175.512 54.0882C174.962 53.712 174.505 53.2163 174.175 52.6382H174.203Z" fill="#231F20"/>
<path d="M183.241 47.4936C183.463 47.1349 183.527 46.7731 183.384 46.6856C183.241 46.598 182.946 46.8179 182.725 47.1766C182.503 47.5353 182.439 47.8971 182.582 47.9846C182.725 48.0722 183.02 47.8523 183.241 47.4936Z" fill="#231F20"/>
<path d="M178.764 47.5325C178.961 47.0322 179.011 46.4865 178.909 45.9589C178.894 45.5416 178.815 45.129 178.675 44.7357C178.602 44.5403 178.487 44.3633 178.339 44.2171C178.19 44.071 178.01 43.9595 177.813 43.8905C177.633 43.8476 177.446 43.8431 177.265 43.8775C177.083 43.9118 176.911 43.9842 176.759 44.0898C176.457 44.3038 176.207 44.5834 176.029 44.9075C175.626 45.6058 175.414 46.3972 175.414 47.2027C175.414 48.0082 175.626 48.7996 176.029 49.4978L175.987 49.326" fill="white"/>
<path d="M176.015 49.8414C175.955 49.8404 175.896 49.8241 175.844 49.794C175.793 49.7639 175.749 49.7211 175.719 49.6696C175.287 48.9174 175.06 48.0658 175.06 47.1992C175.06 46.3326 175.287 45.4811 175.719 44.7288C175.922 44.3601 176.207 44.0427 176.552 43.8012C176.746 43.6672 176.966 43.5764 177.198 43.5348C177.43 43.4933 177.668 43.5021 177.896 43.5606C178.144 43.6422 178.37 43.7785 178.557 43.9593C178.744 44.1402 178.888 44.361 178.978 44.6052C179.135 45.0282 179.223 45.4736 179.24 45.9245C179.347 46.5189 179.282 47.1313 179.054 47.6906C179.012 47.7715 178.941 47.8328 178.854 47.8611C178.768 47.8895 178.673 47.8825 178.592 47.8417C178.511 47.8005 178.449 47.729 178.421 47.6427C178.393 47.5565 178.4 47.4625 178.44 47.3813C178.603 46.9422 178.644 46.4672 178.558 46.007C178.536 45.6258 178.465 45.2492 178.344 44.8869C178.291 44.7392 178.206 44.6049 178.095 44.4934C177.984 44.3818 177.851 44.2957 177.703 44.2409C177.571 44.2125 177.433 44.2119 177.301 44.2391C177.168 44.2663 177.042 44.3208 176.931 44.399C176.675 44.5783 176.463 44.8132 176.311 45.0862C175.945 45.7176 175.748 46.432 175.739 47.1611C175.729 47.8903 175.907 48.6096 176.256 49.2504H176.291L176.339 49.4222C176.359 49.5025 176.35 49.5872 176.313 49.6614C176.277 49.7355 176.215 49.7945 176.139 49.8277C176.099 49.8401 176.057 49.8447 176.015 49.8414Z" fill="#231F20"/>
<path d="M140.666 63.3375C137.297 61.9632 129.262 63.6399 124.198 65.3235C119.133 67.007 102.472 71.5355 102.472 71.5355L90.2548 52.3427C90.2548 52.3427 81.5864 55.4625 82.0688 56.184C82.5511 56.9056 90.7578 76.3938 98.93 80.3245C107.102 84.2551 145.965 80.6543 145.965 80.6543L140.666 63.3375Z" fill="#231F20"/>
<path d="M116.101 82.5165C108.522 82.5165 101.748 82.0561 98.7852 80.6337C93.9618 78.3179 88.4493 70.5254 82.3236 57.4691C82.0618 56.9124 81.8344 56.4246 81.7792 56.349C81.7408 56.2882 81.7166 56.2196 81.7082 56.1483C81.6999 56.0769 81.7077 56.0046 81.731 55.9367C82.0411 54.9952 87.7189 52.865 90.1444 51.9923C90.2178 51.9659 90.2979 51.9652 90.3718 51.9901C90.4456 52.0151 90.5088 52.0643 90.5509 52.1297L102.589 71.1369C104.656 70.5666 119.429 66.5123 124.094 64.9524C128.229 63.578 136.993 61.4134 140.797 62.9802C140.844 63.0012 140.886 63.0315 140.92 63.0694C140.954 63.1072 140.981 63.1517 140.997 63.2001L146.296 80.5512C146.31 80.5995 146.313 80.6502 146.306 80.6999C146.299 80.7497 146.281 80.7973 146.254 80.8398C146.225 80.8814 146.187 80.9164 146.143 80.9424C146.099 80.9684 146.05 80.985 145.999 80.991C144.986 81.0872 129.386 82.5165 116.101 82.5165ZM82.427 56.1016C82.5165 56.2734 82.675 56.6032 82.9438 57.1804C89.0006 70.0924 94.4303 77.7957 99.0815 80.0152C106.661 83.6573 141.293 80.7024 145.517 80.3519L140.37 63.5643C136.925 62.2861 128.911 64.0728 124.294 65.6258C119.285 67.2888 102.685 71.8104 102.513 71.8791C102.442 71.8986 102.366 71.8944 102.298 71.8671C102.23 71.8398 102.172 71.7909 102.134 71.7279L90.1168 52.7276C86.6233 53.9851 82.9851 55.5312 82.427 56.1016Z" fill="#231F20"/>
<path d="M173.727 80.5787V77.6032H193.386L201.462 57.6477H230.002L220.638 77.507V80.5787H173.727Z" fill="white"/>
<path d="M220.638 80.9223H173.727C173.636 80.9223 173.548 80.8861 173.484 80.8216C173.419 80.7572 173.383 80.6698 173.383 80.5787V77.6032C173.383 77.5121 173.419 77.4247 173.484 77.3603C173.548 77.2958 173.636 77.2596 173.727 77.2596H193.152L201.145 57.5171C201.17 57.4539 201.214 57.3996 201.27 57.3616C201.327 57.3236 201.394 57.3035 201.462 57.3041H230.003C230.06 57.3042 230.117 57.3187 230.168 57.3463C230.218 57.374 230.261 57.4138 230.292 57.4622C230.32 57.5125 230.335 57.5693 230.335 57.6271C230.335 57.6849 230.32 57.7417 230.292 57.792L220.99 77.5826V80.5787C220.99 80.6244 220.981 80.6697 220.963 80.7118C220.945 80.7539 220.919 80.7921 220.886 80.8241C220.854 80.8561 220.815 80.8813 220.772 80.8981C220.73 80.915 220.684 80.9232 220.638 80.9223V80.9223ZM174.072 80.2351H220.301V77.4864C220.302 77.4365 220.314 77.3874 220.335 77.3421L229.465 57.9707H201.696L193.703 77.7682C193.678 77.8314 193.634 77.8857 193.578 77.9237C193.521 77.9617 193.454 77.9818 193.386 77.9812H174.092L174.072 80.2351Z" fill="#231F20"/>
<path d="M153.862 55.0914C153.862 55.0914 157.114 80.0771 159.374 80.6818C161.634 81.2865 184.869 76.435 184.869 76.435L183.284 68.3333C183.284 68.3333 166.623 71.295 166.892 68.3333C167.16 65.3715 165.024 54.2531 165.024 54.2531L153.862 55.0914Z" fill="#F6CA1C"/>
<path d="M159.519 80.5718C158.687 80.5908 157.856 80.5263 157.038 80.3794C155.426 80.0358 154.247 78.3866 153.524 75.4799C152.649 71.9547 152.669 67.4949 152.759 65.1723C152.759 65.1173 152.98 59.4412 153.634 58.8915C153.705 58.8333 153.796 58.8051 153.887 58.8128C153.979 58.8205 154.063 58.8635 154.123 58.9327C154.178 58.9971 154.208 59.0787 154.208 59.1629C154.208 59.2472 154.178 59.3287 154.123 59.3931C153.662 60.204 152.47 71.6798 154.812 77.2596C155.433 78.7165 156.232 79.5548 157.19 79.761C162.702 80.9292 184.614 76.167 184.835 76.1189C184.88 76.109 184.927 76.1081 184.972 76.1162C185.018 76.1243 185.061 76.1412 185.1 76.1661C185.14 76.191 185.173 76.2233 185.2 76.2612C185.226 76.2991 185.245 76.3418 185.255 76.3869C185.265 76.4321 185.266 76.4787 185.258 76.5242C185.25 76.5697 185.233 76.6131 185.208 76.652C185.183 76.6909 185.15 76.7246 185.112 76.751C185.074 76.7775 185.032 76.7962 184.986 76.8061C184.173 76.9092 167.243 80.5718 159.519 80.5718Z" fill="#231F20"/>
<path d="M168.718 70.01C168.199 70.0022 167.705 69.7926 167.34 69.4259C164.452 66.7253 164.707 54.7203 164.714 54.205C164.721 54.115 164.762 54.0311 164.828 53.9699C164.895 53.9087 164.982 53.8749 165.073 53.8751C165.117 53.876 165.162 53.8858 165.203 53.904C165.244 53.9222 165.281 53.9484 165.312 53.981C165.343 54.0136 165.367 54.0521 165.382 54.0941C165.398 54.1361 165.405 54.1808 165.403 54.2256C165.403 54.3493 165.148 66.4367 167.815 68.9242C167.944 69.0603 168.102 69.166 168.277 69.2338C168.452 69.3015 168.641 69.3296 168.828 69.3159C172.962 68.9448 183.188 67.9416 183.298 67.9416C183.388 67.9373 183.476 67.9667 183.544 68.024C183.613 68.0812 183.658 68.1622 183.67 68.2508C183.675 68.296 183.671 68.3416 183.658 68.3851C183.645 68.4286 183.623 68.4691 183.594 68.5043C183.565 68.5394 183.53 68.5685 183.49 68.5899C183.449 68.6112 183.405 68.6245 183.36 68.6287C183.257 68.6287 173.024 69.6183 168.89 70.0031L168.718 70.01Z" fill="#231F20"/>
<path d="M184.263 69.6526C184.263 69.6526 189.196 66.2992 190.12 67.1444C191.043 67.9897 195.226 73.3977 194.103 73.8032C192.979 74.2086 191.14 72.2708 191.14 72.2708C191.14 72.2708 190.044 74.0093 185.689 73.3977L184.263 69.6526Z" fill="white"/>
<path d="M193.772 74.2017C192.793 74.2017 191.663 73.2534 191.153 72.7724C190.582 73.2878 189.086 74.2155 185.641 73.7344C185.579 73.7267 185.521 73.7021 185.472 73.6633C185.423 73.6245 185.386 73.573 185.365 73.5145L183.939 69.7763C183.911 69.7041 183.908 69.6242 183.932 69.5503C183.956 69.4765 184.005 69.4131 184.07 69.3709C185.62 68.3195 189.341 65.935 190.354 66.8971C191.119 67.5842 194.895 72.2776 194.619 73.652C194.602 73.7596 194.555 73.8605 194.485 73.944C194.415 74.0274 194.323 74.0904 194.22 74.1261C194.076 74.1759 193.924 74.2014 193.772 74.2017ZM191.14 71.9341C191.186 71.933 191.232 71.9416 191.275 71.9593C191.317 71.9771 191.356 72.0036 191.388 72.0371C192.042 72.7243 193.324 73.7207 193.985 73.4802C194.096 73.1022 191.732 69.096 189.886 67.3987C189.513 67.062 187.129 68.1683 184.683 69.7901L185.937 73.0816C189.803 73.5695 190.843 72.099 190.85 72.0852C190.881 72.0431 190.92 72.0079 190.965 71.9819C191.01 71.9559 191.06 71.9396 191.112 71.9341H191.14Z" fill="#231F20"/>
<path d="M105.559 70.0031C105.48 70.0034 105.404 69.9771 105.343 69.9283C105.281 69.8796 105.238 69.8114 105.221 69.7351C105.211 69.6913 105.21 69.6459 105.218 69.6016C105.225 69.5574 105.242 69.5151 105.266 69.4773C105.291 69.4395 105.322 69.407 105.36 69.3816C105.397 69.3563 105.439 69.3386 105.483 69.3297L116.508 66.9039C116.596 66.8855 116.689 66.9026 116.765 66.9514C116.841 67.0003 116.895 67.077 116.914 67.1651C116.925 67.2093 116.926 67.2551 116.918 67.2998C116.911 67.3445 116.894 67.3873 116.87 67.4256C116.845 67.464 116.814 67.4971 116.776 67.5232C116.739 67.5492 116.697 67.5676 116.653 67.5774L105.628 69.9962L105.559 70.0031Z" fill="white"/>
<path d="M220.301 77.9468H193.358C193.267 77.9468 193.179 77.9106 193.115 77.8462C193.05 77.7817 193.014 77.6944 193.014 77.6032C193.014 77.5121 193.05 77.4247 193.115 77.3603C193.179 77.2958 193.267 77.2596 193.358 77.2596H220.301C220.391 77.2614 220.478 77.2982 220.542 77.3622C220.606 77.4263 220.643 77.5127 220.645 77.6032C220.645 77.6944 220.609 77.7817 220.544 77.8462C220.48 77.9106 220.392 77.9468 220.301 77.9468Z" fill="#231F20"/>
<path d="M233.393 86.7907V187.881C233.393 191.619 229.182 194.656 223.973 194.656H83.4054C78.2099 194.656 73.9791 191.619 73.9791 187.881V86.7907C73.9791 83.0525 78.2099 80.0152 83.4054 80.0152H223.973C229.189 80.0152 233.393 83.0525 233.393 86.7907Z" fill="white"/>
<path d="M223.98 195H83.4124C78.0239 195 73.6415 191.805 73.6415 187.881V86.7839C73.6415 82.8601 78.0239 79.6716 83.4124 79.6716H223.98C229.362 79.6716 233.744 82.8601 233.744 86.7839V187.881C233.744 191.839 229.362 195 223.98 195ZM83.4124 80.3588C78.4029 80.3588 74.3306 83.2381 74.3306 86.7839V187.881C74.3306 191.427 78.4029 194.313 83.4124 194.313H223.98C228.983 194.313 233.055 191.427 233.055 187.881V86.7839C233.055 83.2381 228.983 80.3588 223.98 80.3588H83.4124Z" fill="#231F20"/>
<path d="M233.393 86.7907V92.1095H74.0068V86.7907C74.0068 83.0525 78.2376 80.0152 83.4331 80.0152H224.001C229.189 80.0152 233.393 83.0525 233.393 86.7907Z" fill="white"/>
<path d="M233.393 92.4531H74.0067C73.9154 92.4531 73.8277 92.4169 73.7631 92.3524C73.6985 92.288 73.6622 92.2006 73.6622 92.1095V86.7839C73.6622 82.8601 78.0446 79.6716 83.433 79.6716H224.001C229.382 79.6716 233.765 82.8601 233.765 86.7839V92.1095C233.765 92.157 233.755 92.2041 233.736 92.2476C233.717 92.2912 233.689 92.3304 233.654 92.3627C233.619 92.395 233.578 92.4197 233.533 92.4352C233.488 92.4508 233.44 92.4569 233.393 92.4531ZM74.3444 91.7659H233.055V86.7839C233.055 83.2381 228.983 80.3588 223.98 80.3588H83.4124C78.4029 80.3588 74.3306 83.2381 74.3306 86.7839L74.3444 91.7659Z" fill="#231F20"/>
<path d="M208.359 99.5584H100.611V110.251H208.359V99.5584Z" fill="white"/>
<path d="M208.359 110.594H100.611C100.52 110.594 100.432 110.558 100.368 110.494C100.303 110.429 100.267 110.342 100.267 110.251V99.5584C100.267 99.4673 100.303 99.3799 100.368 99.3155C100.432 99.251 100.52 99.2148 100.611 99.2148H208.359C208.45 99.2166 208.537 99.2534 208.601 99.3174C208.665 99.3815 208.702 99.4679 208.704 99.5584V110.251C208.704 110.342 208.667 110.429 208.603 110.494C208.538 110.558 208.451 110.594 208.359 110.594V110.594ZM100.956 109.907H208.015V99.902H100.956V109.907Z" fill="#231F20"/>
<path d="M208.359 99.5584H193.744V110.251H208.359V99.5584Z" fill="#F6CA1C"/>
<path d="M208.359 110.594H193.744C193.653 110.594 193.565 110.558 193.501 110.494C193.436 110.429 193.4 110.342 193.4 110.251V99.5584C193.4 99.4673 193.436 99.3799 193.501 99.3155C193.565 99.251 193.653 99.2148 193.744 99.2148H208.359C208.45 99.2166 208.537 99.2534 208.601 99.3174C208.665 99.3815 208.702 99.4679 208.704 99.5584V110.251C208.704 110.342 208.667 110.429 208.603 110.494C208.538 110.558 208.451 110.594 208.359 110.594V110.594ZM194.089 109.907H208.015V99.902H194.116L194.089 109.907Z" fill="#231F20"/>
<path d="M223.264 117.659H167.657V173.114H223.264V117.659Z" fill="#E6E7E8"/>
<path d="M150.664 119.04H88.8077V120.414H150.664V119.04Z" fill="#F6CA1C"/>
<path d="M129.951 123.149H88.8077V124.523H129.951V123.149Z" fill="#F6CA1C"/>
<path d="M155.143 127.252H88.8077V128.626H155.143V127.252Z" fill="#D1D3D4"/>
<path d="M147.116 131.361H88.8077V132.735H147.116V131.361Z" fill="#D1D3D4"/>
<path d="M98.048 135.745H89.2763V136.432H98.048V135.745Z" fill="#D1D3D4"/>
<path d="M105.462 135.745H100.611V136.432H105.462V135.745Z" fill="#D1D3D4"/>
<path d="M112.387 135.745H107.702V136.432H112.387V135.745Z" fill="#D1D3D4"/>
<path d="M137.324 143.847H88.8077V145.221H137.324V143.847Z" fill="#F6CA1C"/>
<path d="M147.116 147.956H88.8077V149.33H147.116V147.956Z" fill="#F6CA1C"/>
<path d="M127.808 152.059H88.8077V153.433H127.808V152.059Z" fill="#D1D3D4"/>
<path d="M139.936 156.168H88.8077V157.542H139.936V156.168Z" fill="#D1D3D4"/>
<path d="M93.6587 160.552H89.2763V161.239H93.6587V160.552Z" fill="#D1D3D4"/>
<path d="M105.462 160.552H95.8981V161.239H105.462V160.552Z" fill="#D1D3D4"/>
<path d="M110.871 160.552H107.702V161.239H110.871V160.552Z" fill="#D1D3D4"/>
<path d="M143.057 168.654H88.8077V170.028H143.057V168.654Z" fill="#F6CA1C"/>
<path d="M150.664 172.763H88.8077V174.137H150.664V172.763Z" fill="#F6CA1C"/>
<path d="M131.164 176.866H88.8077V178.24H131.164V176.866Z" fill="#D1D3D4"/>
<path d="M123.702 180.968H88.8077V182.342H123.702V180.968Z" fill="#D1D3D4"/>
<path d="M100.68 185.359H89.2763V186.046H100.68V185.359Z" fill="#D1D3D4"/>
<path d="M110.045 185.359H103.595V186.046H110.045V185.359Z" fill="#D1D3D4"/>
<path d="M84.632 88.3231C85.8878 88.3231 86.9059 87.3079 86.9059 86.0555C86.9059 84.8031 85.8878 83.7878 84.632 83.7878C83.3762 83.7878 82.3581 84.8031 82.3581 86.0555C82.3581 87.3079 83.3762 88.3231 84.632 88.3231Z" fill="#F6CA1C"/>
<path d="M91.4675 88.3231C92.7233 88.3231 93.7414 87.3079 93.7414 86.0555C93.7414 84.8031 92.7233 83.7878 91.4675 83.7878C90.2117 83.7878 89.1936 84.8031 89.1936 86.0555C89.1936 87.3079 90.2117 88.3231 91.4675 88.3231Z" fill="#E6E7E8"/>
<path d="M98.303 88.3231C99.5589 88.3231 100.577 87.3079 100.577 86.0555C100.577 84.8031 99.5589 83.7878 98.303 83.7878C97.0472 83.7878 96.0291 84.8031 96.0291 86.0555C96.0291 87.3079 97.0472 88.3231 98.303 88.3231Z" fill="#E6E7E8"/>
<path d="M199.312 107.131C198.638 107.13 197.985 106.896 197.465 106.468C196.944 106.041 196.588 105.447 196.458 104.788C196.327 104.128 196.43 103.444 196.748 102.851C197.067 102.259 197.581 101.795 198.204 101.538C198.827 101.281 199.52 101.248 200.165 101.443C200.81 101.639 201.367 102.051 201.741 102.61C202.116 103.169 202.284 103.84 202.218 104.509C202.152 105.178 201.856 105.804 201.379 106.279C201.108 106.55 200.786 106.765 200.431 106.912C200.076 107.058 199.696 107.133 199.312 107.131V107.131ZM199.312 102.012C199.02 102.01 198.731 102.067 198.461 102.178C198.192 102.289 197.947 102.452 197.741 102.658C197.429 102.968 197.216 103.363 197.13 103.794C197.043 104.225 197.087 104.671 197.255 105.077C197.423 105.483 197.708 105.831 198.075 106.075C198.441 106.319 198.871 106.449 199.312 106.449C199.752 106.449 200.183 106.319 200.549 106.075C200.915 105.831 201.201 105.483 201.369 105.077C201.537 104.671 201.581 104.225 201.494 103.794C201.408 103.363 201.195 102.968 200.883 102.658C200.677 102.452 200.432 102.289 200.162 102.178C199.893 102.067 199.604 102.01 199.312 102.012Z" fill="#231F20"/>
<path d="M203.246 108.492C203.153 108.491 203.064 108.454 202.998 108.389L200.883 106.279C200.82 106.215 200.784 106.128 200.784 106.038C200.784 105.949 200.82 105.862 200.883 105.798C200.915 105.766 200.953 105.74 200.995 105.723C201.037 105.705 201.082 105.696 201.127 105.696C201.173 105.696 201.218 105.705 201.26 105.723C201.302 105.74 201.34 105.766 201.372 105.798L203.488 107.908C203.535 107.956 203.567 108.016 203.58 108.082C203.593 108.148 203.586 108.217 203.56 108.279C203.534 108.341 203.491 108.394 203.435 108.432C203.379 108.47 203.314 108.491 203.246 108.492V108.492Z" fill="#231F20"/>
<path d="M243.26 136.817H186.681V178.673H243.26V136.817Z" fill="white"/>
<path d="M243.26 179.016H186.681C186.59 179.016 186.502 178.98 186.438 178.916C186.373 178.851 186.337 178.764 186.337 178.673V136.817C186.337 136.726 186.373 136.638 186.438 136.574C186.502 136.51 186.59 136.473 186.681 136.473H243.26C243.351 136.475 243.437 136.512 243.502 136.576C243.566 136.64 243.603 136.726 243.604 136.817V178.673C243.604 178.764 243.568 178.851 243.504 178.916C243.439 178.98 243.351 179.016 243.26 179.016ZM187.026 178.329H242.915V137.161H187.026V178.329Z" fill="#231F20"/>
<path d="M192.738 170.777H192.669C187.729 170.619 186.371 165.926 186.358 165.878C186.345 165.832 186.342 165.785 186.348 165.739C186.354 165.693 186.369 165.648 186.393 165.607C186.416 165.567 186.447 165.531 186.484 165.503C186.521 165.474 186.564 165.453 186.609 165.441C186.654 165.429 186.702 165.426 186.748 165.432C186.794 165.438 186.839 165.453 186.88 165.476C186.921 165.5 186.956 165.531 186.985 165.568C187.013 165.605 187.034 165.647 187.047 165.692C187.095 165.871 188.294 169.946 192.718 170.09H192.738C194.916 170.09 196.452 164.27 197.803 159.095C199.181 153.735 200.559 148.671 202.799 148.149C203.242 148.025 203.706 147.994 204.163 148.057C204.619 148.119 205.058 148.274 205.451 148.513C207.45 149.77 208.208 153.289 209.124 157.357C209.578 159.665 210.181 161.942 210.929 164.173C212.128 167.486 214.375 169.54 216.538 169.293C219.219 168.984 221.245 165.245 221.941 159.288C223.932 142.301 229.844 140.438 232.276 140.425H232.366C238.457 140.425 241.606 143.689 243.591 152.045C243.601 152.09 243.603 152.137 243.595 152.182C243.587 152.228 243.57 152.272 243.546 152.311C243.496 152.39 243.417 152.446 243.325 152.467C243.234 152.488 243.138 152.472 243.059 152.423C242.979 152.373 242.923 152.294 242.902 152.203C240.979 144.129 238.12 141.112 232.345 141.112H232.263C227.543 141.112 223.925 147.984 222.616 159.37C221.872 165.754 219.68 169.623 216.607 169.973C214.134 170.269 211.584 168.022 210.275 164.407C209.518 162.158 208.906 159.862 208.442 157.535C207.615 153.776 206.836 150.231 205.072 149.117C204.756 148.927 204.403 148.805 204.037 148.757C203.67 148.71 203.298 148.739 202.943 148.843C201.097 149.275 199.698 154.601 198.464 159.294C196.873 165.197 195.432 170.777 192.738 170.777Z" fill="#231F20"/>
<path d="M237.989 161.988H230.085C229.994 161.988 229.906 161.952 229.842 161.888C229.777 161.823 229.741 161.736 229.741 161.645C229.741 161.553 229.777 161.466 229.842 161.402C229.906 161.337 229.994 161.301 230.085 161.301H237.989C238.08 161.301 238.168 161.337 238.232 161.402C238.297 161.466 238.333 161.553 238.333 161.645C238.333 161.736 238.297 161.823 238.232 161.888C238.168 161.952 238.08 161.988 237.989 161.988Z" fill="#D1D3D4"/>
<path d="M237.989 165.239H230.085C229.994 165.239 229.906 165.202 229.842 165.138C229.777 165.073 229.741 164.986 229.741 164.895C229.741 164.804 229.777 164.716 229.842 164.652C229.906 164.588 229.994 164.551 230.085 164.551H237.989C238.08 164.551 238.168 164.588 238.232 164.652C238.297 164.716 238.333 164.804 238.333 164.895C238.333 164.986 238.297 165.073 238.232 165.138C238.168 165.202 238.08 165.239 237.989 165.239Z" fill="#D1D3D4"/>
<path d="M234.034 168.475H230.085C229.994 168.475 229.906 168.439 229.842 168.374C229.777 168.31 229.741 168.223 229.741 168.132C229.741 168.04 229.777 167.953 229.842 167.889C229.906 167.824 229.994 167.788 230.085 167.788H234.034C234.125 167.788 234.213 167.824 234.277 167.889C234.342 167.953 234.378 168.04 234.378 168.132C234.378 168.223 234.342 168.31 234.277 168.374C234.213 168.439 234.125 168.475 234.034 168.475Z" fill="#D1D3D4"/>
<path d="M200.318 141.139H192.414C192.323 141.139 192.235 141.103 192.171 141.039C192.106 140.974 192.07 140.887 192.07 140.796C192.07 140.705 192.106 140.617 192.171 140.553C192.235 140.488 192.323 140.452 192.414 140.452H200.318C200.409 140.452 200.497 140.488 200.561 140.553C200.626 140.617 200.662 140.705 200.662 140.796C200.661 140.886 200.624 140.973 200.559 141.037C200.495 141.101 200.409 141.138 200.318 141.139V141.139Z" fill="#D1D3D4"/>
<path d="M200.318 144.424H192.414C192.323 144.424 192.235 144.388 192.171 144.323C192.106 144.259 192.07 144.172 192.07 144.08C192.07 143.989 192.106 143.902 192.171 143.837C192.235 143.773 192.323 143.737 192.414 143.737H200.318C200.409 143.739 200.495 143.775 200.559 143.839C200.624 143.903 200.661 143.99 200.662 144.08C200.662 144.172 200.626 144.259 200.561 144.323C200.497 144.388 200.409 144.424 200.318 144.424Z" fill="#D1D3D4"/>
<path d="M196.363 147.647H192.414C192.323 147.647 192.235 147.611 192.171 147.546C192.106 147.482 192.07 147.394 192.07 147.303C192.07 147.212 192.106 147.125 192.171 147.06C192.235 146.996 192.323 146.96 192.414 146.96H196.363C196.454 146.96 196.542 146.996 196.606 147.06C196.671 147.125 196.707 147.212 196.707 147.303C196.707 147.394 196.671 147.482 196.606 147.546C196.542 147.611 196.454 147.647 196.363 147.647Z" fill="#D1D3D4"/>
<path d="M91.8842 145.222L85.0244 141.726L76.6896 157.99L83.5493 161.486L91.8842 145.222Z" fill="#231F20"/>
<path d="M83.5433 161.83C83.4901 161.829 83.438 161.815 83.3918 161.789L76.5012 158.298C76.4603 158.278 76.4239 158.251 76.394 158.217C76.3642 158.183 76.3415 158.143 76.3274 158.1C76.3132 158.057 76.3079 158.012 76.3117 157.967C76.3155 157.921 76.3284 157.878 76.3496 157.838L84.6872 141.572C84.7069 141.531 84.7348 141.495 84.7692 141.466C84.8036 141.436 84.8437 141.414 84.887 141.4C84.9709 141.366 85.065 141.366 85.1489 141.4L92.0394 144.898C92.0797 144.918 92.1154 144.947 92.1446 144.981C92.1737 145.015 92.1957 145.055 92.2092 145.098C92.2227 145.141 92.2274 145.186 92.2231 145.231C92.2188 145.276 92.2056 145.319 92.1841 145.359L83.8672 161.645C83.8231 161.722 83.752 161.781 83.6674 161.809C83.6281 161.826 83.5857 161.833 83.5433 161.83V161.83ZM77.1489 157.845L83.3986 161.026L91.4468 145.372L85.204 142.184L77.1489 157.845Z" fill="#231F20"/>
<path d="M85.5584 156.683L79.4104 153.55C78.5666 153.12 77.533 153.454 77.1018 154.295L62.7808 182.24C62.3496 183.082 62.684 184.112 63.5278 184.543L69.6758 187.676C70.5196 188.106 71.5532 187.772 71.9844 186.931L86.3054 158.986C86.7366 158.144 86.4022 157.114 85.5584 156.683Z" fill="white"/>
<path d="M70.4581 188.211C70.1341 188.211 69.8149 188.134 69.5278 187.984L63.3677 184.85C62.8868 184.601 62.5234 184.173 62.3559 183.659C62.1883 183.145 62.23 182.586 62.4719 182.102L76.7974 154.154C77.0476 153.675 77.4767 153.313 77.9922 153.145C78.5078 152.978 79.0685 153.02 79.5536 153.261L85.7069 156.395C86.1878 156.644 86.5511 157.072 86.7187 157.586C86.8862 158.1 86.8446 158.66 86.6027 159.143L72.291 187.091C72.1178 187.427 71.8553 187.709 71.532 187.907C71.2087 188.105 70.8372 188.21 70.4581 188.211V188.211ZM78.6303 153.708C78.4873 153.706 78.3451 153.73 78.21 153.776C78.038 153.833 77.8789 153.923 77.7417 154.041C77.6046 154.159 77.4921 154.302 77.4107 154.464L63.0851 182.404C62.9233 182.727 62.8955 183.101 63.0077 183.444C63.1199 183.787 63.363 184.073 63.6846 184.239L69.8379 187.372C70.161 187.534 70.5349 187.563 70.8791 187.453C71.2233 187.342 71.5101 187.101 71.6777 186.781L86.0032 158.855C86.165 158.532 86.1928 158.158 86.0807 157.815C85.9685 157.471 85.7253 157.186 85.4037 157.02L79.2504 153.886C79.0619 153.776 78.8487 153.715 78.6303 153.708V153.708Z" fill="#231F20"/>
<path d="M104.236 111.708C100.749 109.927 96.8108 109.219 92.9199 109.672C89.0291 110.125 85.3604 111.718 82.3783 114.251C79.3961 116.784 77.2345 120.143 76.1671 123.901C75.0996 127.66 75.1744 131.65 76.3818 135.367C77.5892 139.083 79.8751 142.358 82.95 144.779C86.0249 147.199 89.7507 148.655 93.6558 148.962C97.5609 149.27 101.47 148.415 104.887 146.507C108.305 144.598 111.078 141.721 112.856 138.239C115.235 133.58 115.663 128.17 114.047 123.196C112.431 118.222 108.903 114.09 104.236 111.708V111.708ZM88.5183 142.362C85.9225 141.039 83.7785 138.978 82.3573 136.44C80.936 133.902 80.3015 131 80.5339 128.102C80.7663 125.204 81.8552 122.44 83.6629 120.16C85.4706 117.879 87.9159 116.184 90.6895 115.289C93.4632 114.394 96.4406 114.34 99.2453 115.133C102.05 115.925 104.556 117.53 106.446 119.743C108.336 121.956 109.526 124.679 109.865 127.566C110.204 130.454 109.676 133.376 108.349 135.965C106.57 139.436 103.481 142.06 99.7624 143.259C96.0434 144.459 91.9988 144.136 88.5183 142.362V142.362Z" fill="white"/>
<path d="M95.2091 149.379C90.1217 149.392 85.2164 147.491 81.4724 144.056C77.7284 140.621 75.4211 135.905 75.0113 130.848C74.6014 125.791 76.1191 120.765 79.2613 116.775C82.4035 112.785 86.9391 110.124 91.9627 109.322C96.9862 108.521 102.128 109.638 106.362 112.451C110.595 115.264 113.61 119.566 114.802 124.498C115.995 129.43 115.279 134.63 112.796 139.058C110.314 143.487 106.248 146.819 101.411 148.389C99.4085 149.042 97.3156 149.376 95.2091 149.379V149.379ZM95.2505 109.88C93.2103 109.882 91.1831 110.202 89.2419 110.828C84.6081 112.332 80.713 115.523 78.3334 119.763C75.9538 124.004 75.2644 128.984 76.4029 133.709C77.5413 138.434 80.4238 142.558 84.4756 145.258C88.5275 147.957 93.4508 149.035 98.2639 148.275C103.077 147.516 107.426 144.975 110.444 141.159C113.462 137.344 114.927 132.534 114.547 127.689C114.166 122.844 111.969 118.32 108.392 115.019C104.816 111.719 100.123 109.883 95.2505 109.88V109.88ZM95.2022 144.321C92.8255 144.321 90.4828 143.758 88.3668 142.679V142.679C85.0726 141.004 82.5092 138.182 81.1627 134.748C79.8163 131.313 79.7804 127.506 81.062 124.047C82.3435 120.588 84.8533 117.718 88.1153 115.982C91.3774 114.246 95.1649 113.764 98.7596 114.628C102.354 115.492 105.506 117.641 107.617 120.668C109.729 123.695 110.653 127.39 110.214 131.051C109.775 134.713 108.005 138.086 105.238 140.532C102.471 142.978 98.8998 144.326 95.2022 144.321ZM88.6906 142.067C91.2236 143.355 94.0826 143.867 96.9067 143.537C99.7308 143.207 102.394 142.05 104.559 140.212C106.725 138.374 108.296 135.938 109.075 133.211C109.854 130.484 109.805 127.587 108.935 124.888C108.058 122.188 106.398 119.807 104.166 118.048C101.933 116.288 99.2267 115.228 96.3898 115.002C93.553 114.775 90.7125 115.392 88.2272 116.775C85.742 118.158 83.7236 120.245 82.4271 122.771C80.6994 126.16 80.3885 130.093 81.5624 133.709C82.7364 137.326 85.2995 140.331 88.6906 142.067Z" fill="#231F20"/>
</svg>
