<svg width="306" height="230" viewBox="0 0 306 230" fill="none" xmlns="http://www.w3.org/2000/svg">
<path d="M43.3139 156.616V161.761C43.3139 163.245 45.4023 164.443 46.3987 164.722C47.3951 165.001 174.773 202.707 179.85 202.57C184.928 202.434 186.75 201.89 187.835 201.162C188.92 200.433 258.035 161.223 259.857 160.094C261.679 158.964 261.802 158.249 261.87 157.371C262.055 154.941 262.689 149.476 262.689 149.476L43.3139 156.616Z" fill="white"/>
<path d="M179.823 202.884C175.366 202.884 95.9192 179.654 48.883 165.783L46.31 165.028C45.1566 164.701 43 163.408 43 161.761V156.616C42.9999 156.535 43.0311 156.457 43.0871 156.399C43.143 156.341 43.2194 156.306 43.3003 156.303L262.676 149.149C262.722 149.144 262.769 149.151 262.812 149.169C262.855 149.186 262.892 149.215 262.921 149.251C262.952 149.285 262.974 149.325 262.987 149.369C263 149.412 263.003 149.458 262.996 149.503C262.996 149.558 262.362 154.948 262.184 157.378C262.109 158.385 261.911 159.188 260.028 160.359C259.086 160.944 240.359 171.603 222.246 181.9C205.668 191.334 188.531 201.087 188.006 201.42C186.975 202.101 185.276 202.734 179.857 202.884H179.823ZM43.6279 156.922V161.761C43.6279 162.993 45.4569 164.13 46.4806 164.422L49.0604 165.178C128.992 188.734 176.608 202.257 179.809 202.257C185.071 202.108 186.682 201.516 187.637 200.896C188.176 200.549 204.563 191.225 221.904 181.363C240.011 171.058 258.758 160.407 259.666 159.828C261.427 158.732 261.474 158.086 261.529 157.337C261.679 155.295 262.164 151.048 262.307 149.789L43.6279 156.922Z" fill="#D1D3D4"/>
<path d="M117.445 123.395L44.6584 155.234C43.1024 155.915 43.3549 157.711 45.0611 158.113L177.741 191.912C180.794 192.637 184.007 192.233 186.784 190.775L261.775 151.021C263.222 150.238 262.785 148.496 261.092 148.19L118.878 123.204C118.392 123.132 117.895 123.198 117.445 123.395V123.395Z" fill="white"/>
<path d="M180.799 192.586C179.744 192.585 178.693 192.462 177.666 192.218L44.986 158.419C44.5677 158.347 44.182 158.148 43.8825 157.848C43.5829 157.548 43.3842 157.162 43.314 156.745C43.2961 156.355 43.4046 155.97 43.6234 155.646C43.8422 155.323 44.1597 155.078 44.5288 154.948L117.308 123.082C117.819 122.861 118.385 122.797 118.932 122.898L261.12 147.897C261.553 147.936 261.963 148.113 262.29 148.4C262.616 148.688 262.842 149.072 262.935 149.496C262.981 149.865 262.909 150.239 262.727 150.564C262.545 150.888 262.264 151.146 261.925 151.3L186.928 191.082C185.04 192.079 182.935 192.596 180.799 192.586V192.586ZM118.427 123.477C118.128 123.474 117.833 123.537 117.561 123.66V123.66L44.7813 155.52C44.5337 155.599 44.3182 155.756 44.167 155.966C44.0158 156.177 43.9368 156.431 43.9418 156.69C43.9918 156.982 44.1354 157.248 44.3508 157.451C44.5663 157.654 44.8419 157.781 45.1362 157.813L177.816 191.613C180.791 192.327 183.924 191.94 186.634 190.524L261.625 150.769C261.846 150.672 262.03 150.508 262.153 150.3C262.275 150.093 262.329 149.852 262.307 149.612C262.226 149.319 262.057 149.058 261.823 148.863C261.589 148.668 261.3 148.55 260.997 148.523L118.81 123.518C118.684 123.491 118.556 123.477 118.427 123.477V123.477Z" fill="#D1D3D4"/>
<path d="M245.934 150.415L179.018 184.936L63.7677 157.466L123.198 129.84L245.934 150.415Z" fill="white"/>
<path d="M179.018 185.249H178.942L63.6926 157.766C63.629 157.752 63.5716 157.718 63.5286 157.669C63.4857 157.62 63.4595 157.558 63.4538 157.494C63.4481 157.429 63.4627 157.364 63.4958 157.308C63.5288 157.252 63.5785 157.207 63.6381 157.181L123.068 129.555C123.128 129.538 123.192 129.538 123.252 129.555L245.989 150.136C246.054 150.146 246.115 150.176 246.162 150.223C246.208 150.269 246.239 150.33 246.248 150.395C246.259 150.46 246.249 150.526 246.219 150.584C246.19 150.643 246.143 150.691 246.085 150.722L179.161 185.242C179.114 185.254 179.065 185.256 179.018 185.249V185.249ZM64.7164 157.344L178.977 184.568L244.958 150.538L123.246 130.119L64.7164 157.344Z" fill="#D1D3D4"/>
<path d="M172.357 48.766C172.056 48.5755 171.599 48.4053 171.394 48.6912C171.19 48.977 171.394 49.2697 171.592 49.5011C172.527 50.6789 173.563 51.7721 174.691 52.768C174.84 52.9391 175.051 53.0443 175.278 53.0607C175.633 53.0607 175.824 52.5979 175.776 52.2371C175.537 50.4948 173.722 49.6644 172.357 48.766Z" fill="white"/>
<path d="M175.25 53.367C174.958 53.3451 174.685 53.2138 174.486 52.9994C173.342 51.9934 172.291 50.8863 171.347 49.6917C170.889 49.1199 170.985 48.732 171.142 48.5142C171.415 48.1399 171.954 48.1331 172.507 48.5142L173.155 48.9294C174.418 49.7053 175.844 50.5833 176.062 52.2031C176.084 52.359 176.073 52.5176 176.032 52.6695C175.991 52.8214 175.92 52.9636 175.824 53.0879C175.756 53.1703 175.672 53.2382 175.577 53.2873C175.482 53.3364 175.378 53.3658 175.271 53.3738L175.25 53.367ZM171.722 48.8477C171.698 48.8388 171.671 48.8388 171.647 48.8477C171.647 48.8953 171.647 49.0655 171.838 49.2833C172.758 50.4475 173.782 51.5272 174.895 52.5094C174.996 52.6096 175.12 52.6822 175.257 52.7204C175.257 52.7204 175.312 52.7204 175.366 52.6591C175.448 52.5394 175.482 52.394 175.462 52.2507C175.284 50.9236 174.049 50.1613 172.848 49.4194L172.166 49.0042C172.034 48.9149 171.881 48.861 171.722 48.8477V48.8477Z" fill="#231F20"/>
<path d="M183.884 60.2071L182.082 58.2469C182.082 58.2469 182.157 55.4837 181.795 54.9051C181.434 54.3266 175.141 50.2089 175.196 50.3655C175.25 50.522 175.612 55.7423 175.612 55.7423L182.314 63.9096L183.884 60.2071Z" fill="white"/>
<path d="M182.314 64.1819C182.268 64.1812 182.223 64.1704 182.182 64.1504C182.141 64.1305 182.104 64.1017 182.075 64.0662L175.373 55.8988C175.333 55.8483 175.309 55.7865 175.305 55.7219C175.162 53.68 174.937 50.6309 174.896 50.3927C174.872 50.3232 174.876 50.247 174.908 50.1807C174.94 50.1145 174.997 50.0635 175.066 50.0388C175.244 49.9571 175.326 49.9163 178.574 52.0806C180.697 53.5167 181.87 54.3879 182.055 54.6805C182.423 55.2591 182.41 57.403 182.396 58.0836L184.116 59.9485C184.156 59.993 184.182 60.0481 184.192 60.1072C184.202 60.1664 184.194 60.227 184.17 60.282L182.601 63.9573C182.581 64.0067 182.548 64.0502 182.506 64.0835C182.464 64.1169 182.415 64.139 182.362 64.1478L182.314 64.1819ZM175.919 55.6062L182.232 63.2767L183.522 60.2548L181.85 58.4443C181.796 58.3845 181.767 58.3068 181.768 58.2265C181.802 57.1171 181.768 55.402 181.529 55.0617C181.29 54.7214 177.025 51.8084 175.564 50.91C175.626 51.577 175.728 52.9042 175.919 55.6198V55.6062Z" fill="#231F20"/>
<path d="M198.803 55.7423L192.66 67.9933L184.252 58.6621L180.157 64.9305C180.157 64.9305 194.551 84.8724 197.69 83.307C200.83 81.7416 206.849 67.3331 206.849 67.3331L198.803 55.7423Z" fill="#F6CA1C"/>
<path d="M209.627 100.799L194.612 146.032C194.612 146.032 179.843 144.045 179.639 143.432C179.434 142.82 188.934 140.621 188.934 140.621L200.966 96.9805" fill="white"/>
<path d="M194.64 146.372H194.564C179.55 144.331 179.4 143.793 179.318 143.548C179.288 143.436 179.3 143.318 179.352 143.214C179.741 142.534 185.262 141.139 188.661 140.342L200.638 96.892C200.663 96.8017 200.722 96.7249 200.804 96.6783C200.885 96.6317 200.981 96.6192 201.072 96.6436C201.162 96.6679 201.239 96.7272 201.286 96.8082C201.333 96.8893 201.345 96.9855 201.321 97.0758L189.282 140.717C189.268 140.776 189.237 140.83 189.194 140.873C189.15 140.917 189.096 140.947 189.036 140.962C186.084 141.592 183.171 142.396 180.314 143.371C182.198 143.902 189.548 145.004 194.394 145.665L209.299 100.697C209.327 100.611 209.388 100.54 209.469 100.499C209.55 100.458 209.643 100.451 209.729 100.479C209.814 100.508 209.884 100.569 209.925 100.649C209.966 100.729 209.974 100.822 209.947 100.908L194.933 146.148C194.91 146.209 194.871 146.262 194.819 146.302C194.767 146.342 194.705 146.366 194.64 146.372V146.372Z" fill="#231F20"/>
<path d="M225.917 97.3957L229.036 148.285C229.036 148.285 214.199 151.497 214.138 151.116C214.076 150.735 222.136 144.991 222.136 144.991L216.076 98.0286" fill="white"/>
<path d="M214.24 151.463C214.141 151.476 214.041 151.457 213.954 151.409C213.874 151.349 213.82 151.262 213.803 151.164C213.769 150.919 213.722 150.579 221.775 144.861L215.721 98.0695C215.715 98.0248 215.718 97.9794 215.73 97.9359C215.742 97.8924 215.762 97.8516 215.79 97.8159C215.817 97.7802 215.852 97.7502 215.891 97.7278C215.93 97.7053 215.973 97.6907 216.018 97.6849C216.063 97.6791 216.108 97.6822 216.152 97.6939C216.196 97.7056 216.237 97.7258 216.272 97.7533C216.308 97.7808 216.338 97.8151 216.361 97.8541C216.383 97.8932 216.398 97.9363 216.404 97.981L222.464 144.977C222.471 145.038 222.461 145.1 222.436 145.156C222.411 145.213 222.371 145.261 222.321 145.297C219.953 146.978 216.356 149.599 214.977 150.742C217.284 150.415 224.102 149.006 228.668 148.019L225.563 97.4161C225.559 97.3269 225.59 97.2399 225.65 97.1737C225.71 97.1075 225.794 97.0674 225.883 97.0622C225.928 97.0575 225.973 97.062 226.016 97.0754C226.059 97.0889 226.098 97.111 226.132 97.1403C226.166 97.1697 226.194 97.2057 226.213 97.2461C226.233 97.2865 226.243 97.3305 226.245 97.3753L229.371 148.265C229.377 148.346 229.354 148.427 229.305 148.492C229.256 148.557 229.185 148.602 229.105 148.618C217.769 151.082 214.977 151.463 214.24 151.463Z" fill="#231F20"/>
<path d="M185.829 140.41L187.828 143.459L195.65 144.378L194.878 147.366C194.878 147.366 177.659 145.222 177.264 143.65C176.868 142.078 185.829 140.41 185.829 140.41Z" fill="#231F20"/>
<path d="M206.119 50.4199C206.119 50.4199 200.714 51.7063 199.082 55.0481C197.451 58.3899 199.403 76.2763 199.403 76.2763L223.406 77.304C223.406 77.304 225.863 64.1206 224.662 58.4715C223.46 52.8225 218.656 45.2881 206.119 50.4199Z" fill="#F6CA1C"/>
<path d="M206.167 47.9629L206.337 53.1764C206.337 53.1764 206.979 56.069 210.125 55.0549C211.056 54.7498 211.906 54.2414 212.615 53.5667C213.323 52.892 213.871 52.068 214.22 51.155L213.503 42.1437C212.909 41.8374 212.455 41.3164 212.234 40.6872C212.05 40.2223 211.946 39.7299 211.927 39.2307C211.927 39.0401 211.927 37.9103 212.104 37.8286C211.513 38.0523 210.877 38.1301 210.25 38.0554C209.622 37.9808 209.022 37.7558 208.501 37.3998C207.936 36.9736 207.437 36.4668 207.02 35.8957C206.685 35.5649 206.487 35.12 206.467 34.6502C205.593 35.5032 204.761 36.3948 203.969 37.325C203.528 37.8182 203.148 38.362 202.836 38.9448C202.435 40.0318 202.313 41.2018 202.481 42.3479C202.547 43.6637 202.729 44.9711 203.027 46.2546C203.635 48.6707 206.167 47.9629 206.167 47.9629Z" fill="white"/>
<path d="M208.896 55.5789C208.405 55.5872 207.92 55.465 207.491 55.225C206.774 54.775 206.26 54.0649 206.057 53.2444L205.887 48.3372C205.211 48.4426 204.52 48.3281 203.914 48.0105C203.61 47.8233 203.348 47.5756 203.143 47.2829C202.939 46.9902 202.797 46.6587 202.727 46.309C202.423 45.0081 202.238 43.6822 202.174 42.3479C202.001 41.1549 202.132 39.9375 202.556 38.8087C202.878 38.2029 203.272 37.6384 203.73 37.1276C204.522 36.1883 205.368 35.2831 206.248 34.4051C206.293 34.3607 206.351 34.3314 206.414 34.3217C206.476 34.3119 206.54 34.322 206.597 34.3507C206.655 34.3763 206.704 34.4198 206.735 34.4749C206.767 34.53 206.781 34.5937 206.774 34.657C206.809 35.0453 206.983 35.408 207.265 35.6779C207.663 36.2271 208.139 36.7155 208.678 37.1276C209.159 37.4502 209.71 37.6542 210.285 37.7228C210.861 37.7915 211.444 37.7227 211.988 37.5223V37.5223C212.026 37.507 212.067 37.4995 212.108 37.5001C212.149 37.5008 212.189 37.5096 212.227 37.5261C212.264 37.5426 212.298 37.5664 212.326 37.5962C212.355 37.6259 212.376 37.661 212.391 37.6993C212.416 37.7583 212.422 37.8238 212.407 37.8863C212.393 37.9488 212.358 38.0049 212.309 38.0464C212.237 38.4253 212.214 38.8119 212.241 39.1966C212.253 39.6632 212.348 40.124 212.52 40.5579C212.719 41.1088 213.112 41.5687 213.626 41.851C213.679 41.8723 213.725 41.9077 213.758 41.9533C213.792 41.999 213.812 42.0531 213.817 42.1097L214.5 51.1141C214.51 51.1543 214.51 51.1964 214.5 51.2366C214.146 52.1924 213.581 53.0567 212.848 53.7659C212.114 54.475 211.23 55.0109 210.261 55.3339C209.823 55.4884 209.362 55.5711 208.896 55.5789ZM206.672 53.1628C206.753 53.5119 206.912 53.8383 207.138 54.1175C207.363 54.3967 207.649 54.6216 207.974 54.7753C208.299 54.929 208.654 55.0077 209.013 55.0054C209.373 55.0032 209.727 54.92 210.05 54.7622C210.919 54.4678 211.713 53.9893 212.379 53.3596C213.044 52.7298 213.565 51.9638 213.906 51.1141L213.223 42.3479C212.643 41.9865 212.199 41.4431 211.961 40.8029C211.763 40.3036 211.652 39.7741 211.633 39.2375C211.609 38.9317 211.607 38.6247 211.626 38.3187C211.06 38.4431 210.474 38.4506 209.905 38.3405C209.336 38.2305 208.795 38.0053 208.316 37.6789C207.725 37.2335 207.203 36.7038 206.767 36.1067C206.559 35.866 206.389 35.5952 206.262 35.3035C205.548 36.025 204.865 36.7737 204.215 37.5496C203.79 38.0198 203.425 38.5411 203.13 39.1014C202.75 40.1321 202.637 41.2417 202.802 42.3274C202.864 43.6252 203.044 44.9147 203.341 46.1797C203.391 46.4474 203.497 46.7017 203.651 46.9267C203.805 47.1516 204.004 47.3422 204.235 47.4865C204.819 47.7681 205.482 47.8379 206.112 47.6839C206.157 47.6729 206.204 47.6714 206.25 47.6797C206.296 47.6879 206.34 47.7055 206.378 47.7315C206.416 47.7607 206.446 47.7979 206.467 47.8402C206.488 47.8826 206.5 47.9292 206.501 47.9765L206.678 53.1832L206.672 53.1628Z" fill="#231F20"/>
<path d="M211.626 41.7694C211.69 41.3803 211.882 41.0235 212.172 40.7552C212.451 40.5143 212.77 40.3232 213.114 40.1903C213.294 40.0982 213.492 40.047 213.694 40.0406C213.835 40.0527 213.971 40.092 214.097 40.1563C214.418 40.2829 214.679 40.5261 214.827 40.8369C214.92 41.0891 214.953 41.3594 214.923 41.6264C214.907 41.9195 214.857 42.2096 214.772 42.4908C214.576 43.0484 214.166 43.5059 213.633 43.7635C213.098 44.0147 212.486 44.0489 211.927 43.8588" fill="white"/>
<path d="M212.664 44.2264C212.38 44.2259 212.098 44.1776 211.831 44.0834C211.764 44.0574 211.71 44.0069 211.68 43.9424C211.649 43.8778 211.645 43.8041 211.667 43.7363C211.692 43.6688 211.742 43.6137 211.808 43.5831C211.873 43.5525 211.947 43.5489 212.015 43.573C212.505 43.7441 213.042 43.7148 213.51 43.4913C213.97 43.2697 214.327 42.8796 214.506 42.4023C214.588 42.1442 214.633 41.8764 214.643 41.606C214.673 41.3764 214.648 41.1428 214.568 40.9254C214.438 40.6903 214.231 40.5075 213.981 40.4081C213.886 40.3566 213.781 40.3264 213.674 40.3196C213.514 40.3283 213.359 40.37 213.216 40.4422C212.899 40.5627 212.606 40.7378 212.35 40.9594C212.103 41.1878 211.939 41.4921 211.886 41.8238C211.865 41.8856 211.823 41.9381 211.768 41.9718C211.712 42.0055 211.646 42.0181 211.581 42.0074C211.517 41.9967 211.459 41.9634 211.417 41.9135C211.375 41.8636 211.352 41.8004 211.353 41.7353C211.426 41.2862 211.647 40.8742 211.981 40.5647C212.28 40.3012 212.625 40.0937 212.998 39.9521C213.209 39.8423 213.443 39.7818 213.681 39.7752C213.859 39.787 214.034 39.8357 214.192 39.9181C214.557 40.0698 214.856 40.3445 215.039 40.694C215.153 40.9861 215.192 41.3017 215.155 41.6128C215.144 41.9297 215.089 42.2436 214.991 42.5452C214.826 43.0369 214.509 43.464 214.086 43.7659C213.664 44.0677 213.156 44.2289 212.636 44.2264H212.664Z" fill="#231F20"/>
<path d="M206.317 50.522C207.598 50.4886 208.818 49.9702 209.729 49.0723C210.102 48.6961 210.388 48.2441 210.57 47.7472C210.751 47.2504 210.823 46.7203 210.78 46.1933C210.78 46.1933 208.296 48.2351 206.167 47.9629L206.317 50.522Z" fill="#231F20"/>
<path d="M206.317 50.8215C206.278 50.8224 206.24 50.8157 206.204 50.8018C206.168 50.7879 206.135 50.7671 206.107 50.7406C206.079 50.714 206.057 50.6823 206.041 50.6471C206.026 50.6119 206.017 50.5741 206.016 50.5356L205.887 47.9765C205.883 47.9332 205.89 47.8897 205.907 47.8495C205.924 47.8094 205.949 47.7736 205.982 47.7451C206.014 47.715 206.051 47.6921 206.093 47.678C206.134 47.6639 206.178 47.6589 206.221 47.6634C208.207 47.9153 210.582 45.9823 210.609 45.9619C210.65 45.9292 210.698 45.9077 210.75 45.8993C210.801 45.891 210.854 45.8961 210.903 45.9143C210.951 45.9327 210.994 45.9629 211.027 46.0022C211.061 46.0414 211.084 46.0884 211.094 46.1389C211.148 46.7106 211.076 47.2872 210.883 47.8282C210.689 48.3691 210.379 48.8612 209.975 49.2697C209.004 50.241 207.692 50.7975 206.317 50.8215V50.8215ZM206.501 48.2828L206.603 50.2021C207.71 50.1159 208.748 49.6322 209.524 48.8409C210.064 48.2676 210.408 47.5385 210.507 46.7582C209.364 47.6174 208.002 48.1386 206.576 48.2624L206.501 48.2828Z" fill="#231F20"/>
<path d="M206.467 40.2924C206.467 40.2924 204.89 42.8583 205.307 43.2803C205.723 43.7023 206.829 43.3688 206.829 43.3688" fill="white"/>
<path d="M206.003 43.7635C205.67 43.7873 205.342 43.6798 205.088 43.4641C204.61 42.974 205.436 41.3678 206.214 40.1087C206.235 40.0744 206.262 40.0445 206.294 40.0208C206.326 39.9971 206.362 39.98 206.401 39.9705C206.44 39.961 206.48 39.9593 206.519 39.9655C206.559 39.9717 206.597 39.9856 206.631 40.0066C206.697 40.0499 206.745 40.1174 206.763 40.1949C206.78 40.2724 206.767 40.3537 206.726 40.4217C206.044 41.5788 205.464 42.8175 205.539 43.0693C205.716 43.2327 206.364 43.1646 206.74 43.0693C206.778 43.0579 206.818 43.0541 206.857 43.0582C206.897 43.0622 206.935 43.0741 206.97 43.0931C207.005 43.1121 207.036 43.1379 207.061 43.1688C207.086 43.1998 207.104 43.2354 207.115 43.2735C207.139 43.3493 207.131 43.4313 207.094 43.5015C207.057 43.5717 206.993 43.6243 206.917 43.6478C206.619 43.7257 206.311 43.7646 206.003 43.7635V43.7635Z" fill="#231F20"/>
<path d="M209.673 40.3817C209.73 40.0633 209.591 39.773 209.365 39.7333C209.139 39.6935 208.909 39.9194 208.853 40.2378C208.797 40.5562 208.935 40.8465 209.162 40.8862C209.388 40.9259 209.617 40.7001 209.673 40.3817Z" fill="#231F20"/>
<path d="M204.565 41.1616C204.621 40.8433 204.483 40.5529 204.256 40.5132C204.03 40.4735 203.801 40.6994 203.745 41.0177C203.688 41.3361 203.827 41.6264 204.053 41.6661C204.279 41.7059 204.509 41.48 204.565 41.1616Z" fill="#231F20"/>
<path d="M204.849 44.7028C204.849 44.7028 206.446 46.8671 209.012 44.6211Z" fill="white"/>
<path d="M206.753 45.9415H206.467C205.733 45.8456 205.065 45.47 204.604 44.8933C204.558 44.828 204.539 44.7473 204.552 44.6685C204.565 44.5897 204.608 44.519 204.672 44.4714C204.737 44.4264 204.817 44.4077 204.896 44.4191C204.974 44.4304 205.045 44.471 205.095 44.5326C205.455 44.9775 205.973 45.2674 206.542 45.3425C206.965 45.3511 207.385 45.2728 207.776 45.1123C208.167 44.9519 208.52 44.7129 208.815 44.4101C208.871 44.3544 208.947 44.3232 209.026 44.3232C209.105 44.3232 209.181 44.3544 209.238 44.4101C209.294 44.4674 209.325 44.5443 209.325 44.6245C209.325 44.7047 209.294 44.7816 209.238 44.8389C208.574 45.4982 207.689 45.8907 206.753 45.9415V45.9415Z" fill="#231F20"/>
<path d="M220.983 77.1135C220.983 77.1135 226.777 83.5384 228.388 90.6236C231.8 105.529 230.838 134.598 230.838 134.598L187.501 127.295L198.352 75.9292L220.983 77.1135Z" fill="#231F20"/>
<path d="M230.422 148.972L229.971 145.903L220.901 148.401L219.133 146.073C219.133 146.073 212.5 150.878 213.401 151.913C214.302 152.947 224.136 151.062 230.422 148.972Z" fill="#231F20"/>
<path d="M225.276 91.032C225.385 91.345 226.429 93.6659 226.272 95.313C226.115 96.9601 225.406 100.322 225.876 100.397C226.347 100.472 227.371 100.561 227.685 96.7967C227.685 96.7967 228.367 104.236 229.412 102.67C230.456 101.105 229.098 97.1098 229.098 97.1098C229.098 97.1098 230.278 102.514 230.981 102.126C231.684 101.738 230.667 97.0349 230.667 97.0349C230.667 97.0349 231.452 102.201 232.319 101.656C233.186 101.112 232.237 96.5653 232.237 96.5653C232.237 96.5653 232.92 102.514 233.889 101.418C234.858 100.322 232.005 89.8477 232.005 89.8477" fill="white"/>
<path d="M229.146 103.201H229.023C228.34 103.038 227.924 101.03 227.658 99.0632C227.546 99.6124 227.267 100.114 226.859 100.499C226.718 100.607 226.556 100.683 226.382 100.722C226.209 100.761 226.03 100.761 225.856 100.724C225.269 100.622 225.351 99.7506 225.747 97.0826C225.849 96.402 225.945 95.7758 225.986 95.2926C226.115 93.9314 225.351 92.0188 225.098 91.3859C225.057 91.2702 225.023 91.1885 225.01 91.1408C224.984 91.0623 224.99 90.9767 225.027 90.9028C225.064 90.8288 225.129 90.7725 225.208 90.7461C225.246 90.7334 225.287 90.7284 225.327 90.7314C225.368 90.7345 225.407 90.7455 225.443 90.7639C225.48 90.7822 225.512 90.8075 225.538 90.8384C225.564 90.8692 225.584 90.9049 225.597 90.9435C225.597 90.9843 225.644 91.0592 225.679 91.1545C225.972 91.8963 226.75 93.8769 226.607 95.3538C226.559 95.8507 226.463 96.4973 226.368 97.1711C226.179 98.1445 226.081 99.1334 226.074 100.125C226.146 100.134 226.218 100.128 226.288 100.108C226.357 100.088 226.421 100.055 226.477 100.009C226.798 99.7574 227.214 99.0019 227.398 96.7831C227.407 96.7061 227.444 96.635 227.502 96.5834C227.56 96.5319 227.635 96.5036 227.712 96.5041V96.5041C227.789 96.5038 227.863 96.5323 227.92 96.5839C227.977 96.6356 228.013 96.7067 228.019 96.7831C228.258 99.2673 228.756 102.078 229.152 102.555C229.15 102.541 229.15 102.527 229.152 102.514C229.589 101.833 229.528 100.567 229.33 99.3898C229.105 98.5595 228.913 97.736 228.791 97.1915C228.776 97.1132 228.79 97.0322 228.832 96.9642C228.874 96.8963 228.939 96.8462 229.016 96.8239C229.093 96.8027 229.175 96.8121 229.245 96.8502C229.315 96.8883 229.368 96.9521 229.391 97.0281C229.622 97.7433 229.805 98.4732 229.937 99.2129C230.138 100.103 230.455 100.964 230.879 101.772C230.965 100.862 230.915 99.9445 230.729 99.0495C230.558 98.2941 230.435 97.5522 230.36 97.0622C230.353 97.0224 230.355 96.9816 230.364 96.9423C230.373 96.9029 230.389 96.8657 230.413 96.8328C230.436 96.7999 230.466 96.772 230.5 96.7506C230.535 96.7292 230.573 96.7148 230.613 96.7082C230.692 96.694 230.774 96.7107 230.842 96.7551C230.909 96.7995 230.957 96.868 230.975 96.9465C231.118 97.6271 231.254 98.3077 231.357 98.9883C231.481 99.8181 231.761 100.617 232.183 101.343C232.387 101.132 232.421 100.213 232.305 99.0087C232.135 98.1647 232.012 97.28 231.93 96.5789C231.927 96.5029 231.952 96.4284 232.001 96.3695C232.049 96.3106 232.117 96.2711 232.192 96.2586C232.267 96.2461 232.345 96.2614 232.409 96.3015C232.474 96.3417 232.522 96.404 232.544 96.4768C232.64 96.9601 232.824 97.9061 232.926 98.8862C233.014 99.6898 233.245 100.471 233.609 101.193C234.1 100.384 233.008 94.8774 231.671 89.8885C231.65 89.8091 231.661 89.7247 231.702 89.6534C231.743 89.5821 231.81 89.5297 231.889 89.5074C231.97 89.4867 232.055 89.4987 232.127 89.5408C232.198 89.5829 232.25 89.6517 232.271 89.732C232.954 92.2298 235.063 100.465 234.093 101.602C234.024 101.698 233.926 101.77 233.814 101.809C233.702 101.848 233.58 101.852 233.466 101.82C233.247 101.752 233.049 101.493 232.872 101.139C232.839 101.445 232.687 101.726 232.449 101.922C232.371 101.972 232.283 102.001 232.191 102.009C232.099 102.016 232.007 102 231.923 101.963C231.735 101.848 231.584 101.683 231.486 101.486C231.439 101.949 231.323 102.276 231.097 102.405C231.03 102.437 230.957 102.454 230.882 102.454C230.808 102.454 230.735 102.437 230.667 102.405C230.375 102.187 230.156 101.885 230.04 101.541C230.013 101.998 229.875 102.442 229.637 102.834C229.592 102.931 229.524 103.016 229.438 103.08C229.352 103.144 229.252 103.186 229.146 103.201V103.201Z" fill="#231F20"/>
<path d="M223.324 54.4287L235.547 89.5686L223.774 92.856C223.774 92.856 218.274 67.1765 218.117 64.9509C217.96 62.7254 223.324 54.4287 223.324 54.4287Z" fill="#F6CA1C"/>
<path d="M223.911 54.0067C223.838 54.0043 223.769 53.978 223.713 53.9319C223.654 53.8794 223.617 53.8063 223.611 53.7277C223.605 53.6491 223.629 53.5711 223.679 53.5099C224.846 52.1487 224.587 50.1068 223.733 48.7456C222.69 47.2937 221.218 46.2037 219.523 45.6284C218.466 45.1063 217.282 44.8984 216.11 45.0295C216.045 45.04 215.979 45.029 215.921 44.9983C215.863 44.9675 215.817 44.9187 215.789 44.8593C215.761 44.8009 215.752 44.7348 215.764 44.671C215.776 44.6071 215.809 44.549 215.858 44.5054C218.096 42.5384 219.099 39.571 218.362 37.1276C217.965 36.0108 217.295 35.0101 216.413 34.2153C215.532 33.4205 214.466 32.8566 213.312 32.5743C210.947 32.0264 208.47 32.214 206.214 33.112C206.164 33.1314 206.11 33.1372 206.058 33.1289C206.005 33.1205 205.955 33.0982 205.914 33.0643C205.38 32.62 204.754 32.2996 204.081 32.1263C203.408 31.953 202.705 31.9311 202.022 32.0623C201.34 32.1934 200.695 32.4743 200.134 32.8845C199.574 33.2948 199.112 33.8242 198.782 34.4344C198.452 35.0446 198.263 35.7203 198.227 36.4126C198.191 37.105 198.31 37.7966 198.575 38.4374C198.84 39.0782 199.245 39.6522 199.76 40.1179C200.275 40.5835 200.887 40.9291 201.553 41.1296C201.631 41.1532 201.696 41.2065 201.734 41.278C201.773 41.3494 201.781 41.4331 201.758 41.5107C201.733 41.587 201.679 41.6504 201.607 41.6873C201.536 41.7243 201.452 41.7317 201.376 41.7081C200.372 41.4054 199.482 40.8119 198.818 40.0031C198.154 39.1942 197.746 38.2066 197.646 37.1659C197.547 36.1252 197.76 35.0785 198.259 34.1591C198.758 33.2396 199.519 32.4889 200.447 32.0026C201.352 31.5467 202.367 31.351 203.377 31.4376C204.387 31.5241 205.353 31.8894 206.166 32.4926C208.495 31.5995 211.039 31.4241 213.469 31.989C214.723 32.2938 215.88 32.9079 216.834 33.7748C217.788 34.6417 218.508 35.7338 218.929 36.9506C219.659 39.3804 218.826 42.273 216.881 44.3693C217.876 44.4084 218.855 44.6395 219.761 45.0499C221.898 45.9211 223.372 47.0169 224.252 48.3985C225.228 49.9367 225.508 52.312 224.157 53.891C224.127 53.9274 224.089 53.9567 224.047 53.9768C224.004 53.9968 223.958 54.007 223.911 54.0067V54.0067Z" fill="#231F20"/>
<path d="M213.674 40.0406C213.674 40.0406 213.394 33.112 209.702 32.0162C210.919 31.8637 212.155 31.9493 213.339 32.268C213.339 32.268 215.769 36.7873 213.674 40.0406Z" fill="#231F20"/>
<path d="M213.674 40.3605H213.592C213.53 40.3432 213.476 40.3068 213.437 40.2566C213.398 40.2064 213.375 40.1451 213.373 40.0814C213.373 40.0134 213.06 33.3502 209.62 32.3293C209.555 32.3097 209.498 32.2689 209.458 32.2135C209.418 32.158 209.399 32.091 209.401 32.023C209.408 31.9536 209.438 31.8884 209.486 31.8378C209.535 31.7873 209.598 31.7542 209.668 31.744C210.931 31.5875 212.213 31.6776 213.442 32.0094C213.512 32.0355 213.57 32.0863 213.606 32.1523C213.708 32.3429 216.076 36.869 213.926 40.2312C213.898 40.2714 213.86 40.3042 213.816 40.3267C213.772 40.3492 213.723 40.3608 213.674 40.3605V40.3605ZM210.862 32.2612C212.984 33.7245 213.66 37.1957 213.879 38.9652C214.848 36.3041 213.428 33.146 213.128 32.5335C212.395 32.3279 211.637 32.2293 210.876 32.2408L210.862 32.2612Z" fill="#231F20"/>
<path d="M198.659 74.99H198.591C198.552 74.9811 198.516 74.9648 198.484 74.9419C198.451 74.9189 198.424 74.8899 198.403 74.8563C198.382 74.8228 198.368 74.7855 198.362 74.7465C198.355 74.7075 198.357 74.6677 198.366 74.6292L202.29 57.5595C202.299 57.521 202.315 57.4846 202.338 57.4525C202.361 57.4203 202.39 57.393 202.424 57.3722C202.458 57.3513 202.495 57.3372 202.534 57.3308C202.573 57.3245 202.613 57.3258 202.652 57.3349C202.73 57.3528 202.798 57.4006 202.841 57.4681C202.885 57.5355 202.9 57.6172 202.884 57.6956L198.953 74.7654C198.936 74.8301 198.898 74.8874 198.845 74.9281C198.792 74.9688 198.726 74.9906 198.659 74.99V74.99Z" fill="#231F20"/>
<path d="M220.266 76.4328C220.197 76.433 220.129 76.4096 220.074 76.3663C220.02 76.323 219.982 76.2624 219.966 76.1946L216.513 59.0705C216.505 59.0316 216.505 58.9915 216.513 58.9525C216.52 58.9136 216.536 58.8766 216.558 58.8437C216.58 58.8107 216.609 58.7825 216.642 58.7607C216.675 58.7389 216.713 58.7239 216.752 58.7165C216.791 58.7087 216.831 58.7086 216.87 58.7163C216.909 58.724 216.946 58.7394 216.979 58.7616C217.012 58.7838 217.04 58.8123 217.062 58.8454C217.084 58.8786 217.099 58.9157 217.107 58.9548L220.56 76.0721C220.576 76.1506 220.561 76.2323 220.518 76.2997C220.474 76.3671 220.406 76.4149 220.328 76.4328H220.266Z" fill="#231F20"/>
<path d="M195.561 70.8655C195.52 70.867 195.48 70.8599 195.442 70.8446C195.405 70.8294 195.371 70.8063 195.343 70.777L184.034 58.8731C184.007 58.8445 183.985 58.8108 183.971 58.7739C183.957 58.7371 183.95 58.6978 183.951 58.6583C183.952 58.6188 183.96 58.5799 183.976 58.5437C183.992 58.5076 184.015 58.475 184.044 58.4477C184.073 58.4204 184.107 58.3991 184.144 58.3849C184.18 58.3706 184.22 58.3638 184.259 58.3647C184.299 58.3657 184.338 58.3744 184.374 58.3904C184.411 58.4064 184.443 58.4293 184.471 58.4579L195.779 70.3618C195.808 70.3891 195.83 70.4219 195.846 70.4581C195.861 70.4944 195.869 70.5334 195.869 70.5728C195.869 70.6122 195.861 70.6512 195.846 70.6875C195.83 70.7237 195.808 70.7565 195.779 70.7838C195.751 70.8119 195.716 70.8337 195.679 70.8478C195.641 70.8618 195.601 70.8679 195.561 70.8655Z" fill="#231F20"/>
<path d="M182.021 57.4166H175.523L169.013 43.3756H175.503L182.021 57.4166Z" fill="#231F20"/>
<path d="M182.082 58.2469C182.082 58.2469 182.314 54.4491 182.082 54.1633C181.85 53.8774 179.693 51.3047 179.495 51.856C179.402 52.7321 179.566 53.6163 179.966 54.4015C180.28 54.946 181.263 56.4433 181.263 56.4433" fill="white"/>
<path d="M182.082 58.56C181.999 58.5531 181.922 58.5144 181.868 58.4523C181.813 58.3901 181.785 58.3092 181.788 58.2265C181.908 56.9119 181.931 55.5902 181.857 54.2722C181.254 53.4902 180.567 52.7759 179.809 52.1419C179.823 52.8499 179.991 53.5465 180.301 54.1837C180.601 54.7146 181.57 56.1847 181.584 56.2255C181.606 56.2593 181.622 56.2974 181.63 56.3374C181.638 56.3774 181.638 56.4186 181.63 56.4585C181.621 56.4985 181.605 56.5364 181.582 56.57C181.559 56.6036 181.529 56.6323 181.495 56.6543C181.425 56.6989 181.34 56.7146 181.259 56.6981C181.177 56.6816 181.105 56.6342 181.058 56.5658C181.058 56.5046 180.069 55.0617 179.755 54.524C179.441 53.9863 179.018 52.4141 179.263 51.7199C179.289 51.6452 179.335 51.5793 179.397 51.5299C179.458 51.4805 179.533 51.4496 179.611 51.4408C180.369 51.3524 182.396 53.9455 182.409 53.9727C182.573 54.2381 182.58 55.681 182.409 58.2674C182.408 58.3082 182.398 58.3483 182.38 58.3852C182.363 58.4222 182.338 58.4553 182.308 58.4826C182.277 58.5098 182.241 58.5308 182.203 58.5441C182.164 58.5574 182.123 58.5628 182.082 58.56V58.56Z" fill="#231F20"/>
<path d="M172.875 52.6115C172.91 52.3932 173.008 52.1899 173.157 52.0266C173.306 51.8633 173.5 51.7472 173.715 51.6927C173.937 51.6755 174.161 51.7131 174.365 51.8021C174.57 51.8911 174.75 52.0288 174.889 52.2031C175.667 53.0198 176.465 55.4428 175.005 56.0281C173.544 56.6135 172.67 53.6392 172.875 52.6115Z" fill="white"/>
<path d="M174.595 56.4161C174.275 56.4136 173.967 56.295 173.728 56.0826C172.814 55.3339 172.398 53.4214 172.575 52.5434C172.619 52.2637 172.746 52.0036 172.939 51.7963C173.133 51.5889 173.384 51.4438 173.66 51.3796C173.934 51.3505 174.211 51.3908 174.465 51.4967C174.719 51.6026 174.942 51.7706 175.114 51.9853C175.486 52.4159 175.763 52.9193 175.929 53.463C176.095 54.0068 176.145 54.5791 176.076 55.1433C176.031 55.4032 175.92 55.647 175.752 55.851C175.585 56.0549 175.367 56.2121 175.121 56.3072C174.954 56.3778 174.776 56.4148 174.595 56.4161V56.4161ZM173.865 51.9853H173.769C173.617 52.0322 173.481 52.1209 173.378 52.2413C173.274 52.3617 173.206 52.5089 173.182 52.6659V52.6659C173.136 53.1938 173.195 53.7257 173.357 54.2306C173.518 54.7354 173.779 55.2031 174.124 55.6062C174.223 55.7025 174.35 55.7665 174.486 55.7896C174.623 55.8127 174.763 55.7938 174.889 55.7355C175.04 55.6765 175.174 55.5788 175.275 55.4522C175.377 55.3255 175.444 55.1744 175.469 55.014C175.515 54.5485 175.467 54.0785 175.327 53.6318C175.188 53.1852 174.96 52.7711 174.657 52.4141C174.455 52.1784 174.173 52.0257 173.865 51.9853V51.9853Z" fill="#231F20"/>
<path d="M197.294 54.5921C197.242 54.5919 197.19 54.578 197.144 54.5518C197.099 54.5255 197.061 54.4877 197.035 54.4423C196.537 53.5748 196.244 52.6053 196.179 51.6078C196.114 50.6103 196.278 49.6111 196.659 48.6866C197.041 47.7621 197.629 46.9367 198.379 46.2734C199.128 45.61 200.02 45.1264 200.986 44.8593C201.064 44.8401 201.146 44.8512 201.216 44.8905C201.286 44.9297 201.338 44.994 201.362 45.0703C201.381 45.1478 201.37 45.2298 201.331 45.2994C201.291 45.369 201.227 45.4209 201.15 45.4446C200.273 45.6871 199.464 46.1259 198.783 46.7277C198.102 47.3294 197.567 48.0783 197.22 48.9172C196.873 49.7561 196.723 50.6629 196.781 51.5685C196.839 52.474 197.103 53.3545 197.554 54.1429C197.58 54.1883 197.594 54.2399 197.594 54.2924C197.594 54.3449 197.58 54.3965 197.554 54.442C197.527 54.4875 197.49 54.5253 197.444 54.5517C197.399 54.578 197.347 54.5919 197.294 54.5921V54.5921Z" fill="#231F20"/>
<path d="M199.014 87.4043C198.971 87.4114 198.927 87.4114 198.885 87.4043C198.843 87.3879 198.805 87.3633 198.773 87.332C198.741 87.3007 198.716 87.2633 198.698 87.222C198.681 87.1808 198.673 87.1365 198.673 87.0918C198.673 87.0471 198.682 87.0029 198.7 86.9619L202.468 77.9778C202.497 77.9076 202.55 77.8492 202.616 77.8122C202.683 77.7752 202.761 77.7616 202.836 77.7737C202.912 77.7869 202.981 77.8249 203.033 77.8815C203.085 77.9381 203.116 78.0103 203.123 78.0867L203.539 83.5316C203.543 83.576 203.537 83.6206 203.524 83.663C203.51 83.7053 203.488 83.7444 203.458 83.778C203.429 83.8116 203.393 83.8391 203.353 83.8587C203.313 83.8783 203.27 83.8898 203.225 83.8924C203.136 83.898 203.048 83.8683 202.98 83.8097C202.912 83.7512 202.87 83.6684 202.863 83.5793L202.549 79.5501L199.342 87.1933C199.315 87.2571 199.269 87.3113 199.21 87.3489C199.152 87.3865 199.084 87.4058 199.014 87.4043Z" fill="white"/>
<path d="M175.783 88.1598C175.783 88.1598 176.574 69.8514 176.922 69.5723C177.271 69.2933 189.057 70.8723 189.057 70.8723L186.45 88.3435L175.783 88.1598Z" fill="#231F20"/>
<path d="M156.892 169.969C156.892 169.969 156.687 174.257 158.502 175.019C162.597 176.741 176.8 168.778 175.011 166.634C173.223 164.49 168.514 165.743 168.514 165.743" fill="white"/>
<path d="M159.895 175.584C159.373 175.601 158.854 175.516 158.366 175.332C156.394 174.502 156.53 170.412 156.551 169.949C156.551 169.904 156.561 169.86 156.58 169.819C156.598 169.779 156.625 169.742 156.658 169.712C156.692 169.682 156.731 169.659 156.773 169.645C156.816 169.631 156.861 169.625 156.905 169.629C156.95 169.631 156.994 169.641 157.035 169.66C157.076 169.679 157.112 169.705 157.143 169.738C157.173 169.771 157.197 169.81 157.212 169.852C157.228 169.894 157.235 169.938 157.233 169.983C157.178 171.113 157.329 174.155 158.598 174.706C161.853 176.067 172.247 170.84 174.431 167.859C174.67 167.533 174.916 167.097 174.711 166.852C173.087 164.905 168.61 166.063 168.569 166.076C168.478 166.1 168.382 166.086 168.302 166.039C168.221 165.992 168.163 165.915 168.139 165.824C168.115 165.734 168.129 165.638 168.176 165.558C168.224 165.477 168.301 165.419 168.391 165.396C168.596 165.341 173.333 164.116 175.216 166.396C175.489 166.723 175.66 167.301 174.957 168.24C172.923 171.079 164.331 175.584 159.895 175.584Z" fill="#231F20"/>
<path d="M136.151 166.165C136.151 166.165 133.885 173.297 137.462 173.536C143.174 173.91 155.581 166.219 152.36 164.259C149.139 162.299 140.26 164.381 140.26 164.381" fill="white"/>
<path d="M137.919 173.89C137.762 173.89 137.612 173.89 137.462 173.89C137.117 173.88 136.78 173.789 136.479 173.623C136.177 173.457 135.92 173.222 135.728 172.937C134.363 170.895 135.79 166.273 135.851 166.076C135.879 165.99 135.94 165.919 136.021 165.878C136.101 165.838 136.195 165.83 136.281 165.858C136.324 165.871 136.364 165.893 136.399 165.922C136.433 165.951 136.461 165.986 136.482 166.026C136.502 166.066 136.514 166.11 136.517 166.155C136.52 166.2 136.514 166.245 136.499 166.287C136.499 166.328 135.093 170.8 136.295 172.556C136.427 172.758 136.607 172.926 136.818 173.044C137.03 173.163 137.267 173.228 137.509 173.236C141.413 173.495 151.5 168.662 152.524 165.47C152.594 165.312 152.601 165.134 152.544 164.971C152.487 164.808 152.37 164.673 152.217 164.592C149.152 162.727 140.458 164.728 140.376 164.749C140.331 164.759 140.285 164.761 140.239 164.753C140.194 164.745 140.151 164.729 140.112 164.705C140.073 164.68 140.039 164.648 140.012 164.611C139.985 164.574 139.966 164.532 139.956 164.487C139.946 164.442 139.944 164.396 139.952 164.351C139.96 164.305 139.976 164.262 140.001 164.223C140.025 164.184 140.057 164.151 140.094 164.124C140.132 164.098 140.174 164.079 140.219 164.068C140.587 163.98 149.275 161.979 152.572 163.987C152.855 164.147 153.071 164.404 153.181 164.71C153.291 165.015 153.288 165.35 153.172 165.654C152.196 168.594 143.024 173.883 137.919 173.89Z" fill="#231F20"/>
<path d="M133.142 90.6712C133.142 90.6712 127.893 106.366 131.469 107.312C135.046 108.258 142.198 103.269 142.198 103.269L139.966 88.4116L133.142 90.6712Z" fill="white"/>
<path d="M132.5 107.741C132.137 107.745 131.774 107.701 131.422 107.612C131.2 107.549 130.995 107.44 130.818 107.292C130.642 107.144 130.499 106.961 130.398 106.754C128.603 103.433 132.698 91.1 132.875 90.5691C132.889 90.5221 132.914 90.4793 132.949 90.4447C132.983 90.4102 133.026 90.3851 133.073 90.3718L139.864 88.1121C139.904 88.0918 139.949 88.0812 139.994 88.0812C140.039 88.0812 140.083 88.0918 140.123 88.1121C140.163 88.135 140.197 88.1664 140.223 88.204C140.249 88.2417 140.266 88.2848 140.273 88.3299L142.539 103.194C142.547 103.251 142.538 103.309 142.516 103.362C142.493 103.415 142.456 103.46 142.41 103.494C142.137 103.719 136.315 107.741 132.5 107.741ZM133.415 90.9094C132.95 92.3319 129.381 103.555 130.951 106.461C131.01 106.592 131.097 106.708 131.205 106.802C131.313 106.896 131.441 106.966 131.579 107.006C134.691 107.836 140.826 103.834 141.891 103.12L139.714 88.8268L133.415 90.9094Z" fill="#231F20"/>
<path d="M136.745 75.691C136.745 75.691 132.097 87.2205 131.381 92.2162L137.7 92.3387L136.745 75.691Z" fill="#F6CA1C"/>
<path d="M165 106.128L168.514 165.743C168.514 165.743 168.815 167.349 163.327 169.255C157.84 171.16 156.892 169.969 156.892 169.969C156.892 169.969 153.909 142.622 152.36 126.573L146.9 166.165C146.9 166.165 143.085 171.153 136.172 166.165L138.315 105.651L165 106.128Z" fill="#231F20"/>
<path d="M156.202 73.2816L156.025 66.775C156.025 66.775 158.707 68.2927 159.437 65.1687C160.168 62.0447 158.072 55.8103 158.072 55.8103L154.046 56.1643C154.175 57.7193 154.214 59.2805 154.162 60.8401C153.998 62.8179 153.313 64.7175 152.176 66.3462C151.254 67.5713 149.76 67.2242 148.238 67.2242L147.965 72.5738L156.202 73.2816Z" fill="white"/>
<path d="M156.202 73.5947L147.979 72.9141C147.898 72.9071 147.824 72.869 147.772 72.8079C147.719 72.7468 147.693 72.6676 147.699 72.5874L147.965 67.2378C147.968 67.1578 148.003 67.0823 148.062 67.0276C148.121 66.9729 148.198 66.9433 148.279 66.9451H149.125C150.299 66.9996 151.316 67.0404 151.964 66.176C153.075 64.581 153.733 62.7161 153.868 60.7788C153.916 60.3636 153.868 56.7768 153.786 56.2868C153.766 56.2439 153.752 56.1979 153.745 56.1506C153.743 56.071 153.772 55.9935 153.825 55.934C153.878 55.8746 153.952 55.8377 154.032 55.8308V55.8308L158.059 55.47C158.128 55.466 158.196 55.4843 158.254 55.5223C158.312 55.5604 158.356 55.616 158.379 55.681C158.461 55.9397 160.427 62.0447 159.744 65.2096C159.728 65.6027 159.614 65.9856 159.412 66.3239C159.211 66.6622 158.928 66.9453 158.59 67.1477C158.252 67.3502 157.868 67.4656 157.474 67.4837C157.08 67.5018 156.688 67.422 156.332 67.2514L156.496 73.268C156.496 73.3568 156.462 73.4423 156.4 73.5062C156.347 73.5577 156.277 73.589 156.202 73.5947V73.5947ZM148.306 72.2879L155.882 72.9685L155.718 66.8022C155.715 66.7475 155.728 66.6932 155.755 66.6451C155.781 66.5971 155.82 66.5573 155.868 66.53C155.915 66.5018 155.97 66.4869 156.025 66.4869C156.08 66.4869 156.134 66.5018 156.182 66.53C156.465 66.6879 156.777 66.7874 157.099 66.8224C157.422 66.8575 157.748 66.8275 158.059 66.7341C158.349 66.5677 158.597 66.3358 158.782 66.0569C158.967 65.778 159.084 65.4599 159.123 65.1279C159.731 62.4667 158.222 57.3213 157.861 56.1643L154.407 56.4705C154.558 57.7297 154.489 60.8673 154.489 60.9013C154.328 62.9377 153.621 64.8935 152.442 66.564C151.568 67.6598 150.313 67.5849 149.07 67.5849C148.9 67.5849 148.722 67.5849 148.545 67.5849L148.306 72.2879Z" fill="#231F20"/>
<path d="M166.904 107.55C166.904 107.55 165.593 82.3678 160.318 73.8193C156.598 67.7891 142.526 67.8776 137.339 74.1188C132.152 80.36 135.435 109.933 135.435 109.933C135.435 109.933 160.29 117.542 166.904 107.55Z" fill="#F6CA1C"/>
<path d="M146.231 67.8572C146.189 67.8668 146.144 67.8668 146.102 67.8572C144.558 67.1606 143.261 66.0146 142.382 64.5698C141.944 63.8312 141.688 62.9999 141.633 62.1435C141.578 61.2872 141.728 60.4301 142.068 59.6422C142.293 59.1951 142.558 58.7691 142.86 58.3695C143.233 57.8839 143.534 57.3476 143.754 56.7768C143.918 56.1464 143.978 55.4935 143.931 54.8439C143.913 54.2908 143.945 53.7372 144.027 53.19C144.169 52.5142 144.445 51.8732 144.837 51.3043C145.23 50.7353 145.731 50.2496 146.313 49.8754C147.459 49.1444 148.771 48.7137 150.128 48.6231C150.347 48.6231 150.558 48.5891 150.811 48.5823C152.222 48.5721 153.592 48.1117 154.721 47.2687C155.497 46.7542 156.343 46.3531 157.233 46.0776C157.89 45.922 158.573 45.9013 159.238 46.0169C159.904 46.1324 160.539 46.3818 161.105 46.7498C161.671 47.1179 162.156 47.5969 162.53 48.1577C162.905 48.7185 163.161 49.3495 163.284 50.0121C163.406 50.6748 163.392 51.3554 163.242 52.0124C163.092 52.6695 162.81 53.2893 162.413 53.8343C162.015 54.3792 161.511 54.8378 160.93 55.1822C160.349 55.5266 159.705 55.7495 159.035 55.8376C158.955 55.8453 158.876 55.8219 158.814 55.7724C158.751 55.7229 158.711 55.651 158.7 55.5721C158.695 55.5326 158.697 55.4924 158.707 55.4538C158.718 55.4153 158.736 55.3793 158.761 55.3481C158.786 55.3168 158.817 55.291 158.852 55.2722C158.888 55.2534 158.927 55.242 158.966 55.2386C159.548 55.1532 160.106 54.9518 160.608 54.6465C161.109 54.3412 161.544 53.9382 161.886 53.4617C162.228 52.9851 162.47 52.4447 162.598 51.8727C162.726 51.3007 162.737 50.7089 162.631 50.1325C162.524 49.5562 162.303 49.0071 161.979 48.5181C161.655 48.0291 161.236 47.6102 160.746 47.2864C160.256 46.9625 159.706 46.7404 159.128 46.6333C158.55 46.5262 157.957 46.5363 157.383 46.6629C156.533 46.9088 155.723 47.278 154.981 47.7587C154.18 48.2931 153.3 48.6996 152.374 48.9634C151.855 49.073 151.327 49.1367 150.797 49.154L150.203 49.2084C148.947 49.2901 147.731 49.6857 146.668 50.3587C146.15 50.6874 145.702 51.1153 145.351 51.6176C144.999 52.1199 144.751 52.6868 144.621 53.2853C144.542 53.794 144.514 54.3093 144.539 54.8235C144.584 55.5381 144.513 56.2552 144.327 56.947C144.101 57.57 143.781 58.1552 143.379 58.6825C143.098 59.0571 142.852 59.4557 142.642 59.8736C142.343 60.5752 142.215 61.3372 142.267 62.0976C142.319 62.858 142.55 63.5954 142.942 64.2499C143.761 65.5846 144.965 66.6424 146.395 67.2855C146.431 67.3028 146.462 67.327 146.488 67.3567C146.514 67.3863 146.534 67.4207 146.547 67.458C146.56 67.4953 146.565 67.5347 146.562 67.574C146.56 67.6133 146.549 67.6517 146.532 67.687C146.506 67.7434 146.463 67.7902 146.409 67.8208C146.355 67.8514 146.293 67.8641 146.231 67.8572Z" fill="#231F20"/>
<path d="M154.756 61.4186C154.504 60.7759 154.076 60.2169 153.52 59.8055C153.239 59.6083 152.901 59.5076 152.558 59.5186C152.214 59.5297 151.884 59.6519 151.616 59.8668C151.442 60.0537 151.317 60.2812 151.254 60.5286C151.191 60.7759 151.191 61.0351 151.254 61.2824C151.372 61.7834 151.605 62.2497 151.937 62.6437C152.52 63.457 153.4 64.0094 154.387 64.1818" fill="white"/>
<path d="M154.387 64.495C153.854 64.4076 153.343 64.2145 152.886 63.9269C152.429 63.6393 152.034 63.2631 151.725 62.8207C151.356 62.3966 151.09 61.8936 150.947 61.3505C150.872 61.051 150.874 60.7373 150.952 60.4386C151.031 60.1399 151.184 59.866 151.398 59.6422C151.718 59.3808 152.115 59.2302 152.528 59.213C152.942 59.1958 153.35 59.313 153.691 59.5469C154.3 59.9891 154.773 60.5927 155.056 61.2893C155.089 61.3653 155.091 61.451 155.061 61.5284C155.032 61.6058 154.974 61.6689 154.899 61.7045C154.824 61.7368 154.739 61.7386 154.662 61.7093C154.586 61.6801 154.524 61.6221 154.489 61.5479C154.248 60.9724 153.857 60.4719 153.356 60.0982C153.136 59.9352 152.87 59.8472 152.596 59.8472C152.321 59.8472 152.055 59.9352 151.835 60.0982C151.698 60.2486 151.6 60.4306 151.552 60.6279C151.503 60.8251 151.504 61.0313 151.555 61.228C151.685 61.6793 151.918 62.0942 152.237 62.4395C152.762 63.1833 153.554 63.6975 154.448 63.8756C154.532 63.8801 154.61 63.9174 154.665 63.9793C154.721 64.0412 154.75 64.1227 154.745 64.2057C154.741 64.2887 154.703 64.3666 154.641 64.4221C154.579 64.4776 154.498 64.5063 154.414 64.5018L154.387 64.495Z" fill="#231F20"/>
<path d="M161.601 86.6897C161.601 86.6897 161.778 91.8623 163.027 91.7738C164.276 91.6853 174.09 84.1918 174.09 84.1918C174.09 84.1918 174.807 79.0192 175.612 78.8422C176.417 78.6653 176.24 82.6673 176.233 82.7625C176.233 82.4495 178.28 80.3191 178.792 79.6521C179.634 78.3062 180.653 77.0792 181.823 76.0041C182.164 76.2423 182.102 76.7595 181.993 77.1611C181.638 78.411 181.136 79.6149 180.499 80.7479C180.685 80.2829 180.956 79.8561 181.297 79.4888C181.385 79.3615 181.505 79.2602 181.646 79.1955C181.786 79.1309 181.942 79.1052 182.096 79.1213C182.194 79.1621 182.284 79.2223 182.359 79.2983C182.434 79.3743 182.493 79.4645 182.532 79.5637C183.59 81.6804 181.584 84.8724 180.348 86.5127C177.666 90.0791 167.115 101.724 160.679 103.154C154.244 104.583 152.094 90.9707 152.094 90.9707" fill="white"/>
<path d="M159.758 103.569C158.86 103.565 157.985 103.285 157.253 102.766C153.261 100.043 151.855 91.3859 151.794 91.0183C151.787 90.9781 151.788 90.9368 151.798 90.8971C151.807 90.8573 151.824 90.8199 151.849 90.7869C151.873 90.7539 151.903 90.7261 151.938 90.7051C151.973 90.684 152.012 90.6702 152.053 90.6644C152.093 90.6577 152.135 90.659 152.175 90.6684C152.214 90.6778 152.252 90.6951 152.285 90.7192C152.318 90.7433 152.346 90.7737 152.367 90.8087C152.388 90.8438 152.402 90.8826 152.408 90.9231C152.408 91.0047 153.834 99.6893 157.601 102.248C158.032 102.557 158.524 102.771 159.045 102.874C159.565 102.977 160.102 102.968 160.618 102.847C167.061 101.425 177.68 89.555 180.103 86.3221C181.092 85.0154 183.276 81.7416 182.259 79.7066C182.177 79.5432 182.096 79.448 182.014 79.4207C181.904 79.4207 181.72 79.4888 181.536 79.693C181.406 79.8333 181.287 79.9834 181.181 80.1422C181.051 80.4008 180.915 80.6526 180.772 80.9045C180.734 80.9734 180.671 81.0252 180.596 81.0493C180.521 81.0733 180.44 81.0678 180.369 81.0338C180.296 80.9996 180.239 80.9389 180.21 80.8642C180.181 80.7895 180.182 80.7065 180.212 80.6322C180.327 80.3502 180.471 80.081 180.642 79.8291C181.077 78.9556 181.431 78.0444 181.7 77.1067C181.761 76.9086 181.782 76.7003 181.761 76.4941C180.867 77.3635 180.073 78.3291 179.393 79.3731L179.052 79.8563C178.854 80.1354 178.369 80.639 177.939 81.1699C177.448 81.6973 176.992 82.2566 176.574 82.8442C176.566 82.9207 176.527 82.9908 176.467 83.0392C176.407 83.0876 176.33 83.1105 176.254 83.1028C176.171 83.0976 176.095 83.0604 176.04 82.9993C175.985 82.9382 175.956 82.8581 175.96 82.7761C176.028 81.1359 175.899 79.5296 175.673 79.2029C175.305 79.5569 174.738 82.0547 174.431 84.2599C174.427 84.2999 174.414 84.3387 174.394 84.3738C174.374 84.4089 174.347 84.4396 174.315 84.4641C172.657 85.73 164.338 92.0188 163.061 92.1073C162.952 92.1126 162.842 92.0961 162.739 92.0587C162.636 92.0213 162.541 91.9638 162.461 91.8895C161.471 90.9979 161.307 87.1253 161.294 86.7237C161.305 86.6494 161.342 86.5816 161.399 86.5326C161.456 86.4836 161.529 86.4566 161.604 86.4566C161.679 86.4566 161.752 86.4836 161.809 86.5326C161.866 86.5816 161.904 86.6494 161.915 86.7237C161.969 88.2687 162.276 90.9094 162.877 91.4471C162.952 91.5084 163 91.5152 163.014 91.5084C163.853 91.4471 170.05 86.9483 173.831 84.0693C174.117 82.0275 174.711 78.781 175.578 78.5836C175.659 78.5663 175.744 78.5684 175.825 78.5897C175.905 78.611 175.98 78.6508 176.042 78.7061C176.506 79.094 176.602 80.6594 176.602 81.8029C176.82 81.5442 177.113 81.2107 177.496 80.7751C177.878 80.3396 178.39 79.7678 178.574 79.516L178.908 79.0396C179.668 77.8462 180.586 76.761 181.638 75.8135C181.691 75.7727 181.756 75.7505 181.823 75.7505C181.889 75.7505 181.954 75.7727 182.007 75.8135C182.287 75.9973 182.56 76.4124 182.307 77.3108C182.157 77.8416 181.98 78.3642 181.775 78.8762C181.913 78.8376 182.06 78.8376 182.198 78.8762C182.339 78.9257 182.469 79.0047 182.577 79.108C182.685 79.2113 182.77 79.3365 182.826 79.4752C183.952 81.7348 181.925 85.0017 180.608 86.7441C178.151 90.0178 167.368 102.037 160.761 103.508C160.43 103.565 160.094 103.585 159.758 103.569V103.569Z" fill="#231F20"/>
<path d="M150.04 91.5084C149.982 91.5072 149.925 91.4908 149.876 91.4607C149.834 91.4349 149.798 91.399 149.773 91.3562C149.748 91.3135 149.734 91.2652 149.733 91.2157L149.378 78.9647C149.376 78.9252 149.382 78.8856 149.396 78.8485C149.41 78.8115 149.431 78.7776 149.459 78.7489C149.486 78.7203 149.519 78.6975 149.556 78.682C149.592 78.6664 149.631 78.6584 149.671 78.6584C149.711 78.6556 149.751 78.6611 149.789 78.6746C149.826 78.6881 149.861 78.7093 149.89 78.7369C149.919 78.7645 149.941 78.7978 149.957 78.8347C149.972 78.8716 149.979 78.9112 149.978 78.9511L150.326 90.7257L161.301 86.0771C161.372 86.0576 161.448 86.0646 161.515 86.0968C161.582 86.1291 161.635 86.1843 161.664 86.2523C161.693 86.3204 161.696 86.3966 161.674 86.467C161.651 86.5374 161.603 86.5971 161.539 86.6352L150.156 91.4471C150.123 91.4771 150.083 91.4982 150.04 91.5084V91.5084Z" fill="#231F20"/>
<path d="M150.934 125.484C150.875 125.485 150.817 125.47 150.765 125.441C150.714 125.413 150.671 125.371 150.64 125.321C150.497 125.083 147.228 119.495 146.777 114.955C146.773 114.912 146.777 114.867 146.789 114.825C146.802 114.783 146.823 114.743 146.851 114.709C146.879 114.675 146.913 114.647 146.952 114.626C146.991 114.605 147.034 114.592 147.078 114.588C147.122 114.581 147.168 114.584 147.211 114.595C147.255 114.607 147.296 114.628 147.331 114.656C147.366 114.684 147.395 114.719 147.416 114.759C147.437 114.799 147.45 114.842 147.453 114.887C147.917 119.277 151.193 124.92 151.227 124.974C151.27 125.052 151.281 125.144 151.258 125.23C151.236 125.316 151.18 125.39 151.104 125.437C151.053 125.468 150.994 125.485 150.934 125.484V125.484Z" fill="white"/>
<path d="M159.287 63.5965C159.287 63.5965 158.414 64.6787 157.431 63.9164Z" fill="white"/>
<path d="M158.161 64.5018C157.824 64.4956 157.499 64.3757 157.24 64.1614C157.205 64.137 157.175 64.1057 157.152 64.0693C157.13 64.033 157.115 63.9925 157.109 63.9502C157.103 63.908 157.105 63.8649 157.116 63.8236C157.127 63.7824 157.147 63.7438 157.173 63.7103C157.2 63.6769 157.233 63.6491 157.271 63.6289C157.308 63.6087 157.35 63.5964 157.393 63.5927C157.435 63.5891 157.478 63.5942 157.519 63.6077C157.559 63.6212 157.597 63.6429 157.629 63.6714C157.739 63.747 157.863 63.8 157.995 63.8272C158.126 63.8544 158.261 63.8554 158.392 63.8301C158.524 63.8048 158.649 63.7536 158.76 63.6796C158.872 63.6057 158.967 63.5103 159.041 63.3992C159.067 63.3668 159.099 63.3399 159.136 63.32C159.172 63.3 159.212 63.2875 159.253 63.2831C159.295 63.2786 159.336 63.2824 159.376 63.2942C159.416 63.3059 159.453 63.3254 159.485 63.3515C159.547 63.4044 159.587 63.4789 159.596 63.5599C159.604 63.6408 159.582 63.7221 159.533 63.7871C159.368 63.9966 159.161 64.1688 158.924 64.292C158.688 64.4152 158.428 64.4868 158.161 64.5018Z" fill="#231F20"/>
<path d="M93.3054 122.068L92.9368 152.056C92.9368 152.056 107.631 154.533 108.006 154.016C108.381 153.498 99.9663 148.571 99.9663 148.571L101.147 123.858" fill="white"/>
<path d="M107.433 154.39C106.068 154.39 102.553 154.023 92.8754 152.396C92.796 152.381 92.7242 152.339 92.673 152.277C92.6217 152.215 92.5943 152.136 92.5956 152.056L92.9642 122.068C92.9642 121.978 93.0001 121.891 93.0641 121.827C93.1281 121.763 93.2149 121.728 93.3054 121.728C93.396 121.731 93.4818 121.769 93.5452 121.833C93.6087 121.898 93.645 121.984 93.6466 122.075L93.2781 151.77C98.1032 152.58 105.447 153.703 107.399 153.75C104.96 151.976 102.419 150.347 99.7889 148.87C99.7355 148.838 99.692 148.792 99.6631 148.737C99.6342 148.681 99.6211 148.619 99.6251 148.557L100.806 123.851C100.808 123.806 100.818 123.761 100.838 123.72C100.857 123.679 100.884 123.642 100.918 123.612C100.951 123.581 100.991 123.558 101.034 123.543C101.077 123.528 101.122 123.522 101.168 123.524C101.212 123.526 101.256 123.537 101.296 123.555C101.337 123.574 101.373 123.601 101.403 123.634C101.433 123.667 101.455 123.706 101.47 123.747C101.485 123.789 101.491 123.834 101.488 123.878L100.314 148.38C103.324 150.143 108.183 153.097 108.347 153.873C108.366 153.989 108.342 154.107 108.279 154.206C108.231 154.288 108.149 154.39 107.433 154.39Z" fill="#231F20"/>
<path d="M103.017 149.326L100.192 151.647L92.4523 150.211L92.2953 153.287C92.2953 153.287 109.357 156.343 110.224 154.955C111.091 153.566 103.017 149.326 103.017 149.326Z" fill="#231F20"/>
<path d="M107.849 124.191L108.279 152.477C108.279 152.477 122.973 154.955 123.348 154.438C123.723 153.92 115.308 148.993 115.308 148.993L117.233 123.13" fill="white"/>
<path d="M122.775 154.812C121.41 154.812 117.902 154.444 108.217 152.811C108.139 152.799 108.068 152.76 108.016 152.7C107.965 152.64 107.937 152.563 107.938 152.484L107.508 124.198C107.507 124.153 107.515 124.108 107.532 124.066C107.548 124.024 107.573 123.985 107.605 123.953C107.637 123.921 107.675 123.895 107.717 123.878C107.759 123.86 107.804 123.851 107.849 123.851C107.893 123.85 107.938 123.858 107.979 123.874C108.02 123.891 108.058 123.915 108.09 123.946C108.122 123.977 108.147 124.014 108.164 124.055C108.181 124.096 108.19 124.14 108.19 124.185L108.613 152.192C113.438 153.002 120.782 154.125 122.741 154.172C120.302 152.398 117.761 150.769 115.131 149.292C115.076 149.259 115.032 149.212 115.003 149.156C114.974 149.099 114.962 149.036 114.967 148.972L116.892 123.075C116.894 123.031 116.906 122.987 116.925 122.947C116.945 122.907 116.973 122.872 117.006 122.842C117.04 122.813 117.079 122.791 117.122 122.777C117.164 122.764 117.209 122.758 117.253 122.762C117.299 122.765 117.343 122.776 117.384 122.796C117.425 122.816 117.462 122.844 117.492 122.878C117.521 122.913 117.544 122.952 117.558 122.996C117.573 123.039 117.578 123.084 117.574 123.13L115.663 148.809C118.673 150.572 123.525 153.519 123.689 154.302C123.708 154.417 123.684 154.536 123.621 154.635C123.587 154.703 123.491 154.812 122.775 154.812Z" fill="#231F20"/>
<path d="M118.359 149.748L115.534 152.069L107.794 150.619L107.637 153.696C107.637 153.696 124.699 156.752 125.566 155.363C126.433 153.975 118.359 149.748 118.359 149.748Z" fill="#231F20"/>
<path d="M88.8897 80.0129C86.2758 97.6203 90.357 138.545 90.357 138.545L102.894 138.273L106.525 99.1925L106.743 138.212L117.663 138.702C117.663 138.702 122.242 111.423 121.587 95.3334C120.932 79.2438 117.663 77.2428 117.663 77.2428L88.8897 80.0129Z" fill="#231F20"/>
<path d="M102.075 49.2424C102.075 49.2424 93.7763 49.2016 90.0159 54.2585C86.2554 59.3155 86.0916 62.2421 86.0916 62.2421L93.5989 64.6038L92.6161 79.7678L118.448 77.8962L117.956 64.3656L122.693 62.7322C122.693 62.7322 120.079 50.8351 109.289 50.0183C98.499 49.2016 102.075 49.2424 102.075 49.2424Z" fill="#F6CA1C"/>
<path d="M109.733 45.7577L109.446 50.9372C109.446 50.9372 108.804 53.8298 105.658 52.8157C104.728 52.5093 103.878 52.0005 103.17 51.3259C102.462 50.6514 101.913 49.8281 101.563 48.9158C101.563 48.9158 102.498 36.2632 102.58 35.3444C103.099 35.6166 104.58 36.2768 105.153 36.0863C105.726 35.8957 105.911 34.1397 106.006 33.5748C106.451 34.3429 106.736 35.1924 106.846 36.0726L109.002 36.2496C109.323 35.4985 109.488 34.6905 109.487 33.8743C109.916 34.5935 110.173 35.4017 110.238 36.236C110.845 36.27 113.131 36.025 113.486 36.5355C113.998 37.2977 114.107 42.3343 112.626 44.0222C111.145 45.7101 109.733 45.7577 109.733 45.7577Z" fill="white"/>
<path d="M106.907 53.3397C106.443 53.3363 105.982 53.2581 105.542 53.1083C104.568 52.7911 103.679 52.2592 102.939 51.5523C102.199 50.8454 101.629 49.9815 101.27 49.0247C101.26 48.9844 101.26 48.9424 101.27 48.9021C101.27 48.3849 102.205 36.2428 102.287 35.3308C102.291 35.2793 102.308 35.2297 102.336 35.1868C102.365 35.1439 102.404 35.1091 102.451 35.0857C102.496 35.0625 102.546 35.0503 102.597 35.0503C102.648 35.0503 102.699 35.0625 102.744 35.0857C103.426 35.4601 104.682 35.9229 105.064 35.8004C105.18 35.7596 105.412 35.4465 105.672 33.7586L105.713 33.5203C105.722 33.4569 105.751 33.3979 105.796 33.3519C105.841 33.3058 105.899 33.2749 105.963 33.2637C106.026 33.2524 106.091 33.2612 106.149 33.289C106.207 33.3167 106.255 33.3619 106.286 33.4183C106.71 34.1499 106.997 34.9525 107.132 35.7868L108.811 35.9229C109.061 35.2711 109.188 34.5789 109.187 33.8811C109.185 33.8125 109.207 33.7453 109.247 33.69C109.288 33.6346 109.346 33.5942 109.412 33.5748C109.478 33.5574 109.549 33.5619 109.613 33.5877C109.677 33.6134 109.731 33.659 109.767 33.7177C110.173 34.3941 110.433 35.1474 110.531 35.9297H110.947C112.312 35.8821 113.425 35.8889 113.752 36.3789C114.36 37.2705 114.435 42.4636 112.872 44.24C112.154 45.1441 111.152 45.7797 110.026 46.0436C110.026 46.4928 109.93 47.7043 109.753 50.9644C109.559 51.8082 109.039 52.5417 108.306 53.0062C107.877 53.238 107.395 53.353 106.907 53.3397V53.3397ZM101.905 48.8681C102.242 49.7195 102.76 50.4875 103.425 51.1187C104.09 51.7499 104.884 52.2291 105.754 52.523C106.112 52.6701 106.497 52.7395 106.884 52.7266C107.272 52.7137 107.652 52.6188 107.999 52.4481C108.567 52.0856 108.974 51.5209 109.139 50.8691C109.139 50.8691 109.419 45.8258 109.425 45.7441C109.429 45.6658 109.462 45.5915 109.517 45.5361C109.573 45.4806 109.647 45.448 109.726 45.4446C110.798 45.2651 111.76 44.683 112.415 43.818C113.78 42.2322 113.65 37.3113 113.247 36.7124C113.049 36.4674 111.487 36.5218 110.975 36.5355C110.661 36.5355 110.395 36.5355 110.238 36.5355C110.165 36.5361 110.094 36.5102 110.039 36.4626C109.983 36.415 109.947 36.349 109.937 36.2768C109.903 35.8715 109.82 35.4717 109.692 35.0857C109.609 35.5346 109.476 35.9729 109.296 36.3925C109.269 36.4525 109.225 36.503 109.169 36.5371C109.113 36.5712 109.047 36.5872 108.982 36.5831L106.825 36.4061C106.755 36.3978 106.69 36.3667 106.639 36.3174C106.588 36.2682 106.555 36.2037 106.545 36.1339C106.477 35.6121 106.347 35.1002 106.156 34.6093C105.986 35.4873 105.74 36.2292 105.262 36.3993C104.662 36.6035 103.488 36.1339 102.86 35.848C102.689 38.1689 101.966 47.9697 101.905 48.8681Z" fill="#231F20"/>
<path d="M103.113 39.0401C103.047 38.653 102.858 38.2974 102.573 38.026C102.292 37.7882 101.974 37.5974 101.632 37.4611C101.452 37.3689 101.254 37.3178 101.051 37.3114C100.909 37.3226 100.769 37.3619 100.642 37.4271C100.324 37.5551 100.065 37.7981 99.9185 38.1077C99.822 38.359 99.7891 38.6302 99.823 38.8972C99.8318 39.1909 99.8824 39.4819 99.9731 39.7615C100.168 40.3217 100.578 40.7819 101.113 41.0411C101.648 41.293 102.26 41.3272 102.819 41.1364" fill="white"/>
<path d="M102.075 41.4971C101.553 41.5034 101.042 41.3448 100.615 41.0441C100.189 40.7434 99.8685 40.3159 99.7001 39.8228C99.6032 39.5185 99.5481 39.2026 99.5364 38.8836C99.5011 38.5719 99.5433 38.2563 99.6592 37.9647C99.8409 37.6107 100.143 37.3331 100.512 37.182C100.7 37.0815 100.911 37.0317 101.124 37.0377C101.337 37.0437 101.545 37.1052 101.727 37.2161C102.099 37.3594 102.444 37.5667 102.744 37.8286C103.076 38.1401 103.296 38.5512 103.372 38.9993C103.382 39.0703 103.364 39.1425 103.322 39.2008C103.28 39.2591 103.217 39.299 103.147 39.3123C103.111 39.3182 103.075 39.317 103.04 39.3089C103.005 39.3007 102.972 39.2858 102.943 39.2649C102.914 39.2441 102.889 39.2177 102.87 39.1873C102.851 39.1569 102.839 39.1231 102.833 39.0877C102.778 38.7565 102.615 38.4527 102.369 38.2234C102.112 38.0056 101.822 37.831 101.509 37.7061C101.367 37.634 101.211 37.5922 101.051 37.5836C100.944 37.5884 100.838 37.6187 100.744 37.6721C100.493 37.7711 100.283 37.9538 100.151 38.1893C100.071 38.4069 100.045 38.6403 100.076 38.8699C100.087 39.1383 100.136 39.4039 100.219 39.6594C100.302 39.9018 100.432 40.1253 100.602 40.317C100.772 40.5088 100.979 40.6649 101.21 40.7763C101.441 40.8878 101.692 40.9523 101.948 40.9662C102.205 40.9801 102.461 40.9431 102.703 40.8573C102.771 40.835 102.845 40.8395 102.91 40.8699C102.974 40.9003 103.025 40.9542 103.051 41.0207C103.064 41.0541 103.07 41.0898 103.069 41.1257C103.067 41.1615 103.059 41.1967 103.044 41.2291C103.028 41.2616 103.007 41.2906 102.98 41.3144C102.953 41.3382 102.921 41.3564 102.887 41.3678C102.626 41.4556 102.351 41.4993 102.075 41.4971V41.4971Z" fill="#231F20"/>
<path d="M109.528 47.7928C109.528 47.7928 107.364 48.2896 106.054 46.8263C105.682 46.4516 105.395 46.0006 105.215 45.5047C105.035 45.0088 104.965 44.4797 105.01 43.9541C105.01 43.9541 107.583 46.1253 109.712 45.8598L109.528 47.7928Z" fill="#231F20"/>
<path d="M108.661 48.1807C108.137 48.1973 107.614 48.1034 107.129 47.9053C106.643 47.7071 106.205 47.409 105.842 47.0305C105.44 46.6206 105.131 46.1284 104.938 45.5878C104.744 45.0472 104.671 44.4712 104.723 43.8997C104.734 43.8482 104.757 43.8004 104.792 43.761C104.827 43.7215 104.871 43.6919 104.921 43.675C104.97 43.6555 105.023 43.6496 105.074 43.658C105.126 43.6664 105.175 43.6887 105.215 43.7227C105.215 43.7227 107.719 45.7986 109.692 45.5603C109.736 45.5566 109.781 45.5619 109.823 45.5759C109.865 45.59 109.904 45.6125 109.937 45.642C109.969 45.6738 109.994 45.7123 110.009 45.7547C110.024 45.797 110.03 45.8422 110.026 45.887L109.828 47.8472C109.823 47.9097 109.798 47.9689 109.756 48.0156C109.714 48.0624 109.658 48.0941 109.596 48.1058C109.288 48.1677 108.975 48.1928 108.661 48.1807V48.1807ZM105.303 44.5598C105.404 45.3262 105.746 46.0411 106.279 46.6017C106.667 46.9798 107.138 47.2617 107.655 47.4249C108.172 47.588 108.72 47.6278 109.255 47.5409L109.384 46.1797C107.794 46.2001 106.109 45.1247 105.303 44.5598Z" fill="#231F20"/>
<path d="M109.337 38.0532C109.337 38.0532 110.913 40.6191 110.497 41.0411C110.081 41.4631 108.975 41.1228 108.975 41.1228" fill="white"/>
<path d="M109.801 41.5516C109.491 41.546 109.184 41.5002 108.886 41.4154C108.809 41.392 108.745 41.339 108.707 41.2682C108.669 41.1973 108.661 41.1144 108.685 41.0377C108.708 40.961 108.762 40.8967 108.833 40.8591C108.904 40.8214 108.987 40.8135 109.064 40.8369C109.439 40.9458 110.087 41.0207 110.285 40.8369C110.041 39.8992 109.632 39.0121 109.077 38.2166C109.056 38.1827 109.042 38.145 109.036 38.1057C109.03 38.0664 109.032 38.0262 109.041 37.9876C109.051 37.9489 109.068 37.9125 109.092 37.8806C109.115 37.8486 109.145 37.8217 109.18 37.8014C109.213 37.7806 109.25 37.7668 109.289 37.7606C109.328 37.7545 109.368 37.7563 109.406 37.7658C109.444 37.7753 109.48 37.7924 109.512 37.8161C109.543 37.8397 109.57 37.8695 109.589 37.9035C110.367 39.1626 111.2 40.7689 110.715 41.2589C110.461 41.4721 110.132 41.5772 109.801 41.5516Z" fill="#231F20"/>
<path d="M106.635 38.6585C106.861 38.6187 107 38.3284 106.943 38.01C106.887 37.6917 106.658 37.4658 106.432 37.5055C106.205 37.5453 106.067 37.8356 106.123 38.1539C106.18 38.4723 106.409 38.6982 106.635 38.6585Z" fill="#231F20"/>
<path d="M111.744 39.4375C111.97 39.3977 112.108 39.1074 112.052 38.789C111.996 38.4707 111.767 38.2448 111.541 38.2845C111.314 38.3243 111.176 38.6146 111.232 38.9329C111.288 39.2513 111.518 39.4772 111.744 39.4375Z" fill="#231F20"/>
<path d="M110.954 42.4636C110.954 42.4636 109.357 44.6279 106.791 42.3819Z" fill="white"/>
<path d="M109.05 43.7023C108.124 43.6487 107.25 43.2589 106.593 42.6065C106.538 42.5529 106.506 42.4803 106.504 42.4039C106.501 42.3274 106.527 42.2527 106.578 42.1952C106.629 42.1377 106.7 42.1018 106.776 42.0947C106.852 42.0877 106.929 42.1101 106.989 42.1573C107.283 42.4583 107.636 42.6958 108.025 42.855C108.415 43.0143 108.834 43.0919 109.255 43.0829C109.819 43.0065 110.334 42.7195 110.695 42.2798C110.718 42.2473 110.747 42.2198 110.781 42.1987C110.815 42.1777 110.853 42.1636 110.892 42.1572C110.932 42.1509 110.972 42.1525 111.011 42.1618C111.049 42.1712 111.086 42.1882 111.118 42.2117C111.182 42.2593 111.225 42.3301 111.238 42.4089C111.251 42.4877 111.232 42.5684 111.186 42.6337C110.723 43.2082 110.056 43.5833 109.323 43.6819L109.05 43.7023Z" fill="#231F20"/>
<path d="M99.7685 44.8049H96.8952C96.8543 44.8043 96.8139 44.7956 96.7764 44.7792C96.7389 44.7629 96.7051 44.7392 96.6769 44.7096C96.6497 44.6792 96.629 44.6436 96.6161 44.605C96.6032 44.5664 96.5983 44.5255 96.6018 44.485L97.1682 35.8072C97.2979 33.8675 97.5163 31.8188 98.6424 29.9199C99.2257 28.7886 100.193 27.9009 101.372 27.4153C101.994 27.1712 102.678 27.1362 103.321 27.3155C103.964 27.4949 104.531 27.8788 104.935 28.409C104.977 28.4762 104.991 28.557 104.974 28.6344C104.958 28.7118 104.912 28.7798 104.846 28.8241C104.813 28.8457 104.776 28.8605 104.737 28.8677C104.698 28.8749 104.658 28.8744 104.62 28.8662C104.581 28.8579 104.544 28.8422 104.512 28.8198C104.479 28.7974 104.451 28.7688 104.43 28.7357C104.099 28.3203 103.643 28.0225 103.129 27.8864C102.615 27.7503 102.071 27.7832 101.577 27.9802C100.529 28.4208 99.6712 29.2162 99.1542 30.2262C98.2558 31.9646 97.7878 33.8923 97.7893 35.848L97.2433 44.2059H99.7958C99.8754 44.2059 99.9518 44.2375 100.008 44.2936C100.064 44.3498 100.096 44.426 100.096 44.5054C100.096 44.5848 100.064 44.661 100.008 44.7172C99.9518 44.7733 99.8754 44.8049 99.7958 44.8049H99.7685Z" fill="#231F20"/>
<path d="M114.51 47.5341C113.647 47.5344 112.786 47.4798 111.93 47.3708C111.85 47.3608 111.778 47.3198 111.729 47.2566C111.68 47.1934 111.657 47.1133 111.667 47.0339C111.677 46.9545 111.719 46.8822 111.782 46.8331C111.845 46.7839 111.926 46.7619 112.005 46.7718C113.336 46.9419 114.681 46.9761 116.018 46.8739C116.582 44.3621 116.956 41.8118 117.137 39.2443C117.351 37.1961 117.227 35.1268 116.769 33.1188C116.309 31.1309 115.115 29.3887 113.425 28.2388C111.821 27.2315 107.91 27.4221 106.204 28.5927C106.14 28.6406 106.059 28.661 105.98 28.6495C105.9 28.638 105.829 28.5956 105.781 28.5315C105.733 28.4674 105.713 28.3869 105.724 28.3078C105.736 28.2287 105.778 28.1573 105.842 28.1095C107.569 26.9184 111.787 26.5237 113.732 27.742C115.548 28.9732 116.833 30.8421 117.329 32.9759C117.807 35.0523 117.938 37.1932 117.718 39.3123C117.533 41.9821 117.138 44.6333 116.537 47.2415C116.525 47.3041 116.492 47.361 116.444 47.4029C116.395 47.4448 116.335 47.4695 116.271 47.4729C115.688 47.5137 115.101 47.5341 114.51 47.5341Z" fill="#231F20"/>
<path d="M130.883 73.0026H107.508L110.777 56.702H134.152L130.883 73.0026Z" fill="#231F20"/>
<path d="M130.773 72.8937H95.6804V74.6088H130.773V72.8937Z" fill="#231F20"/>
<path d="M128.924 72.8528H108.654C108.564 72.8528 108.477 72.817 108.413 72.7532C108.349 72.6894 108.313 72.6028 108.313 72.5125C108.313 72.4223 108.349 72.3357 108.413 72.2719C108.477 72.2081 108.564 72.1722 108.654 72.1722H128.924C129.013 72.174 129.098 72.2107 129.161 72.2743C129.223 72.3379 129.258 72.4235 129.258 72.5125C129.259 72.5569 129.251 72.601 129.235 72.6423C129.218 72.6835 129.194 72.7211 129.163 72.7528C129.132 72.7845 129.094 72.8096 129.053 72.8268C129.012 72.844 128.968 72.8529 128.924 72.8528V72.8528Z" fill="white"/>
<path d="M86.0916 62.2421C86.0916 62.2421 82.4403 80.9385 85.4091 83.4363C88.3779 85.9342 114.837 79.9584 114.837 79.9584L115.602 74.7381L94.0219 74.3093L94.6225 64.8489" fill="white"/>
<path d="M88.7123 84.362C85.9824 84.362 85.4432 83.8923 85.1839 83.6814C83.8804 82.572 83.5937 78.5972 84.324 71.8728C84.8631 66.9315 85.7776 62.2353 85.7845 62.1945C85.801 62.113 85.8488 62.0411 85.9176 61.9941C85.9864 61.947 86.0708 61.9286 86.153 61.9426C86.2344 61.9591 86.3059 62.007 86.3519 62.0758C86.398 62.1447 86.4148 62.229 86.3987 62.3102C85.3955 67.4624 83.2866 81.2516 85.5866 83.2049C87.8865 85.1583 107.05 81.3877 114.53 79.7066L115.213 75.0512L93.9878 74.6224C93.9031 74.6216 93.8221 74.5873 93.7626 74.5271C93.7095 74.4616 93.6806 74.3799 93.6807 74.2957L94.2813 64.8625C94.283 64.821 94.2931 64.7803 94.311 64.7429C94.329 64.7054 94.3543 64.672 94.3856 64.6446C94.4169 64.6173 94.4534 64.5965 94.493 64.5837C94.5325 64.5708 94.5743 64.5661 94.6157 64.5698C94.6552 64.5689 94.6944 64.5757 94.7312 64.59C94.7679 64.6042 94.8016 64.6255 94.8301 64.6527C94.8586 64.6799 94.8815 64.7124 94.8974 64.7484C94.9133 64.7844 94.9219 64.8231 94.9228 64.8625L94.3427 73.9963L115.602 74.425C115.645 74.425 115.688 74.4348 115.727 74.4537C115.766 74.4725 115.8 74.5 115.827 74.5339C115.857 74.5667 115.879 74.6057 115.892 74.648C115.905 74.6904 115.909 74.7351 115.902 74.779L115.138 79.9992C115.127 80.06 115.099 80.1163 115.056 80.1611C115.014 80.2059 114.959 80.2372 114.899 80.2511C114.831 80.2511 108.19 81.762 101.249 82.9327C94.8 84.0353 90.9918 84.362 88.7123 84.362Z" fill="#231F20"/>
<path d="M113.063 74.7109C113.063 74.7109 121.13 73.6015 121.021 74.0916C120.912 74.5816 118.352 75.7522 118.352 75.7522C118.352 75.7522 123.812 73.9078 124.344 74.391C124.877 74.8743 122.816 76.3444 121.021 77.3245C117.956 79.1474 114.501 80.2182 110.941 80.4485" fill="white"/>
<path d="M110.941 80.7343C110.857 80.7343 110.777 80.7013 110.719 80.6426C110.66 80.5839 110.627 80.5043 110.627 80.4212C110.627 80.3382 110.66 80.2586 110.719 80.1999C110.777 80.1411 110.857 80.1082 110.941 80.1082C114.426 79.8873 117.809 78.8421 120.809 77.059H120.884C122.979 75.9156 124.133 74.8743 124.133 74.5952C123.751 74.4591 120.877 75.2282 118.461 76.0449C118.424 76.0597 118.384 76.0669 118.343 76.0661C118.303 76.0654 118.263 76.0567 118.226 76.0406C118.189 76.0245 118.155 76.0012 118.127 75.9722C118.099 75.9432 118.077 75.9089 118.062 75.8714C118.032 75.7955 118.034 75.711 118.067 75.6363C118.099 75.5617 118.16 75.503 118.236 75.4732C118.995 75.1413 119.727 74.7522 120.427 74.3094V74.3094C119.24 74.3094 116.039 74.6497 113.125 75.058C113.083 75.0657 113.04 75.0649 112.999 75.0557C112.958 75.0464 112.919 75.029 112.884 75.0044C112.85 74.9798 112.821 74.9485 112.799 74.9124C112.777 74.8763 112.763 74.8362 112.757 74.7944C112.751 74.7527 112.753 74.7101 112.764 74.6694C112.775 74.6286 112.794 74.5905 112.82 74.5572C112.846 74.524 112.879 74.4964 112.916 74.476C112.953 74.4556 112.994 74.4429 113.036 74.4387C120.789 73.3701 121.123 73.7581 121.226 73.8738C121.262 73.9181 121.288 73.9694 121.303 74.0245C121.319 74.0795 121.322 74.1371 121.314 74.1937C121.259 74.3449 121.165 74.4788 121.041 74.5816C122.72 74.112 124.174 73.8329 124.542 74.1664C124.612 74.229 124.665 74.3076 124.697 74.3954C124.729 74.4832 124.74 74.5775 124.727 74.6701C124.611 75.6774 121.731 77.2904 121.157 77.6035L121.082 77.6443C117.999 79.4742 114.522 80.5429 110.941 80.7615V80.7343Z" fill="#231F20"/>
<path d="M106.962 99.8595C106.935 99.8661 106.907 99.8661 106.88 99.8595C106.836 99.85 106.795 99.8317 106.758 99.8057C106.722 99.7797 106.691 99.7466 106.668 99.7083C106.645 99.67 106.63 99.6275 106.625 99.5832C106.619 99.539 106.622 99.494 106.634 99.4511L109.139 89.5618C109.15 89.5184 109.17 89.4777 109.197 89.4419C109.223 89.4061 109.257 89.3759 109.296 89.3531C109.335 89.3304 109.377 89.3154 109.422 89.3092C109.466 89.303 109.512 89.3056 109.555 89.3168C109.641 89.3408 109.714 89.3964 109.759 89.4724C109.805 89.5483 109.82 89.6387 109.801 89.7252L107.289 99.5736C107.278 99.6524 107.239 99.7245 107.179 99.777C107.118 99.8294 107.042 99.8587 106.962 99.8595V99.8595Z" fill="white"/>
<path d="M132.213 62.14C131.863 61.8239 131.421 61.6262 130.951 61.5751C130.884 61.5667 130.816 61.572 130.752 61.5907C130.687 61.6095 130.627 61.6412 130.575 61.684C130.398 61.8678 130.528 62.1741 130.671 62.3646C131.094 63.0452 131.545 63.651 132.036 64.2635C131.543 63.853 130.965 63.5577 130.343 63.3992C130.123 63.316 129.881 63.316 129.661 63.3992C129.523 63.4903 129.42 63.6255 129.369 63.7825C129.318 63.9396 129.323 64.1092 129.381 64.2635C129.504 64.5699 129.698 64.8427 129.948 65.0599L130.999 66.1352C130.557 65.7665 130.02 65.5305 129.449 65.4546C129.331 65.4268 129.208 65.4264 129.09 65.4535C128.971 65.4807 128.861 65.5346 128.767 65.6111C128.507 65.897 128.767 66.353 129.013 66.6321C129.333 66.9605 129.707 67.2321 130.118 67.4352L129.279 67.0813C129.141 66.9992 128.98 66.9679 128.821 66.9928C128.473 67.0813 128.46 67.5713 128.562 67.9116C128.66 68.354 128.875 68.7621 129.185 69.0936C129.494 69.4251 129.887 69.6679 130.323 69.7969C130.662 69.8331 131.006 69.7998 131.332 69.6992C131.658 69.5986 131.96 69.4326 132.22 69.2116C132.771 68.7997 133.217 68.2655 133.525 67.6515C133.832 67.0374 133.992 66.3604 133.991 65.6741C133.991 64.9878 133.83 64.3111 133.521 63.6976C133.212 63.0842 132.765 62.5509 132.213 62.14V62.14Z" fill="white"/>
<path d="M130.657 70.178C130.535 70.1881 130.411 70.1881 130.289 70.178C129.798 70.0373 129.355 69.7679 129.004 69.398C128.654 69.0281 128.409 68.5712 128.296 68.0749C128.189 67.7537 128.206 67.4043 128.344 67.0949C128.423 66.9574 128.545 66.8498 128.692 66.7886C128.529 66.6589 128.416 66.4769 128.372 66.2735C128.329 66.0701 128.358 65.858 128.453 65.6733C128.549 65.4886 128.706 65.3428 128.898 65.2607C129.089 65.1786 129.304 65.1654 129.504 65.2232H129.654C129.405 64.9915 129.213 64.7048 129.094 64.386C129.015 64.1618 129.016 63.9174 129.095 63.6933C129.174 63.4692 129.328 63.2789 129.531 63.1541C129.815 63.0494 130.128 63.0494 130.412 63.1541C130.574 63.1937 130.734 63.2437 130.889 63.3039L130.405 62.6233C130.023 62.0243 130.207 61.6772 130.357 61.5275C130.439 61.4538 130.535 61.3976 130.64 61.3625C130.744 61.3274 130.855 61.314 130.964 61.3233C131.499 61.3791 132.003 61.6005 132.404 61.9563V61.9563C133.016 62.4173 133.51 63.0142 133.849 63.6995C134.188 64.3849 134.362 65.1397 134.356 65.9038C134.335 66.6083 134.154 67.2987 133.825 67.9226C133.496 68.5465 133.029 69.0874 132.459 69.5042C131.945 69.913 131.314 70.1489 130.657 70.178V70.178ZM128.951 67.3331C128.915 67.4171 128.897 67.5073 128.897 67.5985C128.897 67.6897 128.915 67.78 128.951 67.864C129.029 68.2443 129.204 68.598 129.46 68.8903C129.716 69.1826 130.044 69.4036 130.412 69.5315C131.012 69.5815 131.608 69.3932 132.07 69.0074C132.577 68.6404 132.992 68.1611 133.282 67.6073C133.572 67.0534 133.73 66.4401 133.742 65.8153C133.745 65.1471 133.591 64.4874 133.294 63.8885C132.996 63.2896 132.563 62.7679 132.029 62.3646V62.3646C131.726 62.0927 131.348 61.9173 130.944 61.861C130.899 61.8505 130.852 61.8505 130.807 61.861C130.819 61.9777 130.864 62.0886 130.937 62.1809C131.36 62.8615 131.811 63.4604 132.302 64.0593C132.347 64.1207 132.369 64.1963 132.362 64.2721C132.355 64.3479 132.321 64.4186 132.266 64.4712C132.211 64.5237 132.138 64.5544 132.062 64.5575C131.986 64.5606 131.911 64.536 131.852 64.4881C131.399 64.1068 130.864 63.8344 130.289 63.6918C130.145 63.6425 129.989 63.6425 129.845 63.6918C129.702 63.7599 129.661 64.0049 129.716 64.1818C129.828 64.4433 129.998 64.676 130.214 64.8625L131.258 65.9378C131.314 65.9939 131.345 66.0698 131.345 66.1488C131.345 66.2279 131.314 66.3037 131.258 66.3598C131.201 66.4139 131.125 66.4441 131.046 66.4441C130.968 66.4441 130.892 66.4139 130.835 66.3598C130.443 66.0417 129.971 65.8369 129.47 65.7677C129.403 65.7512 129.334 65.7481 129.266 65.7587C129.198 65.7692 129.133 65.7931 129.074 65.8289C128.978 65.9378 129.122 66.2305 129.306 66.4211C129.601 66.726 129.948 66.9771 130.33 67.1629C130.403 67.1982 130.459 67.261 130.486 67.3376C130.513 67.4141 130.508 67.4982 130.473 67.5713C130.458 67.6084 130.435 67.642 130.406 67.6701C130.377 67.6982 130.343 67.7202 130.305 67.7348C130.268 67.7494 130.227 67.7564 130.187 67.7551C130.147 67.7539 130.107 67.7447 130.07 67.7278L129.231 67.3739C129.141 67.3431 129.046 67.3292 128.951 67.3331V67.3331Z" fill="#231F20"/>
<path d="M94.5406 64.073C94.4585 64.0677 94.3818 64.0305 94.3269 63.9694C94.2721 63.9083 94.2434 63.8282 94.2472 63.7463L94.6635 56.0145C94.6605 55.97 94.6671 55.9254 94.6828 55.8837C94.6986 55.8419 94.7231 55.804 94.7547 55.7725C94.7863 55.7409 94.8243 55.7165 94.8661 55.7008C94.908 55.6851 94.9527 55.6785 94.9974 55.6814C95.042 55.6843 95.0855 55.6967 95.1249 55.7178C95.1643 55.7388 95.1988 55.768 95.226 55.8035C95.2532 55.8389 95.2724 55.8797 95.2825 55.9231C95.2926 55.9666 95.2933 56.0117 95.2845 56.0554L94.8477 63.7667C94.8487 63.8072 94.8414 63.8474 94.8263 63.885C94.8112 63.9226 94.7886 63.9567 94.7599 63.9853C94.7312 64.014 94.6969 64.0365 94.6592 64.0516C94.6216 64.0666 94.5812 64.0739 94.5406 64.073V64.073Z" fill="#231F20"/>
<path d="M213.38 171.718C213.322 171.719 213.265 171.704 213.216 171.674C213.166 171.644 213.126 171.6 213.1 171.548C213.062 171.475 213.054 171.39 213.078 171.311C213.102 171.232 213.157 171.165 213.23 171.126L231.869 161.353C231.944 161.314 232.031 161.307 232.112 161.333C232.192 161.358 232.259 161.414 232.299 161.489C232.335 161.563 232.341 161.649 232.315 161.727C232.29 161.806 232.235 161.872 232.162 161.911L213.524 171.65C213.481 171.683 213.432 171.706 213.38 171.718V171.718Z" fill="#D1D3D4"/>
<path d="M84.9519 143.371C87.2925 143.371 89.19 142.698 89.19 141.867C89.19 141.036 87.2925 140.363 84.9519 140.363C82.6112 140.363 80.7137 141.036 80.7137 141.867C80.7137 142.698 82.6112 143.371 84.9519 143.371Z" fill="#E6E7E8"/>
<path d="M181.12 201.332C181.04 201.332 180.963 201.302 180.905 201.247C180.846 201.193 180.811 201.119 180.806 201.039L180.26 193.852C180.253 193.769 180.28 193.687 180.335 193.623C180.389 193.56 180.467 193.521 180.55 193.515C180.633 193.509 180.715 193.536 180.779 193.59C180.842 193.644 180.881 193.721 180.888 193.804L181.434 200.991C181.437 201.033 181.433 201.075 181.42 201.115C181.407 201.155 181.386 201.192 181.359 201.223C181.332 201.255 181.298 201.281 181.261 201.3C181.223 201.318 181.182 201.329 181.14 201.332H181.12Z" fill="#D1D3D4"/>
</svg>
