<svg width="260" height="33" viewBox="0 0 260 33" fill="none" xmlns="http://www.w3.org/2000/svg">
<path d="M6.10373 2.04053C6.63033 2.93178 7.21677 4.0224 7.86305 5.31238C8.50932 6.60236 9.16757 7.9627 9.83778 9.3934C10.508 10.8007 11.1662 12.2431 11.8125 13.7207C12.4827 15.1749 13.0931 16.5235 13.6436 17.7665C14.1942 16.5235 14.7926 15.1749 15.4389 13.7207C16.0851 12.2431 16.7434 10.8007 17.4136 9.3934C18.0838 7.9627 18.7421 6.60236 19.3883 5.31238C20.0346 4.0224 20.621 2.93178 21.1476 2.04053H25.2407C25.4562 3.82304 25.6596 5.72283 25.8511 7.73989C26.0426 9.73349 26.2102 11.7857 26.3538 13.8966C26.5213 15.984 26.6649 18.0949 26.7846 20.2292C26.9282 22.3401 27.0479 24.4041 27.1437 26.4211H22.6915C22.5958 23.5832 22.4761 20.6631 22.3325 17.661C22.2128 14.6589 22.0213 11.7505 21.758 8.93605C21.4947 9.47549 21.1835 10.1205 20.8245 10.871C20.4655 11.6215 20.0825 12.4424 19.6756 13.3337C19.2687 14.2015 18.8498 15.1045 18.4189 16.0427C18.012 16.9808 17.6051 17.8955 17.1982 18.7868C16.8152 19.6546 16.4561 20.4755 16.121 21.2495C15.7859 22 15.4987 22.645 15.2593 23.1844H11.8843C11.645 22.645 11.3577 21.9883 11.0226 21.2143C10.6875 20.4403 10.3165 19.6194 9.90959 18.7516C9.52661 17.8604 9.1197 16.9456 8.68885 16.0075C8.28193 15.0693 7.87501 14.1663 7.4681 13.2985C7.06118 12.4307 6.6782 11.6215 6.31916 10.871C5.96012 10.097 5.64895 9.45204 5.38565 8.93605C5.12235 11.7505 4.91889 14.6589 4.77527 17.661C4.65559 20.6631 4.54788 23.5832 4.45214 26.4211H0C0.0957449 24.4041 0.203458 22.3166 0.323139 20.1589C0.466756 18.0011 0.610373 15.8667 0.75399 13.7559C0.921544 11.6215 1.10107 9.55758 1.29256 7.56398C1.48405 5.57038 1.6875 3.72923 1.90293 2.04053H6.10373Z" fill="#5A4A37"/>
<path d="M47.5297 8.02134C45.5909 15.0107 43.3409 21.3433 40.7797 27.0192C40.301 28.0746 39.8103 28.9776 39.3077 29.7282C38.805 30.4787 38.2425 31.1002 37.6202 31.5928C36.9978 32.0853 36.3037 32.4371 35.5377 32.6482C34.7717 32.8827 33.8861 33 32.8808 33C32.2106 33 31.5404 32.9296 30.8701 32.7889C30.2239 32.6482 29.7332 32.4957 29.3981 32.3316L30.188 28.919C31.0497 29.2473 31.8994 29.4115 32.7372 29.4115C33.8622 29.4115 34.7358 29.1418 35.3582 28.6024C36.0045 28.0864 36.567 27.2772 37.0457 26.1748C35.6813 23.5949 34.3648 20.7804 33.0962 17.7314C31.8515 14.6823 30.7385 11.4456 29.7571 8.02134H34.3888C34.6281 9.00641 34.9154 10.0736 35.2505 11.2228C35.6095 12.3721 35.9925 13.5448 36.3994 14.7409C36.8063 15.9137 37.2372 17.0864 37.692 18.2591C38.1467 19.4318 38.6015 20.5224 39.0563 21.5309C39.8223 19.4435 40.5404 17.2271 41.2106 14.8817C41.8808 12.5128 42.4912 10.226 43.0417 8.02134H47.5297Z" fill="#5A4A37"/>
<path d="M70.4004 26.4211C69.7781 25.4829 69.06 24.4979 68.2461 23.4659C67.4323 22.4339 66.5706 21.4371 65.661 20.4755C64.7754 19.5139 63.8538 18.5992 62.8964 17.7313C61.9389 16.8635 60.9935 16.113 60.06 15.4797V26.4211H55.536V2.04052H60.06V12.1024C60.8499 11.3284 61.6757 10.5075 62.5374 9.63966C63.3991 8.74841 64.2488 7.85715 65.0866 6.96589C65.9483 6.05118 66.7621 5.17165 67.5281 4.3273C68.294 3.48295 68.9882 2.72069 69.6105 2.04052H75.0321C74.2422 2.93178 73.4044 3.85822 72.5188 4.81984C71.6331 5.78146 70.7235 6.7548 69.79 7.73988C68.8565 8.7015 67.911 9.66312 66.9536 10.6247C66.0201 11.5864 65.0985 12.5011 64.189 13.3689C65.1943 14.1194 66.2116 14.9989 67.2408 16.0075C68.294 16.9925 69.3233 18.0597 70.3286 19.209C71.3339 20.3348 72.2914 21.5192 73.2009 22.7623C74.1344 23.9819 74.9842 25.2015 75.7501 26.4211H70.4004Z" fill="#F6CA1C"/>
<path d="M75.2609 14.4243H84.9192V18.3294H75.2609V14.4243Z" fill="#F6CA1C"/>
<path d="M93.2644 22.7623C93.5277 22.7857 93.8748 22.8092 94.3057 22.8326C94.7365 22.8326 95.323 22.8326 96.065 22.8326C99.1049 22.8326 101.367 22.0821 102.851 20.581C104.359 19.0565 105.113 16.9339 105.113 14.2132C105.113 11.4456 104.383 9.32303 102.923 7.84542C101.463 6.36781 99.2006 5.629 96.1368 5.629C94.7964 5.629 93.8389 5.66419 93.2644 5.73455V22.7623ZM109.852 14.2132C109.852 16.3241 109.517 18.1652 108.847 19.7367C108.177 21.2846 107.219 22.5864 105.975 23.6418C104.754 24.6738 103.27 25.4478 101.522 25.9638C99.799 26.4563 97.8841 26.7026 95.7777 26.7026C94.7724 26.7026 93.6354 26.6557 92.3668 26.5618C91.0982 26.4915 89.8894 26.3273 88.7405 26.0693V2.39233C89.8894 2.13434 91.1102 1.97016 92.4027 1.89979C93.6953 1.82943 94.8442 1.79425 95.8495 1.79425C97.932 1.79425 99.8349 2.04052 101.558 2.53306C103.282 3.00214 104.754 3.75267 105.975 4.78466C107.219 5.79318 108.177 7.08316 108.847 8.65459C109.517 10.2026 109.852 12.0554 109.852 14.2132Z" fill="#F6CA1C"/>
<path d="M125.276 11.8561C124.917 11.7388 124.415 11.6215 123.768 11.5043C123.146 11.3635 122.416 11.2932 121.578 11.2932C121.099 11.2932 120.585 11.3401 120.034 11.4339C119.508 11.5277 119.137 11.6098 118.921 11.6802V26.4211H114.577V8.90086C115.415 8.59595 116.456 8.3145 117.7 8.05651C118.969 7.77506 120.369 7.63433 121.901 7.63433C122.188 7.63433 122.524 7.65779 122.907 7.7047C123.29 7.72815 123.672 7.77506 124.055 7.84542C124.438 7.89233 124.809 7.96269 125.169 8.05651C125.528 8.12687 125.815 8.19723 126.03 8.2676L125.276 11.8561Z" fill="#F6CA1C"/>
<path d="M135.664 23.4307C137.005 23.4307 138.022 23.3603 138.716 23.2196V18.5053C138.477 18.435 138.13 18.3646 137.675 18.2942C137.22 18.2239 136.717 18.1887 136.167 18.1887C135.688 18.1887 135.197 18.2239 134.695 18.2942C134.216 18.3646 133.773 18.4936 133.366 18.6812C132.983 18.8689 132.672 19.1386 132.433 19.4904C132.193 19.8188 132.074 20.2409 132.074 20.7569C132.074 21.7655 132.397 22.4691 133.043 22.8678C133.689 23.2431 134.563 23.4307 135.664 23.4307ZM135.305 7.56397C136.741 7.56397 137.95 7.73988 138.931 8.09169C139.913 8.4435 140.691 8.93604 141.265 9.5693C141.864 10.2026 142.282 10.9766 142.522 11.8913C142.785 12.7825 142.917 13.7676 142.917 14.8465V25.9989C142.247 26.1397 141.229 26.3038 139.865 26.4915C138.524 26.7026 137.005 26.8081 135.305 26.8081C134.18 26.8081 133.151 26.7026 132.217 26.4915C131.284 26.2804 130.482 25.9403 129.812 25.4712C129.165 25.0021 128.651 24.3923 128.268 23.6418C127.909 22.8913 127.729 21.9648 127.729 20.8625C127.729 19.807 127.933 18.9158 128.34 18.1887C128.77 17.4616 129.345 16.8753 130.063 16.4296C130.781 15.9606 131.607 15.6322 132.54 15.4446C133.498 15.2335 134.491 15.1279 135.52 15.1279C135.999 15.1279 136.502 15.1631 137.028 15.2335C137.555 15.2804 138.118 15.3742 138.716 15.5149V14.8113C138.716 14.3188 138.656 13.8497 138.536 13.4041C138.417 12.9584 138.201 12.5714 137.89 12.2431C137.603 11.8913 137.208 11.6215 136.705 11.4339C136.227 11.2463 135.616 11.1525 134.874 11.1525C133.869 11.1525 132.947 11.2228 132.11 11.3635C131.272 11.5043 130.59 11.6684 130.063 11.8561L129.524 8.40832C130.075 8.22069 130.877 8.03306 131.93 7.84542C132.983 7.65779 134.108 7.56397 135.305 7.56397Z" fill="#F6CA1C"/>
<path d="M158.937 16.7463C158.937 14.823 158.685 13.4392 158.183 12.5949C157.704 11.7271 156.794 11.2932 155.454 11.2932C154.975 11.2932 154.448 11.3284 153.874 11.3987C153.3 11.4691 152.869 11.5277 152.581 11.5746V26.4211H148.237V8.61941C149.075 8.38487 150.164 8.16205 151.504 7.95096C152.869 7.73988 154.305 7.63433 155.813 7.63433C157.105 7.63433 158.159 7.79851 158.972 8.12687C159.81 8.45523 160.504 8.88913 161.055 9.42858C161.318 9.24094 161.653 9.04158 162.06 8.8305C162.467 8.61941 162.922 8.43178 163.425 8.2676C163.927 8.07996 164.454 7.92751 165.004 7.81024C165.579 7.69297 166.153 7.63433 166.728 7.63433C168.188 7.63433 169.385 7.84542 170.318 8.2676C171.276 8.66632 172.018 9.24094 172.544 9.99148C173.095 10.7186 173.466 11.6098 173.657 12.6653C173.873 13.6972 173.98 14.8348 173.98 16.0778V26.4211H169.636V16.7463C169.636 14.823 169.397 13.4392 168.918 12.5949C168.439 11.7271 167.518 11.2932 166.153 11.2932C165.459 11.2932 164.801 11.4105 164.179 11.645C163.556 11.8561 163.089 12.0672 162.778 12.2783C162.97 12.8646 163.101 13.4861 163.173 14.1429C163.245 14.7996 163.281 15.5032 163.281 16.2537V26.4211H158.937V16.7463Z" fill="#F6CA1C"/>
<path d="M185.909 23.4307C187.249 23.4307 188.267 23.3603 188.961 23.2196V18.5053C188.722 18.435 188.375 18.3646 187.92 18.2942C187.465 18.2239 186.962 18.1887 186.412 18.1887C185.933 18.1887 185.442 18.2239 184.94 18.2942C184.461 18.3646 184.018 18.4936 183.611 18.6812C183.228 18.8689 182.917 19.1386 182.678 19.4904C182.438 19.8188 182.319 20.2409 182.319 20.7569C182.319 21.7655 182.642 22.4691 183.288 22.8678C183.934 23.2431 184.808 23.4307 185.909 23.4307ZM185.55 7.56397C186.986 7.56397 188.195 7.73988 189.176 8.09169C190.158 8.4435 190.936 8.93604 191.51 9.5693C192.109 10.2026 192.527 10.9766 192.767 11.8913C193.03 12.7825 193.162 13.7676 193.162 14.8465V25.9989C192.492 26.1397 191.474 26.3038 190.11 26.4915C188.769 26.7026 187.249 26.8081 185.55 26.8081C184.425 26.8081 183.396 26.7026 182.462 26.4915C181.529 26.2804 180.727 25.9403 180.057 25.4712C179.41 25.0021 178.896 24.3923 178.513 23.6418C178.154 22.8913 177.974 21.9648 177.974 20.8625C177.974 19.807 178.178 18.9158 178.585 18.1887C179.015 17.4616 179.59 16.8753 180.308 16.4296C181.026 15.9606 181.852 15.6322 182.785 15.4446C183.743 15.2335 184.736 15.1279 185.765 15.1279C186.244 15.1279 186.747 15.1631 187.273 15.2335C187.8 15.2804 188.363 15.3742 188.961 15.5149V14.8113C188.961 14.3188 188.901 13.8497 188.781 13.4041C188.662 12.9584 188.446 12.5714 188.135 12.2431C187.848 11.8913 187.453 11.6215 186.95 11.4339C186.472 11.2463 185.861 11.1525 185.119 11.1525C184.114 11.1525 183.192 11.2228 182.355 11.3635C181.517 11.5043 180.835 11.6684 180.308 11.8561L179.769 8.40832C180.32 8.22069 181.122 8.03306 182.175 7.84542C183.228 7.65779 184.353 7.56397 185.55 7.56397Z" fill="#F6CA1C"/>
<path d="M218.869 22.5863V26.4211H203.143V2.04051H207.667V22.5863H218.869Z" fill="#5A4A37"/>
<path d="M226.487 26.4211H222.143V8.02132H226.487V26.4211ZM226.954 2.63859C226.954 3.43603 226.69 4.0693 226.164 4.53838C225.637 5.00746 225.015 5.242 224.297 5.242C223.555 5.242 222.92 5.00746 222.394 4.53838C221.867 4.0693 221.604 3.43603 221.604 2.63859C221.604 1.8177 221.867 1.17271 222.394 0.703626C222.92 0.234542 223.555 0 224.297 0C225.015 0 225.637 0.234542 226.164 0.703626C226.69 1.17271 226.954 1.8177 226.954 2.63859Z" fill="#5A4A37"/>
<path d="M236.733 23.3603C237.882 23.3603 238.72 23.2313 239.246 22.9733C239.773 22.6919 240.036 22.2228 240.036 21.5661C240.036 20.9563 239.749 20.452 239.174 20.0533C238.624 19.6546 237.702 19.2207 236.41 18.7516C235.62 18.4701 234.89 18.177 234.22 17.8721C233.573 17.5437 233.011 17.1684 232.532 16.7463C232.053 16.3241 231.67 15.8198 231.383 15.2335C231.12 14.6237 230.988 13.8849 230.988 13.0171C230.988 11.3284 231.622 10.0032 232.891 9.04157C234.16 8.0565 235.883 7.56396 238.061 7.56396C239.162 7.56396 240.216 7.66951 241.221 7.88059C242.226 8.06823 242.98 8.25586 243.483 8.44349L242.693 11.8913C242.214 11.6802 241.604 11.4925 240.862 11.3284C240.12 11.1407 239.258 11.0469 238.277 11.0469C237.391 11.0469 236.673 11.1994 236.122 11.5043C235.572 11.7857 235.297 12.2313 235.297 12.8411C235.297 13.1461 235.345 13.4158 235.44 13.6503C235.56 13.8849 235.751 14.1077 236.015 14.3188C236.278 14.5064 236.625 14.7058 237.056 14.9168C237.487 15.1045 238.013 15.3038 238.636 15.5149C239.665 15.8902 240.539 16.2655 241.257 16.6407C241.975 16.9925 242.561 17.403 243.016 17.8721C243.495 18.3177 243.842 18.8337 244.057 19.42C244.273 20.0064 244.38 20.71 244.38 21.5309C244.38 23.29 243.71 24.6269 242.37 25.5416C241.053 26.4328 239.162 26.8785 236.697 26.8785C235.045 26.8785 233.717 26.7377 232.712 26.4563C231.706 26.1983 231 25.9872 230.593 25.823L231.347 22.2697C231.994 22.5277 232.759 22.774 233.645 23.0085C234.555 23.2431 235.584 23.3603 236.733 23.3603Z" fill="#5A4A37"/>
<path d="M248.223 3.16631L252.568 2.46269V8.02132H259.246V11.5746H252.568V19.0682C252.568 20.5458 252.807 21.6013 253.286 22.2345C253.765 22.8678 254.578 23.1844 255.727 23.1844C256.517 23.1844 257.211 23.1023 257.81 22.9382C258.432 22.774 258.923 22.6215 259.282 22.4808L260 25.8582C259.497 26.0693 258.839 26.2804 258.025 26.4915C257.211 26.726 256.254 26.8433 255.153 26.8433C253.812 26.8433 252.687 26.6674 251.778 26.3156C250.892 25.9637 250.186 25.4595 249.66 24.8028C249.133 24.1226 248.762 23.3134 248.547 22.3753C248.331 21.4136 248.223 20.323 248.223 19.1034V3.16631Z" fill="#5A4A37"/>
</svg>
