<svg width="46" height="52" viewBox="0 0 46 52" fill="none" xmlns="http://www.w3.org/2000/svg">
<g filter="url(#filter0_d_83_1318)">
<path d="M14.704 47.808C13.36 47.808 11.752 47.688 9.88 47.448C8.008 47.256 6.184 46.968 4.408 46.584C2.632 46.2 1.192 45.768 0.0879974 45.288L2.392 34.488C4.216 35.4 6.256 36.072 8.512 36.504C10.816 36.888 12.928 37.08 14.848 37.08C17.824 37.08 19.96 36.744 21.256 36.072C22.6 35.4 23.464 34.152 23.848 32.328C23.896 32.136 23.92 31.968 23.92 31.824C23.92 31.68 23.92 31.536 23.92 31.392C23.92 29.328 22.072 28.296 18.376 28.296H10.528L13.336 19.224H19.888C22 19.224 23.584 18.888 24.64 18.216C25.696 17.544 26.368 16.464 26.656 14.976C26.704 14.784 26.728 14.616 26.728 14.472C26.776 14.28 26.8 14.088 26.8 13.896C26.8 12.84 26.272 12.048 25.216 11.52C24.208 10.992 22.504 10.728 20.104 10.728C17.992 10.728 15.808 10.968 13.552 11.448C11.296 11.928 9.304 12.552 7.576 13.32L9.88 2.592C11.8 1.872 14.128 1.272 16.864 0.792003C19.648 0.264001 22.36 0 25 0C29.992 0 33.928 1.056 36.808 3.168C39.688 5.28 41.128 7.92 41.128 11.088C41.128 11.424 41.104 11.808 41.056 12.24C41.008 12.624 40.936 13.008 40.84 13.392C40.36 15.6 39.496 17.616 38.248 19.44C37.048 21.264 35.512 22.704 33.64 23.76C36.424 25.008 37.816 27.264 37.816 30.528C37.816 31.008 37.768 31.488 37.672 31.968C37.624 32.448 37.552 32.952 37.456 33.48C36.4 38.424 33.88 42.048 29.896 44.352C25.96 46.656 20.896 47.808 14.704 47.808Z" fill="#F6CA1C"/>
</g>
<defs>
<filter id="filter0_d_83_1318" x="0.0879974" y="0" width="45.04" height="51.808" filterUnits="userSpaceOnUse" color-interpolation-filters="sRGB">
<feFlood flood-opacity="0" result="BackgroundImageFix"/>
<feColorMatrix in="SourceAlpha" type="matrix" values="0 0 0 0 0 0 0 0 0 0 0 0 0 0 0 0 0 0 127 0" result="hardAlpha"/>
<feOffset dx="4" dy="4"/>
<feComposite in2="hardAlpha" operator="out"/>
<feColorMatrix type="matrix" values="0 0 0 0 0.976471 0 0 0 0 0.972549 0 0 0 0 0.952941 0 0 0 1 0"/>
<feBlend mode="normal" in2="BackgroundImageFix" result="effect1_dropShadow_83_1318"/>
<feBlend mode="normal" in="SourceGraphic" in2="effect1_dropShadow_83_1318" result="shape"/>
</filter>
</defs>
</svg>
