<svg id="圖層_1" data-name="圖層 1" xmlns="http://www.w3.org/2000/svg" viewBox="0 0 500 500"><defs><style>.cls-1{fill:#f5f5f5;}.cls-2{fill:#b1a89a;}</style></defs><rect class="cls-1" width="500" height="500"/><path class="cls-2" d="M325.49,253.87c2.54.54,5,.94,7.34,1.57,20.18,5.34,33.23,23.58,32.33,45.15-.8,19.3-16.28,36.56-35.93,40.08a43.71,43.71,0,0,1-50.16-32.94c-.47-2-1.3-2.21-3-2.21-42.6,0-85.19-.09-127.79.14a13,13,0,0,1-13.5-13.57c.24-40.2.11-80.39.11-120.59,0-8,4.83-12.85,12.75-12.85q82.5,0,165,0c8,0,12.82,4.82,12.82,12.78v82.44Zm-91.35-5.72c.75-.7,1.35-1.23,1.92-1.79l19.13-19.12c4.36-4.36,9-4.25,13.07.26q8.16,9,16.35,18c4.56,5,9.13,10,13.19,14.45l19.76-6.7V172.15c0-4.26-1.34-5.58-5.67-5.58H148.39c-4.17,0-5.55,1.35-5.55,5.45v116.6c0,.61.1,1.22.18,2.15.63-.7,1-1.1,1.38-1.53l26.18-32.73q14.47-18.1,29-36.2c4-4.9,9.52-4.76,13.39.19,2.09,2.67,4.14,5.37,6.19,8.06Zm-86,49.31H261.69L206.27,225Zm129.63.16a44.39,44.39,0,0,1,14.14-32.16c-10-11-20-22-30.3-33.32l-22,23.1c-.18-.33-.08-.1.06.1q15.72,20.58,31.47,41.13a3.6,3.6,0,0,0,2.24,1.1A35.41,35.41,0,0,0,277.76,297.62Zm79.5,0c-.07-19.64-16.19-35.82-35.64-35.77a35.74,35.74,0,1,0,.17,71.47C341.17,333.24,357.32,317,357.26,297.65Z" transform="translate(0)"/><path class="cls-2" d="M262,194.24a19.85,19.85,0,1,1,19.92,20A19.72,19.72,0,0,1,262,194.24ZM282,182.48a11.89,11.89,0,1,0,11.67,12.05A12.1,12.1,0,0,0,282,182.48Z" transform="translate(0)"/><path class="cls-2" d="M349.31,297.67a27.79,27.79,0,1,1-27.87-27.84A27.66,27.66,0,0,1,349.31,297.67ZM331.8,280.85c-7.31-5-17.88-3.82-24.48,2.95s-7.5,17.38-2.52,24.05Q318.21,294.42,331.8,280.85Zm-20.53,33.43c6.52,5.21,18,3.92,24.55-2.95,6.43-6.72,7.44-18.11,2.29-24Q324.7,300.82,311.27,314.28Z" transform="translate(0)"/></svg>